<svg width="24" height="24" viewBox="0 0 24 24" fill="none" xmlns="http://www.w3.org/2000/svg">
<rect width="24" height="24" rx="6" fill="#EFF1F5"/>
<path d="M9.74103 6.25H15.1844C15.5777 6.25 15.9723 6.31428 16.2477 6.59972C16.5189 6.88162 16.5703 7.27203 16.5703 7.6359V14.5949C16.5703 14.9151 16.5278 15.23 16.3638 15.4848C16.2693 15.6317 16.1368 15.7505 15.9805 15.8286V16.3641C15.9805 16.7569 15.9168 17.1514 15.632 17.4268C15.3501 17.6993 14.9597 17.75 14.5958 17.75H8.31385C8.07923 17.75 7.85423 17.6568 7.68833 17.4909C7.52243 17.325 7.42923 17.1 7.42923 16.8654V8.47156C7.42746 8.17787 7.42569 7.81105 7.5059 7.47667C7.60438 7.06856 7.83144 6.67285 8.31444 6.42692C8.51377 6.32549 8.72372 6.28538 8.94782 6.26769C9.16308 6.25 9.42551 6.25 9.74103 6.25ZM8.31385 16.8654H14.5958C14.9184 16.8654 14.9986 16.8088 15.0169 16.7911C15.0316 16.7769 15.0959 16.6997 15.0959 16.3641V15.9808H9.19846C8.96385 15.9808 8.73884 16.074 8.57294 16.2399C8.40705 16.4058 8.31385 16.6308 8.31385 16.8654Z" fill="#2A3EB1"/>
<path d="M10.6255 10.7005C10.7739 10.6806 10.9222 10.7313 11.0274 10.836L11.2931 11.1003L11.5444 10.8514L11.1813 10.4912C11.1248 10.435 11.1248 10.3436 11.1813 10.2874C11.2378 10.2312 11.3296 10.2312 11.3861 10.2874L11.7492 10.6487L12.0005 10.3997L11.7337 10.1343C11.6285 10.0296 11.5776 9.88091 11.5976 9.73441C11.6418 9.39953 11.5344 9.04924 11.2765 8.79147C11.013 8.5293 10.6521 8.42355 10.31 8.47423C10.2558 8.48194 10.2336 8.54913 10.2724 8.58769L10.6145 8.92807C10.7772 9.09 10.7772 9.35217 10.6145 9.51299L10.4041 9.72229C10.2414 9.88422 9.97791 9.88422 9.81627 9.72229L9.47308 9.38191C9.43433 9.34335 9.36791 9.36539 9.35905 9.41936C9.30813 9.75974 9.41441 10.1189 9.67789 10.381C9.93694 10.6377 10.289 10.7445 10.6255 10.7005Z" fill="white"/>
<path d="M10.6255 10.7005C10.7739 10.6806 10.9222 10.7313 11.0274 10.836L11.2931 11.1003L11.5444 10.8514L11.1813 10.4912C11.1248 10.435 11.1248 10.3436 11.1813 10.2874C11.2378 10.2312 11.3296 10.2312 11.3861 10.2874L11.7492 10.6487L12.0005 10.3997L11.7337 10.1343C11.6285 10.0296 11.5776 9.88091 11.5976 9.73441C11.6418 9.39953 11.5344 9.04924 11.2765 8.79147C11.013 8.5293 10.6521 8.42355 10.31 8.47423C10.2558 8.48194 10.2336 8.54913 10.2724 8.58769L10.6145 8.92807C10.7772 9.09 10.7772 9.35217 10.6145 9.51299L10.4041 9.72229C10.2414 9.88422 9.97791 9.88422 9.81627 9.72229L9.47308 9.38191C9.43433 9.34335 9.36791 9.36539 9.35905 9.41936C9.30813 9.75974 9.41441 10.1189 9.67789 10.381C9.93694 10.6377 10.289 10.7445 10.6255 10.7005Z" fill="white"/>
<path d="M12.755 11.1455L12.5032 11.3933L13.998 12.8712C14.0545 12.9272 14.0545 13.0182 13.998 13.0741C13.9414 13.13 13.8494 13.13 13.7928 13.0741L12.2981 11.5961L12.0464 11.8439L13.5866 13.3668C13.7818 13.5598 14.0978 13.5587 14.2929 13.3657C14.4881 13.1728 14.4881 12.8603 14.2941 12.6673L12.755 11.1455Z" fill="white"/>
<path d="M12.755 11.1455L12.5032 11.3933L13.998 12.8712C14.0545 12.9272 14.0545 13.0182 13.998 13.0741C13.9414 13.13 13.8494 13.13 13.7928 13.0741L12.2981 11.5961L12.0464 11.8439L13.5866 13.3668C13.7818 13.5598 14.0978 13.5587 14.2929 13.3657C14.4881 13.1728 14.4881 12.8603 14.2941 12.6673L12.755 11.1455Z" fill="white"/>
<path d="M13.3243 10.1537H13.9891L14.6539 8.83677L14.322 8.50781L12.9925 9.16573V9.82475L11.1857 11.6104L10.8605 11.2891L9.55095 12.5873C9.27794 12.858 9.27794 13.2959 9.55095 13.5665C9.82397 13.8372 10.2657 13.8372 10.5387 13.5665L11.8483 12.2683L11.5164 11.9393L13.3243 10.1537Z" fill="white"/>
<path d="M13.3243 10.1537H13.9891L14.6539 8.83677L14.322 8.50781L12.9925 9.16573V9.82475L11.1857 11.6104L10.8605 11.2891L9.55095 12.5873C9.27794 12.858 9.27794 13.2959 9.55095 13.5665C9.82397 13.8372 10.2657 13.8372 10.5387 13.5665L11.8483 12.2683L11.5164 11.9393L13.3243 10.1537Z" fill="white"/>
</svg>
