<svg width="17" height="17" viewBox="0 0 13 15" fill="none" xmlns="http://www.w3.org/2000/svg">
<path id="phonelink_setup" d="M2.29036 14.8333C1.9237 14.8333 1.60981 14.7027 1.3487 14.4416C1.08759 14.1805 0.957031 13.8666 0.957031 13.5V1.49996C0.957031 1.13329 1.08759 0.819404 1.3487 0.558293C1.60981 0.297182 1.9237 0.166626 2.29036 0.166626H8.95703C9.3237 0.166626 9.63759 0.297182 9.8987 0.558293C10.1598 0.819404 10.2904 1.13329 10.2904 1.49996V4.16663H8.95703V3.49996H2.29036V11.5H8.95703V10.8333H10.2904V13.5C10.2904 13.8666 10.1598 14.1805 9.8987 14.4416C9.63759 14.7027 9.3237 14.8333 8.95703 14.8333H2.29036ZM2.29036 12.8333V13.5H8.95703V12.8333H2.29036ZM8.95703 10.1666L8.85703 9.33329C8.76814 9.29996 8.69036 9.26385 8.6237 9.22496C8.55703 9.18607 8.49036 9.13329 8.4237 9.06663L7.65703 9.39996L6.99036 8.23329L7.65703 7.73329C7.63481 7.6444 7.6237 7.56107 7.6237 7.48329C7.6237 7.40552 7.63481 7.32218 7.65703 7.23329L6.99036 6.73329L7.69036 5.59996L8.4237 5.89996C8.49036 5.8444 8.55703 5.79996 8.6237 5.76663C8.69036 5.73329 8.76814 5.69996 8.85703 5.66663L8.95703 4.83329H10.2904L10.3904 5.66663C10.4793 5.69996 10.557 5.73329 10.6237 5.76663C10.6904 5.79996 10.757 5.8444 10.8237 5.89996L11.557 5.59996L12.257 6.73329L11.5904 7.23329C11.6126 7.32218 11.6237 7.40552 11.6237 7.48329C11.6237 7.56107 11.6126 7.6444 11.5904 7.73329L12.257 8.23329L11.5904 9.39996L10.8237 9.06663C10.757 9.13329 10.6904 9.18607 10.6237 9.22496C10.557 9.26385 10.4793 9.29996 10.3904 9.33329L10.2904 10.1666H8.95703ZM9.6237 8.49996C9.91259 8.49996 10.1515 8.40551 10.3404 8.21663C10.5293 8.02774 10.6237 7.78885 10.6237 7.49996C10.6237 7.21107 10.5293 6.97218 10.3404 6.78329C10.1515 6.5944 9.91259 6.49996 9.6237 6.49996C9.33481 6.49996 9.09592 6.5944 8.90703 6.78329C8.71814 6.97218 8.6237 7.21107 8.6237 7.49996C8.6237 7.78885 8.71814 8.02774 8.90703 8.21663C9.09592 8.40551 9.33481 8.49996 9.6237 8.49996ZM2.29036 2.16663H8.95703V1.49996H2.29036V2.16663Z" fill="#727CAF"/>
</svg>
