<svg width="20" height="20" viewBox="0 0 12 12" fill="#EEEEEE" xmlns="http://www.w3.org/2000/svg">
<path d="M8.24576 6.38047L11.2238 9.42411C11.4687 9.67775 11.5911 9.97949 11.5911 10.3293C11.5911 10.6792 11.4687 10.9809 11.2238 11.2346C10.9702 11.4882 10.6641 11.615 10.3055 11.615C9.95563 11.615 9.65826 11.4882 9.41337 11.2346L6.63211 8.45329L6.61899 8.42705L8.24576 6.38047ZM2.47333 2.96948L1.75178 2.9826L0.374268 0.883538L0.49234 0.752346L0.610412 0.634274L0.859676 0.38501L2.94562 1.78876L2.9325 2.28729L4.97909 4.33388L4.5724 4.74057L2.47333 2.96948ZM10.8696 4.81929C10.5635 5.13415 10.1524 5.2872 9.63639 5.27846C9.12037 5.26971 8.65683 5.22598 8.24576 5.14726L2.91938 11.1821C2.63951 11.4707 2.29404 11.615 1.88297 11.615C1.48065 11.615 1.13518 11.4707 0.846557 11.1821C0.566682 10.9022 0.426744 10.5611 0.426744 10.1588C0.426744 9.74772 0.566682 9.39787 0.846557 9.10925L6.61899 3.52049C6.54027 3.10942 6.54027 2.69398 6.61899 2.27417C6.70645 1.84561 6.90761 1.4739 7.22247 1.15904C7.5898 0.791704 8.01836 0.559932 8.50815 0.463725C8.99793 0.358771 9.47022 0.389383 9.92501 0.555559L8.49503 1.99867C8.3376 2.14735 8.25888 2.33102 8.25888 2.54967C8.25888 2.76832 8.3376 2.95636 8.49503 3.11379L8.92796 3.54673C9.07664 3.70416 9.26031 3.78287 9.47896 3.78287C9.69762 3.78287 9.88566 3.70416 10.0431 3.54673L11.4731 2.10362C11.6393 2.56716 11.6699 3.04383 11.5649 3.53361C11.4687 4.02339 11.2369 4.45195 10.8696 4.81929ZM2.46021 10.7491C2.61764 10.5917 2.69636 10.3993 2.69636 10.1719C2.69636 9.93576 2.61764 9.73897 2.46021 9.58154C2.29404 9.42411 2.09725 9.3454 1.86985 9.3454C1.64245 9.3454 1.45004 9.42411 1.29261 9.58154C1.12643 9.73897 1.04334 9.93576 1.04334 10.1719C1.04334 10.3993 1.12643 10.5917 1.29261 10.7491C1.45004 10.9066 1.64245 10.9853 1.86985 10.9853C2.09725 10.9853 2.29404 10.9066 2.46021 10.7491Z" fill="#727CAF"/>
</svg>
