<svg width="15" height="13" viewBox="0 0 15 13" fill="none" xmlns="http://www.w3.org/2000/svg">
<path id="pixel_9_pro_fold" d="M2.29036 12.5C1.9237 12.5 1.60981 12.3694 1.3487 12.1083C1.08759 11.8472 0.957031 11.5333 0.957031 11.1667V1.83333C0.957031 1.46667 1.08759 1.15278 1.3487 0.891667C1.60981 0.630556 1.9237 0.5 2.29036 0.5H12.957C13.3237 0.5 13.6376 0.630556 13.8987 0.891667C14.1598 1.15278 14.2904 1.46667 14.2904 1.83333V11.1667C14.2904 11.5333 14.1598 11.8472 13.8987 12.1083C13.6376 12.3694 13.3237 12.5 12.957 12.5H2.29036ZM7.6237 11.1667H12.957V1.83333H7.6237V11.1667ZM2.95703 6.5H5.6237C5.81259 6.5 5.97092 6.43611 6.0987 6.30833C6.22648 6.18056 6.29036 6.02222 6.29036 5.83333C6.29036 5.64444 6.22648 5.48611 6.0987 5.35833C5.97092 5.23056 5.81259 5.16667 5.6237 5.16667H2.95703C2.76814 5.16667 2.60981 5.23056 2.48203 5.35833C2.35425 5.48611 2.29036 5.64444 2.29036 5.83333C2.29036 6.02222 2.35425 6.18056 2.48203 6.30833C2.60981 6.43611 2.76814 6.5 2.95703 6.5ZM10.2904 3.83333C10.4793 3.83333 10.6376 3.76944 10.7654 3.64167C10.8931 3.51389 10.957 3.35556 10.957 3.16667C10.957 2.97778 10.8931 2.81944 10.7654 2.69167C10.6376 2.56389 10.4793 2.5 10.2904 2.5C10.1015 2.5 9.94314 2.56389 9.81536 2.69167C9.68759 2.81944 9.6237 2.97778 9.6237 3.16667C9.6237 3.35556 9.68759 3.51389 9.81536 3.64167C9.94314 3.76944 10.1015 3.83333 10.2904 3.83333ZM2.95703 3.83333H5.6237C5.81259 3.83333 5.97092 3.76944 6.0987 3.64167C6.22648 3.51389 6.29036 3.35556 6.29036 3.16667C6.29036 2.97778 6.22648 2.81944 6.0987 2.69167C5.97092 2.56389 5.81259 2.5 5.6237 2.5H2.95703C2.76814 2.5 2.60981 2.56389 2.48203 2.69167C2.35425 2.81944 2.29036 2.97778 2.29036 3.16667C2.29036 3.35556 2.35425 3.51389 2.48203 3.64167C2.60981 3.76944 2.76814 3.83333 2.95703 3.83333Z" fill="#727CAF"/>
</svg>
