<svg width="13" height="12" viewBox="0 0 13 12" fill="none" xmlns="http://www.w3.org/2000/svg">
<g id="charging_station">
<mask id="mask0_120_1571" style="mask-type:alpha" maskUnits="userSpaceOnUse" x="0" y="0" width="13" height="12">
<rect id="Bounding box" x="0.884766" y="0.38501" width="11.23" height="11.23" fill="#D9D9D9"/>
</mask>
<g mask="url(#mask0_120_1571)">
<path id="charging_station_2" d="M6.26558 8.33969V6.46803H5.32975L6.7335 3.66053V5.53219H7.66933L6.26558 8.33969ZM4.15995 11.1472C3.9026 11.1472 3.68229 11.0556 3.49902 10.8723C3.31575 10.689 3.22412 10.4687 3.22412 10.2114V1.78886C3.22412 1.53151 3.31575 1.3112 3.49902 1.12793C3.68229 0.944661 3.9026 0.853027 4.15995 0.853027H8.83912C9.09648 0.853027 9.31679 0.944661 9.50005 1.12793C9.68332 1.3112 9.77495 1.53151 9.77495 1.78886V10.2114C9.77495 10.4687 9.68332 10.689 9.50005 10.8723C9.31679 11.0556 9.09648 11.1472 8.83912 11.1472H4.15995ZM4.15995 9.74344V10.2114H8.83912V9.74344H4.15995ZM4.15995 8.80761H8.83912V3.19261H4.15995V8.80761ZM4.15995 2.25678H8.83912V1.78886H4.15995V2.25678Z" fill="#2A3EB1"/>
</g>
</g>
</svg>
