<svg width="15" height="11" viewBox="0 0 15 11" fill="none" xmlns="http://www.w3.org/2000/svg">
<path id="text_ad" d="M2.95703 8.83342H12.2904V7.50008H2.95703V8.83342ZM2.95703 6.16675H12.2904V4.83342H2.95703V6.16675ZM2.95703 3.50008H9.6237V2.16675H2.95703V3.50008ZM2.29036 10.8334C1.9237 10.8334 1.60981 10.7029 1.3487 10.4417C1.08759 10.1806 0.957031 9.86675 0.957031 9.50008V1.50008C0.957031 1.13341 1.08759 0.819526 1.3487 0.558415C1.60981 0.297304 1.9237 0.166748 2.29036 0.166748H12.957C13.3237 0.166748 13.6376 0.297304 13.8987 0.558415C14.1598 0.819526 14.2904 1.13341 14.2904 1.50008V9.50008C14.2904 9.86675 14.1598 10.1806 13.8987 10.4417C13.6376 10.7029 13.3237 10.8334 12.957 10.8334H2.29036ZM2.29036 9.50008H12.957V1.50008H2.29036V9.50008Z" fill="#727CAF"/>
</svg>
