<svg width="12" height="15" viewBox="0 0 12 15" fill="none" xmlns="http://www.w3.org/2000/svg">
<path id="phonelink_lock" d="M8.19036 10.1667C8.03481 10.1667 7.90148 10.1112 7.79036 10.0001C7.67925 9.88897 7.6237 9.75564 7.6237 9.60008V7.40008C7.6237 7.24453 7.67925 7.11119 7.79036 7.00008C7.90148 6.88897 8.03481 6.83342 8.19036 6.83342H8.29036V6.16675C8.29036 5.80008 8.42092 5.48619 8.68203 5.22508C8.94314 4.96397 9.25703 4.83342 9.6237 4.83342C9.99037 4.83342 10.3043 4.96397 10.5654 5.22508C10.8265 5.48619 10.957 5.80008 10.957 6.16675V6.83342H11.057C11.2126 6.83342 11.3459 6.88897 11.457 7.00008C11.5681 7.11119 11.6237 7.24453 11.6237 7.40008V9.60008C11.6237 9.75564 11.5681 9.88897 11.457 10.0001C11.3459 10.1112 11.2126 10.1667 11.057 10.1667H8.19036ZM8.95703 6.83342H10.2904V6.16675C10.2904 5.97786 10.2265 5.81953 10.0987 5.69175C9.97092 5.56397 9.81259 5.50008 9.6237 5.50008C9.43481 5.50008 9.27648 5.56397 9.1487 5.69175C9.02092 5.81953 8.95703 5.97786 8.95703 6.16675V6.83342ZM2.29036 14.8334C1.9237 14.8334 1.60981 14.7029 1.3487 14.4417C1.08759 14.1806 0.957031 13.8667 0.957031 13.5001V1.50008C0.957031 1.13341 1.08759 0.819526 1.3487 0.558415C1.60981 0.297304 1.9237 0.166748 2.29036 0.166748H8.95703C9.3237 0.166748 9.63759 0.297304 9.8987 0.558415C10.1598 0.819526 10.2904 1.13341 10.2904 1.50008V4.16675H8.95703V3.50008H2.29036V11.5001H8.95703V10.8334H10.2904V13.5001C10.2904 13.8667 10.1598 14.1806 9.8987 14.4417C9.63759 14.7029 9.3237 14.8334 8.95703 14.8334H2.29036ZM2.29036 12.8334V13.5001H8.95703V12.8334H2.29036ZM2.29036 2.16675H8.95703V1.50008H2.29036V2.16675Z" fill="#727CAF"/>
</svg>
