<svg width="11" height="15" viewBox="0 0 11 15" fill="none" xmlns="http://www.w3.org/2000/svg">
<path id="perm_device_information" d="M4.95703 10.5001V6.83342H6.29036V10.5001H4.95703ZM5.6237 5.50008C5.43481 5.50008 5.27648 5.43619 5.1487 5.30841C5.02092 5.18064 4.95703 5.0223 4.95703 4.83342C4.95703 4.64453 5.02092 4.48619 5.1487 4.35841C5.27648 4.23064 5.43481 4.16675 5.6237 4.16675C5.81259 4.16675 5.97092 4.23064 6.0987 4.35841C6.22648 4.48619 6.29036 4.64453 6.29036 4.83342C6.29036 5.0223 6.22648 5.18064 6.0987 5.30841C5.97092 5.43619 5.81259 5.50008 5.6237 5.50008ZM2.29036 14.8334C1.9237 14.8334 1.60981 14.7029 1.3487 14.4417C1.08759 14.1806 0.957031 13.8667 0.957031 13.5001V1.50008C0.957031 1.13341 1.08759 0.819526 1.3487 0.558415C1.60981 0.297304 1.9237 0.166748 2.29036 0.166748H8.95703C9.3237 0.166748 9.63759 0.297304 9.8987 0.558415C10.1598 0.819526 10.2904 1.13341 10.2904 1.50008V13.5001C10.2904 13.8667 10.1598 14.1806 9.8987 14.4417C9.63759 14.7029 9.3237 14.8334 8.95703 14.8334H2.29036ZM2.29036 12.8334V13.5001H8.95703V12.8334H2.29036ZM2.29036 11.5001H8.95703V3.50008H2.29036V11.5001ZM2.29036 2.16675H8.95703V1.50008H2.29036V2.16675Z" fill="#2A3EB1"/>
</svg>
