<svg width="13" height="13" viewBox="0 0 13 13" fill="none" xmlns="http://www.w3.org/2000/svg">
<path id="ballot" d="M6.95703 5.16667H10.2904V3.83333H6.95703V5.16667ZM6.95703 9.16667H10.2904V7.83333H6.95703V9.16667ZM4.95703 5.83333C5.3237 5.83333 5.63759 5.70278 5.8987 5.44167C6.15981 5.18056 6.29036 4.86667 6.29036 4.5C6.29036 4.13333 6.15981 3.81944 5.8987 3.55833C5.63759 3.29722 5.3237 3.16667 4.95703 3.16667C4.59036 3.16667 4.27648 3.29722 4.01536 3.55833C3.75425 3.81944 3.6237 4.13333 3.6237 4.5C3.6237 4.86667 3.75425 5.18056 4.01536 5.44167C4.27648 5.70278 4.59036 5.83333 4.95703 5.83333ZM4.95703 9.83333C5.3237 9.83333 5.63759 9.70278 5.8987 9.44167C6.15981 9.18056 6.29036 8.86667 6.29036 8.5C6.29036 8.13333 6.15981 7.81945 5.8987 7.55833C5.63759 7.29722 5.3237 7.16667 4.95703 7.16667C4.59036 7.16667 4.27648 7.29722 4.01536 7.55833C3.75425 7.81945 3.6237 8.13333 3.6237 8.5C3.6237 8.86667 3.75425 9.18056 4.01536 9.44167C4.27648 9.70278 4.59036 9.83333 4.95703 9.83333ZM2.29036 12.5C1.9237 12.5 1.60981 12.3694 1.3487 12.1083C1.08759 11.8472 0.957031 11.5333 0.957031 11.1667V1.83333C0.957031 1.46667 1.08759 1.15278 1.3487 0.891667C1.60981 0.630556 1.9237 0.5 2.29036 0.5H11.6237C11.9904 0.5 12.3043 0.630556 12.5654 0.891667C12.8265 1.15278 12.957 1.46667 12.957 1.83333V11.1667C12.957 11.5333 12.8265 11.8472 12.5654 12.1083C12.3043 12.3694 11.9904 12.5 11.6237 12.5H2.29036ZM2.29036 11.1667H11.6237V1.83333H2.29036V11.1667Z" fill="#727CAF"/>
</svg>
