<svg width="15" height="14" viewBox="0 0 15 14" fill="none" xmlns="http://www.w3.org/2000/svg">
<mask id="mask0_1272_142" style="mask-type:alpha" maskUnits="userSpaceOnUse" x="0" y="0" width="15" height="14">
<rect x="0.957031" y="0.349976" width="13.3" height="13.3" fill="#D9D9D9"/>
</mask>
<g mask="url(#mask0_1272_142)">
<path d="M3.16012 11.9875V10.325H4.87804L3.46492 5.69773C3.21554 5.55919 3.01004 5.35599 2.8484 5.08815C2.68677 4.8203 2.60596 4.53398 2.60596 4.22919C2.60596 3.76738 2.76759 3.37485 3.09085 3.05158C3.41412 2.72832 3.80665 2.56669 4.26846 2.56669C4.62867 2.56669 4.94962 2.67059 5.23132 2.87841C5.51302 3.08622 5.70929 3.35176 5.82012 3.67502H7.59346V3.12085C7.59346 2.96384 7.64656 2.83223 7.75278 2.72601C7.859 2.6198 7.99061 2.56669 8.14762 2.56669C8.23075 2.56669 8.31156 2.58516 8.39007 2.6221C8.46858 2.65905 8.53554 2.71447 8.59096 2.78835L9.53304 1.90169C9.61617 1.81856 9.71545 1.76545 9.83091 1.74236C9.94636 1.71927 10.0595 1.73544 10.1703 1.79085L12.3316 2.78835C12.4424 2.84377 12.5186 2.92459 12.5602 3.0308C12.6017 3.13702 12.5994 3.24092 12.5532 3.34252C12.4978 3.45335 12.417 3.52493 12.3108 3.55726C12.2046 3.58959 12.1007 3.58266 11.9991 3.53648L10.0041 2.6221L8.70179 3.84127V4.6171L10.0041 5.80856L11.9991 4.89419C12.1007 4.84801 12.2069 4.84339 12.3177 4.88033C12.4286 4.91728 12.5071 4.98655 12.5532 5.08815C12.6087 5.19898 12.6133 5.30519 12.5671 5.40679C12.5209 5.50839 12.4424 5.5869 12.3316 5.64231L10.1703 6.66752C10.0595 6.72294 9.94636 6.7391 9.83091 6.71601C9.71545 6.69292 9.61617 6.63981 9.53304 6.55669L8.59096 5.67002C8.53554 5.72544 8.46858 5.77624 8.39007 5.82242C8.31156 5.8686 8.23075 5.89169 8.14762 5.89169C7.99061 5.89169 7.859 5.83858 7.75278 5.73236C7.64656 5.62615 7.59346 5.49453 7.59346 5.33752V4.78335H5.82012C5.79242 4.85724 5.7624 4.92651 5.73007 4.99117C5.69775 5.05582 5.65387 5.12509 5.59846 5.19898L8.36929 10.325H10.3643V11.9875H3.16012ZM4.26846 4.78335C4.42547 4.78335 4.55709 4.73025 4.6633 4.62403C4.76952 4.51782 4.82262 4.3862 4.82262 4.22919C4.82262 4.07217 4.76952 3.94056 4.6633 3.83434C4.55709 3.72813 4.42547 3.67502 4.26846 3.67502C4.11144 3.67502 3.97983 3.72813 3.87361 3.83434C3.7674 3.94056 3.71429 4.07217 3.71429 4.22919C3.71429 4.3862 3.7674 4.51782 3.87361 4.62403C3.97983 4.73025 4.11144 4.78335 4.26846 4.78335ZM6.01408 10.325H7.09471L4.71179 5.89169H4.65637L6.01408 10.325Z" fill="#727CAF"/>
</g>
</svg>
