<svg width="17" height="17" viewBox="0 0 17 17" fill="none" xmlns="http://www.w3.org/2000/svg">
<g id="edit_location_alt">
<mask id="mask0_120_1853" style="mask-type:alpha" maskUnits="userSpaceOnUse" x="0" y="0" width="17" height="17">
<rect id="Bounding box" x="0.957031" y="0.5" width="16" height="16" fill="#D9D9D9"/>
</mask>
<g mask="url(#mask0_120_1853)">
<path id="edit_location_alt_2" d="M8.95687 15.1667C7.16798 13.6445 5.83187 12.2306 4.94854 10.925C4.0652 9.61946 3.62354 8.41113 3.62354 7.30002C3.62354 5.63335 4.15965 4.30557 5.23187 3.31668C6.30409 2.32779 7.54576 1.83335 8.95687 1.83335C9.25687 1.83335 9.55409 1.85835 9.84854 1.90835C10.143 1.95835 10.4291 2.02779 10.7069 2.11668L9.62353 3.21668C9.51242 3.19446 9.40409 3.18057 9.29853 3.17502C9.19298 3.16946 9.07909 3.16668 8.95687 3.16668C7.83465 3.16668 6.88742 3.55279 6.1152 4.32502C5.34298 5.09724 4.95687 6.08891 4.95687 7.30002C4.95687 8.08891 5.28465 8.99168 5.9402 10.0084C6.59576 11.025 7.60131 12.1556 8.95687 13.4C10.3124 12.1556 11.318 11.025 11.9735 10.0084C12.6291 8.99168 12.9569 8.08891 12.9569 7.30002C12.9569 7.16668 12.9513 7.03335 12.9402 6.90002C12.9291 6.76668 12.9124 6.63891 12.8902 6.51668L13.9902 5.41668C14.0902 5.70557 14.1652 6.00557 14.2152 6.31668C14.2652 6.62779 14.2902 6.95557 14.2902 7.30002C14.2902 8.41113 13.8485 9.61946 12.9652 10.925C12.0819 12.2306 10.7458 13.6445 8.95687 15.1667ZM12.4235 2.30002L8.2902 6.43335V7.83335H9.6902L13.8235 3.70002L12.4235 2.30002ZM14.2902 3.23335L14.7569 2.76668C14.8791 2.64446 14.9402 2.48891 14.9402 2.30002C14.9402 2.11113 14.8791 1.95557 14.7569 1.83335L14.2902 1.36668C14.168 1.24446 14.0124 1.18335 13.8235 1.18335C13.6346 1.18335 13.4791 1.24446 13.3569 1.36668L12.8902 1.83335L14.2902 3.23335Z" fill="#2A3EB1"/>
</g>
</g>
</svg>
