<svg width="20" height="20" viewBox="0 0 10 10" fill="none" xmlns="http://www.w3.org/2000/svg">
<path fill-rule="evenodd" clip-rule="evenodd" d="M8.33304 5.43797C8.34989 5.29759 8.36112 5.1516 8.36112 5C8.36112 4.84839 8.34989 4.7024 8.32743 4.56203L9.27637 3.82085C9.36059 3.75347 9.38305 3.62994 9.33251 3.53448L8.43411 1.97913C8.37796 1.87806 8.26005 1.84437 8.15898 1.87806L7.04159 2.32726C6.80577 2.14758 6.5587 2.00159 6.28357 1.88929L6.11512 0.698906C6.09827 0.586606 6.00282 0.507996 5.89052 0.507996H4.09372C3.98142 0.507996 3.89158 0.586606 3.87473 0.698906L3.70628 1.88929C3.43115 2.00159 3.17847 2.15319 2.94826 2.32726L1.83087 1.87806C1.7298 1.83875 1.61189 1.87806 1.55574 1.97913L0.65734 3.53448C0.60119 3.63555 0.62365 3.75347 0.71349 3.82085L1.66242 4.56203C1.63996 4.7024 1.62312 4.85401 1.62312 5C1.62312 5.14599 1.63435 5.29759 1.65681 5.43797L0.707875 6.17915C0.62365 6.24653 0.60119 6.37006 0.651725 6.46551L1.55012 8.02087C1.60627 8.12194 1.72419 8.15563 1.82526 8.12194L2.94264 7.67274C3.17847 7.85242 3.42553 7.99841 3.70067 8.11071L3.86912 9.30109C3.89158 9.41339 3.98142 9.492 4.09372 9.492H5.89052C6.00282 9.492 6.09827 9.41339 6.1095 9.30109L6.27796 8.11071C6.55309 7.99841 6.80576 7.8468 7.03598 7.67274L8.15337 8.12194C8.25444 8.16124 8.37235 8.12194 8.4285 8.02087L9.3269 6.46551C9.38305 6.36444 9.36059 6.24653 9.27075 6.17915L8.33304 5.43797ZM4.99212 6.68449C4.06564 6.68449 3.30762 5.92647 3.30762 5C3.30762 4.07352 4.06564 3.3155 4.99212 3.3155C5.91859 3.3155 6.67662 4.07352 6.67662 5C6.67662 5.92647 5.91859 6.68449 4.99212 6.68449Z"
 fill="#2A3EB1"/>
</svg>
