<svg width="14" height="15" viewBox="0 0 14 15" fill="none" xmlns="http://www.w3.org/2000/svg">
<path d="M6.95726 14.1833C6.77948 14.1833 6.61004 14.15 6.44893 14.0833C6.28782 14.0167 6.14059 13.9222 6.00726 13.8L0.657259 8.45C0.535037 8.31667 0.440592 8.16944 0.373926 8.00833C0.307259 7.84722 0.273926 7.67778 0.273926 7.5C0.273926 7.32222 0.307259 7.15 0.373926 6.98333C0.440592 6.81667 0.535037 6.67222 0.657259 6.55L6.00726 1.2C6.14059 1.06667 6.28782 0.969443 6.44893 0.908332C6.61004 0.847221 6.77948 0.816666 6.95726 0.816666C7.13504 0.816666 7.30726 0.847221 7.47393 0.908332C7.64059 0.969443 7.78504 1.06667 7.90726 1.2L13.2573 6.55C13.3906 6.67222 13.4878 6.81667 13.5489 6.98333C13.61 7.15 13.6406 7.32222 13.6406 7.5C13.6406 7.67778 13.61 7.84722 13.5489 8.00833C13.4878 8.16944 13.3906 8.31667 13.2573 8.45L7.90726 13.8C7.78504 13.9222 7.64059 14.0167 7.47393 14.0833C7.30726 14.15 7.13504 14.1833 6.95726 14.1833ZM6.95726 12.85L12.3073 7.5L6.95726 2.15L1.60726 7.5L6.95726 12.85ZM6.29059 8.16667H7.62393V4.16667H6.29059V8.16667ZM6.95726 10.1667C7.14615 10.1667 7.30448 10.1028 7.43226 9.975C7.56004 9.84722 7.62393 9.68889 7.62393 9.5C7.62393 9.31111 7.56004 9.15278 7.43226 9.025C7.30448 8.89722 7.14615 8.83333 6.95726 8.83333C6.76837 8.83333 6.61004 8.89722 6.48226 9.025C6.35448 9.15278 6.29059 9.31111 6.29059 9.5C6.29059 9.68889 6.35448 9.84722 6.48226 9.975C6.61004 10.1028 6.76837 10.1667 6.95726 10.1667Z" fill="#727CAF"/>
</svg>
