<svg width="14" height="15" viewBox="0 0 14 15" fill="none" xmlns="http://www.w3.org/2000/svg">
<path d="M6.95732 10.1667C7.14621 10.1667 7.30455 10.1028 7.43232 9.97499C7.5601 9.84722 7.62399 9.68888 7.62399 9.49999C7.62399 9.31111 7.5601 9.15277 7.43232 9.02499C7.30455 8.89722 7.14621 8.83333 6.95732 8.83333C6.76844 8.83333 6.6101 8.89722 6.48232 9.02499C6.35455 9.15277 6.29066 9.31111 6.29066 9.49999C6.29066 9.68888 6.35455 9.84722 6.48232 9.97499C6.6101 10.1028 6.76844 10.1667 6.95732 10.1667ZM6.29066 8.16666H7.62399V4.83333H6.29066V8.16666ZM5.12399 14.1667L4.85732 12.0333C4.71288 11.9778 4.57677 11.9111 4.44899 11.8333C4.32121 11.7555 4.19621 11.6722 4.07399 11.5833L2.09066 12.4167L0.257324 9.24999L1.97399 7.94999C1.96288 7.87222 1.95732 7.79722 1.95732 7.72499V7.27499C1.95732 7.20277 1.96288 7.12777 1.97399 7.04999L0.257324 5.74999L2.09066 2.58333L4.07399 3.41666C4.19621 3.32777 4.32399 3.24444 4.45732 3.16666C4.59066 3.08888 4.72399 3.02222 4.85732 2.96666L5.12399 0.833328H8.79066L9.05732 2.96666C9.20177 3.02222 9.33788 3.08888 9.46566 3.16666C9.59344 3.24444 9.71844 3.32777 9.84066 3.41666L11.824 2.58333L13.6573 5.74999L11.9407 7.04999C11.9518 7.12777 11.9573 7.20277 11.9573 7.27499V7.72499C11.9573 7.79722 11.9462 7.87222 11.924 7.94999L13.6407 9.24999L11.8073 12.4167L9.84066 11.5833C9.71844 11.6722 9.59066 11.7555 9.45732 11.8333C9.32399 11.9111 9.19066 11.9778 9.05732 12.0333L8.79066 14.1667H5.12399ZM6.29066 12.8333H7.60732L7.84066 11.0667C8.1851 10.9778 8.50455 10.8472 8.79899 10.675C9.09344 10.5028 9.36288 10.2944 9.60732 10.05L11.2573 10.7333L11.9073 9.59999L10.474 8.51666C10.5295 8.36111 10.5684 8.19722 10.5907 8.02499C10.6129 7.85277 10.624 7.67777 10.624 7.49999C10.624 7.32222 10.6129 7.14722 10.5907 6.975C10.5684 6.80277 10.5295 6.63888 10.474 6.48333L11.9073 5.39999L11.2573 4.26666L9.60732 4.96666C9.36288 4.71111 9.09344 4.49722 8.79899 4.32499C8.50455 4.15277 8.1851 4.02222 7.84066 3.93333L7.62399 2.16666H6.30732L6.07399 3.93333C5.72955 4.02222 5.4101 4.15277 5.11566 4.32499C4.82121 4.49722 4.55177 4.70555 4.30732 4.94999L2.65732 4.26666L2.00732 5.39999L3.44066 6.46666C3.3851 6.63333 3.34621 6.79999 3.32399 6.96666C3.30177 7.13333 3.29066 7.31111 3.29066 7.49999C3.29066 7.67777 3.30177 7.84999 3.32399 8.01666C3.34621 8.18333 3.3851 8.34999 3.44066 8.51666L2.00732 9.59999L2.65732 10.7333L4.30732 10.0333C4.55177 10.2889 4.82121 10.5028 5.11566 10.675C5.4101 10.8472 5.72955 10.9778 6.07399 11.0667L6.29066 12.8333Z" fill="#2A3EB1"/>
</svg>
