<svg width="19" height="19" viewBox="0 0 17 17" fill="none" xmlns="http://www.w3.org/2000/svg">
<g id="move_location">
<mask id="mask0_120_1104" style="mask-type:alpha" maskUnits="userSpaceOnUse" x="0" y="0" width="17" height="17">
<rect id="Bounding box" x="0.957031" y="0.5" width="16" height="16" fill="#D9D9D9"/>
</mask>
<g mask="url(#mask0_120_1104)">
<path id="move_location_2" d="M13.7905 14.5L12.8572 13.5666L13.9072 12.5H11.1239V11.1666H13.9072L12.8572 10.1L13.7905 9.16665L16.4572 11.8333L13.7905 14.5ZM7.62386 10.5C8.24608 10.5 8.80719 10.3472 9.30719 10.0416C9.80719 9.73609 10.2016 9.33331 10.4905 8.83331C10.1016 8.51109 9.66275 8.26387 9.17386 8.09165C8.68497 7.91942 8.16831 7.83331 7.62386 7.83331C7.07942 7.83331 6.56275 7.91942 6.07386 8.09165C5.58497 8.26387 5.14608 8.51109 4.75719 8.83331C5.04608 9.33331 5.44053 9.73609 5.94053 10.0416C6.44053 10.3472 7.00164 10.5 7.62386 10.5ZM7.62386 7.16665C7.99053 7.16665 8.30442 7.03609 8.56553 6.77498C8.82664 6.51387 8.95719 6.19998 8.95719 5.83331C8.95719 5.46665 8.82664 5.15276 8.56553 4.89165C8.30442 4.63054 7.99053 4.49998 7.62386 4.49998C7.25719 4.49998 6.94331 4.63054 6.68219 4.89165C6.42108 5.15276 6.29053 5.46665 6.29053 5.83331C6.29053 6.19998 6.42108 6.51387 6.68219 6.77498C6.94331 7.03609 7.25719 7.16665 7.62386 7.16665ZM7.62386 15.1666C5.83497 13.6444 4.49886 12.2305 3.61553 10.925C2.73219 9.61942 2.29053 8.41109 2.29053 7.29998C2.29053 5.63331 2.82664 4.30554 3.89886 3.31665C4.97108 2.32776 6.21275 1.83331 7.62386 1.83331C9.03497 1.83331 10.2766 2.32776 11.3489 3.31665C12.4211 4.30554 12.9572 5.63331 12.9572 7.29998C12.9572 7.39998 12.9544 7.50276 12.9489 7.60831C12.9433 7.71387 12.9294 7.8222 12.9072 7.93331H11.5572C11.5794 7.8222 11.5961 7.71387 11.6072 7.60831C11.6183 7.50276 11.6239 7.39998 11.6239 7.29998C11.6239 6.08887 11.2378 5.0972 10.4655 4.32498C9.69331 3.55276 8.74608 3.16665 7.62386 3.16665C6.50164 3.16665 5.55442 3.55276 4.78219 4.32498C4.00997 5.0972 3.62386 6.08887 3.62386 7.29998C3.62386 8.08887 3.95164 8.99165 4.60719 10.0083C5.26275 11.025 6.26831 12.1555 7.62386 13.4C7.87942 13.1778 8.11553 12.9555 8.33219 12.7333C8.54886 12.5111 8.75719 12.2944 8.95719 12.0833L9.43219 12.5583C9.54886 12.675 9.65442 12.7833 9.74886 12.8833L9.89053 13.0333C9.56831 13.3778 9.21831 13.7278 8.84053 14.0833C8.46275 14.4389 8.05719 14.8 7.62386 15.1666Z" fill="#2A3EB1"/>
</g>
</g>
</svg>
