<svg width="20" height="20" viewBox="0 0 20 20" fill="#EEEEEE" xmlns="http://www.w3.org/2000/svg">
<path fill-rule="evenodd" clip-rule="evenodd" d="M8.48533 1.6004C8.89861 1.59622 9.38704 1.60876 9.57072 1.63383C9.75441 1.65473 10.2136 1.71323 10.5935 1.75919C10.9734 1.80934 11.5161 1.90545 11.8041 1.97231C12.0922 2.03917 12.5305 2.16453 12.7852 2.24811C13.0356 2.32751 13.4322 2.4863 13.6618 2.59077C13.8914 2.69942 14.2087 2.87075 14.3715 2.97521C14.5301 3.07968 14.7597 3.24683 14.8725 3.34712C14.9893 3.44741 15.1522 3.61457 15.2357 3.71903C15.3233 3.8235 15.4402 4.00737 15.4986 4.1202C15.5571 4.2372 15.6197 4.44196 15.6448 4.57986C15.6698 4.73865 15.6698 4.9058 15.6406 5.03952C15.6197 5.15653 15.5571 5.34457 15.5028 5.4574C15.4444 5.5744 15.3191 5.77081 15.219 5.89617C15.1146 6.02153 14.8725 6.24719 14.6763 6.39762C14.48 6.54806 14.1503 6.75699 13.9499 6.86146C13.7453 6.97011 13.3988 7.12473 13.1817 7.20412C12.9647 7.2877 12.614 7.40052 12.4094 7.46321C12.2007 7.52171 11.8626 7.60946 11.658 7.65543C11.4493 7.7014 11.0277 7.77661 10.7187 7.8184C10.4098 7.86437 9.7878 7.92287 9.34112 7.94794C8.72328 7.98555 8.33504 7.98555 7.7339 7.95212C7.29557 7.92287 6.68608 7.86437 6.37716 7.8184C6.06824 7.77243 5.67165 7.70557 5.50049 7.66797C5.32933 7.63036 5.02876 7.55514 4.83256 7.50499C4.63635 7.45067 4.30656 7.3462 4.102 7.27516C3.89327 7.20412 3.51756 7.04115 3.26708 6.91579C3.01243 6.79042 2.64924 6.56895 2.45304 6.42269C2.25683 6.27644 2.01888 6.06332 1.92704 5.95467C1.83102 5.84185 1.69743 5.64544 1.63064 5.52008C1.55967 5.39472 1.48035 5.17742 1.45113 5.03952C1.40521 4.83476 1.40521 4.74701 1.45113 4.55897C1.48035 4.4336 1.55132 4.22466 1.61394 4.0993C1.67239 3.97394 1.85189 3.73157 2.0147 3.56024C2.17334 3.39309 2.45721 3.1549 2.64089 3.03372C2.82457 2.90835 3.15437 2.72449 3.37145 2.62002C3.58853 2.51973 3.96424 2.36511 4.20637 2.28154C4.44849 2.19796 4.9077 2.06424 5.22914 1.98903C5.55059 1.90963 6.11416 1.80934 6.48152 1.76337C6.84889 1.71741 7.27887 1.6589 7.44168 1.64219C7.60031 1.6213 8.07204 1.6004 8.48533 1.6004ZM1.49705 6.00064C1.51793 6.01318 1.54297 6.07168 1.5555 6.13854C1.56802 6.20122 1.64734 6.36419 1.73501 6.50209C1.82267 6.63999 2.00218 6.85729 2.13577 6.98265C2.26935 7.10801 2.48226 7.28352 2.61167 7.37545C2.74108 7.46321 3.07505 7.64707 3.35057 7.78079C3.6261 7.91451 4.07695 8.09838 4.35248 8.19031C4.628 8.28224 5.07051 8.40343 5.33351 8.46193C5.59651 8.52043 6.00144 8.59565 6.23105 8.62908C6.46065 8.66669 6.86558 8.71684 7.12858 8.74191C7.39158 8.77116 8.0303 8.79205 8.54795 8.79205C9.0656 8.79205 9.70431 8.77116 9.96731 8.74191C10.2303 8.71684 10.6352 8.66669 10.8648 8.62908C11.0945 8.59565 11.4994 8.52043 11.7624 8.46193C12.0254 8.40343 12.4679 8.28224 12.7434 8.19031C13.0189 8.09838 13.4614 7.91869 13.7244 7.79333C13.9874 7.66379 14.3256 7.47992 14.4759 7.37963C14.6262 7.27934 14.8683 7.07458 15.0186 6.92832C15.1814 6.76535 15.3442 6.54806 15.4235 6.38926C15.4987 6.24719 15.5696 6.09257 15.5821 6.05496C15.5947 6.01318 15.6197 5.9881 15.6448 6.00064C15.6698 6.01318 15.6865 6.4018 15.6865 7.03697C15.6865 7.59275 15.6698 8.1527 15.6489 8.27807C15.6281 8.40343 15.5571 8.62072 15.4945 8.75444C15.4277 8.89234 15.2941 9.08875 15.0311 9.38544L14.3465 9.40633C13.7244 9.42723 13.641 9.43976 13.4322 9.54005C13.307 9.59855 13.1317 9.71974 13.044 9.80749C12.9563 9.89943 12.8436 10.0624 12.7935 10.171C12.7184 10.3382 12.6891 10.3674 12.6182 10.3424C12.5723 10.3298 12.422 10.2922 12.2842 10.263C12.0964 10.2212 11.9795 10.217 11.8041 10.2504C11.6789 10.2713 11.5036 10.3298 11.4201 10.3716C11.3324 10.4134 11.107 10.6015 10.5726 11.1196L10.0508 11.1823C9.74606 11.2199 9.14074 11.245 8.58969 11.245C8.07204 11.245 7.44168 11.2241 7.1912 11.2032C6.93655 11.1781 6.53579 11.1322 6.29366 11.0946C6.05154 11.0611 5.63825 10.9859 5.37525 10.9274C5.11225 10.8689 4.64052 10.7352 4.3316 10.6349C4.02268 10.5304 3.58853 10.3633 3.37145 10.2588C3.15437 10.1543 2.82457 9.97046 2.64089 9.84928C2.45721 9.72392 2.18169 9.48991 2.02723 9.32693C1.86859 9.16396 1.69326 8.92995 1.63064 8.81295C1.5722 8.69176 1.49705 8.49954 1.46783 8.38253C1.42609 8.23628 1.40939 7.84347 1.40104 7.10383C1.39686 6.51463 1.40939 6.02153 1.42609 6.009C1.44696 5.99228 1.47618 5.99228 1.49705 6.00064ZM1.49705 9.31022C1.50958 9.33111 1.54715 9.41051 1.5722 9.48991C1.60142 9.5693 1.68491 9.73228 1.76423 9.8451C1.83937 9.96211 2.01053 10.1585 2.14829 10.2839C2.28188 10.4092 2.51565 10.5931 2.66177 10.6934C2.81205 10.7937 3.12097 10.965 3.35057 11.0778C3.58018 11.1865 3.93502 11.3369 4.14375 11.4121C4.3483 11.4832 4.72402 11.596 4.97867 11.6629C5.22914 11.7255 5.65495 11.8175 5.91795 11.8634C6.18095 11.9136 6.59424 11.9763 6.83636 12.0055C7.12023 12.039 7.7673 12.0598 10.0425 12.0598L10.0592 12.3315C10.0717 12.4819 10.1092 12.6658 10.2178 12.8747L10.0007 12.975C9.87964 13.0335 9.70848 13.1505 9.61664 13.2383C9.52898 13.326 9.41209 13.4932 9.35782 13.606C9.29102 13.7481 9.24928 13.9361 9.19501 14.5587L8.21398 14.5337C7.67546 14.5211 7.00752 14.4793 6.732 14.4459C6.45647 14.4083 6.02232 14.3414 5.77184 14.2955C5.51719 14.2453 5.1039 14.1492 4.85343 14.0824C4.59878 14.0113 4.21472 13.8901 3.99764 13.8066C3.78056 13.723 3.45076 13.5851 3.26708 13.4932C3.0834 13.4012 2.77448 13.2174 2.58245 13.0878C2.39042 12.9583 2.12742 12.741 1.998 12.5989C1.86859 12.4568 1.70996 12.2437 1.64316 12.1183C1.57637 11.993 1.49705 11.8008 1.46366 11.6838C1.42609 11.5417 1.40939 11.1322 1.40104 10.4051C1.39686 9.81585 1.41356 9.32276 1.43026 9.30604C1.45113 9.2935 1.48035 9.2935 1.49705 9.31022ZM13.9415 10.7017H14.956L15.006 10.9608C15.0311 11.1071 15.0812 11.3703 15.1647 11.876L15.3525 11.9303C15.4569 11.9596 15.6239 12.0264 15.7283 12.0766C15.8326 12.1309 15.9412 12.1601 15.9662 12.1476C15.9954 12.1351 16.2167 11.9804 16.8971 11.4957L17.6068 12.2061L16.9264 13.1881L17.0558 13.4597C17.1267 13.6102 17.1935 13.7815 17.2061 13.8484C17.2228 13.9194 17.2562 13.9612 17.3021 13.9612C17.3438 13.9612 17.6068 14.003 18.4 14.1492V15.1521L17.2603 15.3611L17.2019 15.5073C17.1727 15.5867 17.0975 15.7581 16.9264 16.1132L17.2478 16.5646C17.4231 16.8111 17.5734 17.0368 17.5859 17.066C17.5985 17.0911 17.4524 17.2708 16.918 17.8098L15.9161 17.1245L15.6865 17.2332C15.5613 17.2958 15.3901 17.3711 15.1647 17.4588L14.956 18.5996H13.9332L13.8914 18.3405C13.8706 18.1943 13.8288 17.931 13.7453 17.4337L13.5783 17.3878C13.4865 17.3585 13.3112 17.2917 12.973 17.137L12.0129 17.8056L11.3032 17.0953L11.992 16.13L11.8417 15.8082C11.7582 15.6327 11.6789 15.4572 11.6705 15.4237C11.6538 15.3778 11.4827 15.3318 10.51 15.1521V14.1492L11.0193 14.0573C11.3032 14.003 11.5662 13.9612 11.6038 13.9612C11.6538 13.9612 11.6872 13.9194 11.7039 13.8484C11.7165 13.7815 11.7833 13.6102 11.9836 13.1881L11.3115 12.227L12.0337 11.4957L12.9939 12.1727L13.2652 12.0473C13.4155 11.9763 13.5825 11.9094 13.641 11.8927C13.7411 11.8718 13.7495 11.8384 13.8455 11.2868L13.9415 10.7017ZM13.7328 13.5182C13.6451 13.5726 13.5241 13.6687 13.4656 13.7355C13.403 13.8024 13.3153 13.9319 13.2652 14.0239C13.2193 14.1158 13.1567 14.2913 13.1317 14.4208C13.0983 14.5922 13.0983 14.7134 13.1358 14.9014C13.1651 15.0393 13.2277 15.2273 13.2819 15.3193C13.3362 15.4112 13.4531 15.5533 13.5408 15.641C13.6284 15.7246 13.7954 15.8374 13.9081 15.8918C14.0709 15.9628 14.192 15.9837 14.4508 15.9879C14.7222 15.9879 14.8307 15.967 15.0144 15.8792C15.1438 15.8207 15.3191 15.6995 15.411 15.6076C15.4986 15.5157 15.6239 15.3402 15.6823 15.2148C15.7658 15.0268 15.7867 14.9223 15.7867 14.6507C15.7867 14.3916 15.7658 14.2662 15.6907 14.1074C15.6406 13.9904 15.5279 13.8233 15.4402 13.7355C15.3567 13.6478 15.2106 13.5349 15.1188 13.4806C15.0269 13.4263 14.8558 13.3636 14.7347 13.3385C14.6136 13.3135 14.4717 13.2926 14.4216 13.2926C14.3673 13.2968 14.2296 13.326 14.1085 13.3553C13.9874 13.3887 13.8163 13.4597 13.7328 13.5182ZM1.49705 12.5655C1.5221 12.578 1.5388 12.6198 1.5388 12.6574C1.53462 12.695 1.59307 12.8413 1.66821 12.9792C1.74335 13.1171 1.92704 13.3511 2.07315 13.5015C2.22343 13.652 2.45721 13.8484 2.59497 13.9361C2.73273 14.028 2.99573 14.1827 3.17942 14.2788C3.3631 14.3791 3.69289 14.5253 3.90997 14.6089C4.13122 14.6925 4.54451 14.8262 4.82838 14.9056C5.11643 14.985 5.55894 15.0853 5.80941 15.1312C6.06406 15.1772 6.50657 15.2441 6.79044 15.2775C7.07849 15.3151 7.74642 15.3527 9.23258 15.3903L9.3119 15.6076C9.35782 15.7288 9.47471 15.9043 9.58325 16.0213C9.69179 16.13 9.87547 16.2679 10.2136 16.4267L10.1426 16.5604C10.1009 16.6398 10.0633 16.8236 10.055 16.9908C10.0425 17.1914 10.0592 17.3543 10.1092 17.5131C10.1468 17.6385 10.1719 17.743 10.1677 17.7471C10.1593 17.7513 9.7878 17.7764 9.33695 17.8056C8.89026 17.8307 8.29747 17.8433 8.02195 17.8265C7.74642 17.814 7.30809 17.7806 7.04092 17.7597C6.77792 17.7346 6.33541 17.6803 6.05989 17.6343C5.78436 17.5883 5.34603 17.4964 5.07886 17.4296C4.81586 17.3627 4.40257 17.2373 4.16045 17.1579C3.92249 17.0744 3.55513 16.9239 3.3464 16.8236C3.14184 16.7233 2.8204 16.5437 2.64089 16.4183C2.45721 16.2971 2.19421 16.084 2.05227 15.9461C1.91451 15.8082 1.74335 15.5909 1.66821 15.4655C1.59724 15.336 1.50958 15.1312 1.47201 15.0059C1.41774 14.822 1.40521 14.5462 1.40104 13.6854C1.39686 13.0836 1.40521 12.5822 1.42609 12.5697C1.44278 12.5529 1.47618 12.5529 1.49705 12.5655Z" fill="#727CAF"/>
</svg>
