<svg width="17" height="17" viewBox="0 0 17 17" fill="none" xmlns="http://www.w3.org/2000/svg">
<g id="straighten">
<mask id="mask0_120_1125" style="mask-type:alpha" maskUnits="userSpaceOnUse" x="0" y="0" width="17" height="17">
<rect id="Bounding box" x="0.957031" y="0.5" width="16" height="16" fill="#D9D9D9"/>
</mask>
<g mask="url(#mask0_120_1125)">
<path id="straighten_2" d="M3.62386 12.5C3.25719 12.5 2.94331 12.3694 2.68219 12.1083C2.42108 11.8472 2.29053 11.5333 2.29053 11.1667V5.83333C2.29053 5.46667 2.42108 5.15278 2.68219 4.89167C2.94331 4.63056 3.25719 4.5 3.62386 4.5H14.2905C14.6572 4.5 14.9711 4.63056 15.2322 4.89167C15.4933 5.15278 15.6239 5.46667 15.6239 5.83333V11.1667C15.6239 11.5333 15.4933 11.8472 15.2322 12.1083C14.9711 12.3694 14.6572 12.5 14.2905 12.5H3.62386ZM3.62386 11.1667H14.2905V5.83333H12.2905V8.5H10.9572V5.83333H9.62386V8.5H8.29053V5.83333H6.95719V8.5H5.62386V5.83333H3.62386V11.1667Z" fill="#2A3EB1"/>
</g>
</g>
</svg>
