<svg width="20" height="20" viewBox="0 0 11 12" fill="none" xmlns="http://www.w3.org/2000/svg">
<path d="M2.59763 11.615H8.40218C9.59243 11.615 10.2283 11.0071 10.2283 9.86869V5.19639C10.2283 4.44429 10.1196 4.0837 9.61961 3.60462L6.86952 0.961964C6.3858 0.493189 5.97818 0.38501 5.24446 0.38501H2.59763C1.40738 0.38501 0.771484 0.987721 0.771484 2.12618V9.86869C0.771484 11.0071 1.40194 11.615 2.59763 11.615ZM2.7172 10.4663C2.22262 10.4663 1.98348 10.2241 1.98348 9.77082V2.22405C1.98348 1.77588 2.22262 1.52862 2.72264 1.52862H4.95641V4.22278C4.95641 5.0264 5.36947 5.41275 6.21732 5.41275H9.01633V9.77082C9.01633 10.2241 8.77719 10.4663 8.27717 10.4663H2.7172ZM6.32058 4.43914C6.09232 4.43914 5.98905 4.34127 5.98905 4.12491V1.6574L8.88589 4.43914H6.32058ZM7.39127 6.71605H3.52158C3.31505 6.71605 3.16287 6.85514 3.16287 7.04059C3.16287 7.23119 3.31505 7.38058 3.52158 7.38058H7.39127C7.59237 7.38058 7.74455 7.23119 7.74455 7.04059C7.74455 6.85514 7.59237 6.71605 7.39127 6.71605ZM7.39127 8.39025H3.52158C3.31505 8.39025 3.16287 8.53964 3.16287 8.73024C3.16287 8.91054 3.31505 9.05478 3.52158 9.05478H7.39127C7.59237 9.05478 7.74455 8.91054 7.74455 8.73024C7.74455 8.53964 7.59237 8.39025 7.39127 8.39025Z" 
fill="#2A3EB1"/>
<path d="M2.59763 11.615H8.40218C9.59243 11.615 10.2283 11.0071 10.2283 9.86869V5.19639C10.2283 4.44429 10.1196 4.0837 9.61961 3.60462L6.86952 0.961964C6.3858 0.493189 5.97818 0.38501 5.24446 0.38501H2.59763C1.40738 0.38501 0.771484 0.987721 0.771484 2.12618V9.86869C0.771484 11.0071 1.40194 11.615 2.59763 11.615ZM2.7172 10.4663C2.22262 10.4663 1.98348 10.2241 1.98348 9.77082V2.22405C1.98348 1.77588 2.22262 1.52862 2.72264 1.52862H4.95641V4.22278C4.95641 5.0264 5.36947 5.41275 6.21732 5.41275H9.01633V9.77082C9.01633 10.2241 8.77719 10.4663 8.27717 10.4663H2.7172ZM6.32058 4.43914C6.09232 4.43914 5.98905 4.34127 5.98905 4.12491V1.6574L8.88589 4.43914H6.32058Z" 
fill="#2A3EB1"/>
</svg>
