<svg width="13" height="15" viewBox="0 0 13 15" fill="none" xmlns="http://www.w3.org/2000/svg">
<path d="M2.95703 14.1667C2.40148 14.1667 1.92925 13.9722 1.54036 13.5833C1.15148 13.1945 0.957031 12.7222 0.957031 12.1667V10.1667H2.95703V0.833344H12.957V12.1667C12.957 12.7222 12.7626 13.1945 12.3737 13.5833C11.9848 13.9722 11.5126 14.1667 10.957 14.1667H2.95703ZM10.957 12.8333C11.1459 12.8333 11.3043 12.7695 11.432 12.6417C11.5598 12.5139 11.6237 12.3556 11.6237 12.1667V2.16668H4.29036V10.1667H10.2904V12.1667C10.2904 12.3556 10.3543 12.5139 10.482 12.6417C10.6098 12.7695 10.7681 12.8333 10.957 12.8333ZM4.95703 5.50001V4.16668H10.957V5.50001H4.95703ZM4.95703 7.50001V6.16668H10.957V7.50001H4.95703ZM2.95703 12.8333H8.95703V11.5H2.29036V12.1667C2.29036 12.3556 2.35425 12.5139 2.48203 12.6417C2.60981 12.7695 2.76814 12.8333 2.95703 12.8333ZM2.95703 12.8333H2.29036H8.95703H2.95703Z" fill="#727CAF"/>
</svg>
