<svg width="15" height="14" viewBox="0 0 15 14" fill="none" xmlns="http://www.w3.org/2000/svg">
<path d="M12.0737 12.0833L12.5404 11.6167L11.2904 10.3667V8.5H10.6237V10.6333L12.0737 12.0833ZM2.29036 12.5C1.9237 12.5 1.60981 12.3694 1.3487 12.1083C1.08759 11.8472 0.957031 11.5333 0.957031 11.1667V1.83333C0.957031 1.46667 1.08759 1.15278 1.3487 0.891667C1.60981 0.630556 1.9237 0.5 2.29036 0.5H11.6237C11.9904 0.5 12.3043 0.630556 12.5654 0.891667C12.8265 1.15278 12.957 1.46667 12.957 1.83333V6.3C12.7459 6.2 12.5293 6.11389 12.307 6.04167C12.0848 5.96944 11.857 5.91667 11.6237 5.88333V1.83333H2.29036V11.1667H6.3237C6.35703 11.4111 6.40981 11.6444 6.48203 11.8667C6.55425 12.0889 6.64036 12.3 6.74036 12.5H2.29036ZM2.29036 11.1667V1.83333V5.88333V5.83333V11.1667ZM3.6237 9.83333H6.34036C6.3737 9.6 6.42648 9.37222 6.4987 9.15C6.57092 8.92778 6.65148 8.71111 6.74036 8.5H3.6237V9.83333ZM3.6237 7.16667H7.69036C8.04592 6.83333 8.44314 6.55556 8.88203 6.33333C9.32092 6.11111 9.79036 5.96111 10.2904 5.88333V5.83333H3.6237V7.16667ZM3.6237 4.5H10.2904V3.16667H3.6237V4.5ZM10.957 13.8333C10.0348 13.8333 9.2487 13.5083 8.5987 12.8583C7.9487 12.2083 7.6237 11.4222 7.6237 10.5C7.6237 9.57778 7.9487 8.79167 8.5987 8.14167C9.2487 7.49167 10.0348 7.16667 10.957 7.16667C11.8793 7.16667 12.6654 7.49167 13.3154 8.14167C13.9654 8.79167 14.2904 9.57778 14.2904 10.5C14.2904 11.4222 13.9654 12.2083 13.3154 12.8583C12.6654 13.5083 11.8793 13.8333 10.957 13.8333Z" fill="#727CAF"/>
</svg>
