
<svg xmlns="http://www.w3.org/2000/svg" width="14" height="14" viewBox="0 0 14 14" fill="none">
  <path d="M9.78372 11.9362C9.81628 11.9362 9.84884 11.9362 9.8814 11.9362C9.91395 11.9253 9.95194 11.9145 9.99535 11.9036L12.4535 10.8455C12.5837 10.7912 12.676 10.699 12.7302 10.5687C12.7845 10.4276 12.7845 10.2866 12.7302 10.1455C12.6651 10.0152 12.562 9.92299 12.4209 9.86873C12.2907 9.81446 12.1605 9.81446 12.0302 9.86873L10.1256 10.6827L7.34186 1.07803C7.29845 0.936944 7.21163 0.828416 7.0814 0.752447C6.95116 0.676479 6.8155 0.660199 6.67442 0.70361C6.53333 0.747021 6.42481 0.833843 6.34884 0.964075C6.28372 1.09431 6.27287 1.22997 6.31628 1.37105L9.26279 11.5617C9.2845 11.6269 9.31705 11.692 9.36047 11.7571C9.41473 11.8114 9.47985 11.8548 9.55581 11.8873C9.58837 11.909 9.62093 11.9253 9.65349 11.9362C9.6969 11.9362 9.74031 11.9362 9.78372 11.9362ZM9.47442 5.09896L10.0605 7.05245L11.4767 6.62919L10.907 4.6757L9.47442 5.09896ZM11.1349 4.59431L11.7047 6.5478L13.2674 6.09198L12.6814 4.13849L11.1349 4.59431ZM10.1256 7.28035L10.793 9.51059L12.2256 9.08733L11.5581 6.8571L10.1256 7.28035ZM11.786 6.79198L12.4535 9.02221L14 8.55012L13.3488 6.33617L11.786 6.79198ZM0.260465 10.3083C0.217054 10.3517 0.162791 10.3625 0.0976744 10.3408C0.0325581 10.3191 0 10.2703 0 10.1943V7.39431C0 7.25322 0.0434109 7.13384 0.130233 7.03617C0.227907 6.93849 0.347287 6.88966 0.488372 6.88966H0.944186V3.16175C0.944186 3.00981 0.99845 2.87958 1.10698 2.77105C1.2155 2.66253 1.34574 2.60826 1.49767 2.60826H5.17674C5.33953 2.60826 5.48062 2.65167 5.6 2.73849C5.71938 2.82532 5.80078 2.9447 5.84419 3.09663L7.21163 7.91524H7.3093C7.39612 7.91524 7.46667 7.9478 7.52093 8.01291C7.58605 8.06718 7.6186 8.13772 7.6186 8.22454V9.13617C7.6186 9.17958 7.5969 9.21756 7.55349 9.25012C7.52093 9.28268 7.48295 9.28811 7.43953 9.2664C7.29845 9.22299 7.15194 9.19586 7 9.18501C6.85891 9.1633 6.7124 9.1633 6.56046 9.18501C6.03954 9.22842 5.58915 9.44547 5.2093 9.83617C4.84031 10.216 4.63953 10.6718 4.60698 11.2036C4.60698 11.3338 4.6124 11.4641 4.62326 11.5943C4.63411 11.7137 4.65581 11.8276 4.68837 11.9362H3.72791C3.73876 11.8602 3.74419 11.7842 3.74419 11.7083C3.75504 11.6214 3.75504 11.5346 3.74419 11.4478C3.70078 10.9703 3.50543 10.5633 3.15814 10.2269C2.82171 9.87958 2.41473 9.68423 1.93721 9.64082C1.60078 9.61911 1.28605 9.66795 0.993023 9.78733C0.710853 9.90671 0.466667 10.0804 0.260465 10.3083ZM2.06744 6.84082V6.90594H3.63023C3.72791 6.90594 3.82558 6.92764 3.92326 6.97105C4.02093 7.00361 4.10233 7.05787 4.16744 7.13384L4.85116 7.80128C4.88372 7.83384 4.92171 7.86097 4.96512 7.88268C5.01938 7.89353 5.06822 7.89896 5.11163 7.89896H6.02326L4.83488 3.69896H2.06744V6.84082ZM1.75814 9.95012C2.22481 9.95012 2.62093 10.1183 2.94651 10.4548C3.27209 10.7804 3.43488 11.1765 3.43488 11.6431C3.43488 12.099 3.26667 12.4951 2.93023 12.8315C2.60465 13.1571 2.21395 13.3199 1.75814 13.3199C1.29147 13.3199 0.889922 13.1571 0.553488 12.8315C0.227907 12.5059 0.0651163 12.1098 0.0651163 11.6431C0.0651163 11.1765 0.227907 10.7804 0.553488 10.4548C0.889922 10.1183 1.29147 9.95012 1.75814 9.95012ZM1.75814 12.4734C1.98605 12.4734 2.1814 12.392 2.34419 12.2292C2.50698 12.0664 2.58837 11.8711 2.58837 11.6431C2.58837 11.4044 2.50698 11.2036 2.34419 11.0408C2.1814 10.878 1.98605 10.7966 1.75814 10.7966C1.51938 10.7966 1.3186 10.878 1.15581 11.0408C0.993023 11.2036 0.911628 11.4044 0.911628 11.6431C0.911628 11.8711 0.993023 12.0664 1.15581 12.2292C1.3186 12.392 1.51938 12.4734 1.75814 12.4734ZM6.83721 9.46175C7.35814 9.46175 7.8031 9.65167 8.17209 10.0315C8.55194 10.4005 8.74186 10.8455 8.74186 11.3664C8.74186 11.8982 8.55194 12.3486 8.17209 12.7176C7.8031 13.0866 7.35814 13.2711 6.83721 13.2711C6.31628 13.2711 5.86589 13.0866 5.48605 12.7176C5.11705 12.3486 4.93256 11.8982 4.93256 11.3664C4.93256 10.8455 5.11705 10.4005 5.48605 10.0315C5.86589 9.65167 6.31628 9.46175 6.83721 9.46175ZM6.83721 12.3269C7.09767 12.3269 7.32016 12.2346 7.50465 12.0501C7.7 11.8656 7.79767 11.6377 7.79767 11.3664C7.79767 11.1059 7.7 10.8835 7.50465 10.699C7.32016 10.5036 7.09767 10.4059 6.83721 10.4059C6.57674 10.4059 6.34884 10.5036 6.15349 10.699C5.96899 10.8835 5.87674 11.1059 5.87674 11.3664C5.87674 11.6377 5.96899 11.8656 6.15349 12.0501C6.34884 12.2346 6.57674 12.3269 6.83721 12.3269Z" fill="#2A3EB1"/>
</svg>