<svg width="16" height="16" viewBox="0 0 13 13" fill="none" xmlns="http://www.w3.org/2000/svg">
<path d="M5.41667 9.33333H8.08333V8H5.41667V9.33333ZM5.41667 6.66667H10.0833V5.33333H5.41667V6.66667ZM3.41667 4H10.0833V2.66667H3.41667V4ZM3.16667 12.6667C2.28889 12.6667 1.54167 12.3583 0.925 11.7417C0.308333 11.125 0 10.3778 0 9.5C0 8.86667 0.163889 8.3 0.491667 7.8C0.819444 7.3 1.25 6.92222 1.78333 6.66667H0.0833333V5.33333H4.08333V9.33333H2.75V7.71667C2.33889 7.80556 2 8.01667 1.73333 8.35C1.46667 8.68333 1.33333 9.06667 1.33333 9.5C1.33333 10.0111 1.51389 10.4444 1.875 10.8C2.23611 11.1556 2.66667 11.3333 3.16667 11.3333V12.6667ZM5.41667 12V10.6667H11.4167V1.33333H2.08333V4H0.75V1.33333C0.75 0.966667 0.880556 0.652778 1.14167 0.391667C1.40278 0.130556 1.71667 0 2.08333 0H11.4167C11.7833 0 12.0972 0.130556 12.3583 0.391667C12.6194 0.652778 12.75 0.966667 12.75 1.33333V10.6667C12.75 11.0333 12.6194 11.3472 12.3583 11.6083C12.0972 11.8694 11.7833 12 11.4167 12H5.41667Z" fill="#2A3EB1"/>
</svg>
