<svg width="20" height="20" viewBox="0 0 12 8" fill="none" xmlns="http://www.w3.org/2000/svg">
<path d="M2.66276 1.70676L3.77713 3.7009C3.21408 4.04498 2.79179 4.45554 2.51026 4.93257C2.22874 5.4096 2.08798 6.00002 2.08798 6.70383H0C0 6.15642 0.058651 5.63638 0.175953 5.14371C0.293255 4.65886 0.461388 4.2053 0.680352 3.78301C0.907136 3.3529 1.18475 2.9658 1.5132 2.62172C1.84164 2.26981 2.22483 1.96483 2.66276 1.70676ZM6.00587 0.733154C6.54545 0.740974 7.06158 0.811356 7.55425 0.944298C8.05474 1.07724 8.52004 1.26101 8.95015 1.49562L7.91789 3.3138C7.63636 3.14958 7.33529 3.02445 7.01466 2.93843C6.69404 2.85241 6.36168 2.8094 6.0176 2.8094C5.66569 2.8094 5.33333 2.85241 5.02053 2.93843C4.70772 3.02445 4.41056 3.14567 4.12903 3.30207L3.04985 1.50735C3.48778 1.26492 3.95308 1.07724 4.44575 0.944298C4.94624 0.803536 5.46237 0.733154 5.99413 0.733154C5.99413 0.733154 5.99804 0.733154 6.00587 0.733154ZM9.33724 1.70676C9.77517 1.96483 10.1584 2.26981 10.4868 2.62172C10.8231 2.9658 11.1007 3.3529 11.3196 3.78301C11.5464 4.2053 11.7146 4.65886 11.824 5.14371C11.9413 5.63638 12 6.15642 12 6.70383H9.91202C9.91202 6.00002 9.77126 5.37441 9.48974 4.827C9.20821 4.27177 8.78592 3.82211 8.22287 3.47802L9.33724 1.70676ZM6.00587 6.12905C5.81818 6.12905 5.65787 6.18379 5.52493 6.29327C5.3998 6.40275 5.33724 6.5357 5.33724 6.6921C5.33724 6.8485 5.3998 6.98535 5.52493 7.10266C5.65787 7.21214 5.81818 7.26688 6.00587 7.26688C6.19355 7.26688 6.34995 7.21214 6.47507 7.10266C6.60802 6.98535 6.67449 6.8485 6.67449 6.6921C6.67449 6.5357 6.60802 6.40275 6.47507 6.29327C6.34213 6.18379 6.18573 6.12905 6.00587 6.12905ZM5.56012 6.59826H6.43988L6.00587 3.48975L5.56012 6.59826Z" 
fill="#2A3EB1"/>
</svg>
