<svg width="22" height="17" viewBox="0 0 22 17" fill="none" xmlns="http://www.w3.org/2000/svg">
<path d="M4.12443 12.0983H4.89298C5.00167 12.0983 5.09483 12.0905 5.17246 12.075C5.26562 12.0594 5.34325 12.0439 5.40536 12.0284C5.48299 11.9973 5.55286 11.9663 5.61496 11.9352C5.67707 11.8886 5.73141 11.8343 5.77799 11.7722C5.80905 11.7411 5.8401 11.7023 5.87115 11.6557C5.9022 11.5936 5.93326 11.5315 5.96431 11.4694C5.97984 11.4073 5.99536 11.3452 6.01089 11.2831C6.02642 11.2055 6.03418 11.1279 6.03418 11.0502C6.03418 10.9726 6.02642 10.9027 6.01089 10.8406C5.99536 10.7785 5.97984 10.7164 5.96431 10.6543C5.93326 10.5922 5.9022 10.5378 5.87115 10.4913C5.8401 10.4292 5.80905 10.3826 5.77799 10.3515C5.73141 10.3049 5.67707 10.2661 5.61496 10.2351C5.56839 10.204 5.51404 10.173 5.45194 10.1419C5.38983 10.1264 5.31996 10.1109 5.24233 10.0953C5.1647 10.0798 5.08707 10.0721 5.00943 10.0721C4.9318 10.0721 4.85417 10.0798 4.77654 10.0953C4.71443 10.0953 4.65232 10.1109 4.59022 10.1419C4.54364 10.1574 4.4893 10.1807 4.42719 10.2118C4.38061 10.2428 4.33403 10.2739 4.28745 10.3049C4.24087 10.3515 4.19429 10.3981 4.14772 10.4447C4.11666 10.4913 4.08561 10.5378 4.05456 10.5844C4.03903 10.6465 4.0235 10.7086 4.00798 10.7707C3.99245 10.8173 3.98469 10.8794 3.98469 10.9571H2.58731C2.58731 10.8018 2.59507 10.6543 2.6106 10.5146C2.64165 10.3748 2.68823 10.2506 2.75034 10.1419C2.81244 10.0177 2.88231 9.90126 2.95994 9.79258C3.0531 9.68389 3.15402 9.58297 3.26271 9.48981C3.37139 9.41218 3.48784 9.34231 3.61205 9.2802C3.73626 9.20257 3.876 9.14047 4.03127 9.09389C4.17101 9.04731 4.31851 9.00849 4.47377 8.97744C4.62904 8.94639 4.79206 8.93086 4.96285 8.93086C5.14917 8.93086 5.31996 8.94639 5.47523 8.97744C5.64602 8.99296 5.80905 9.02402 5.96431 9.0706C6.11957 9.11718 6.25931 9.17928 6.38352 9.25691C6.52326 9.31902 6.64747 9.38889 6.75616 9.46652C6.84932 9.55968 6.93471 9.6606 7.01234 9.76929C7.1055 9.87797 7.18314 10.0022 7.24524 10.1419C7.30735 10.2661 7.35393 10.4059 7.38498 10.5611C7.41603 10.7009 7.43156 10.8561 7.43156 11.0269C7.43156 11.1046 7.4238 11.1822 7.40827 11.2598C7.39274 11.3375 7.37722 11.4151 7.36169 11.4927C7.33064 11.5704 7.29958 11.648 7.26853 11.7256C7.23748 11.8033 7.19866 11.8731 7.15208 11.9352C7.1055 12.0129 7.05116 12.0827 6.98905 12.1448C6.94248 12.2069 6.88037 12.269 6.80274 12.3312C6.74063 12.3777 6.67076 12.4321 6.59313 12.4942C6.5155 12.5408 6.4301 12.5796 6.33694 12.6106C6.44563 12.6572 6.53879 12.7038 6.61642 12.7504C6.70958 12.7969 6.79497 12.8435 6.87261 12.8901C6.95024 12.9522 7.02011 13.0221 7.08221 13.0997C7.14432 13.1618 7.19866 13.2239 7.24524 13.286C7.29182 13.3637 7.33064 13.4413 7.36169 13.5189C7.40827 13.5966 7.44708 13.682 7.47814 13.7751C7.49366 13.8683 7.50919 13.9614 7.52472 14.0546C7.54024 14.1477 7.54801 14.2409 7.54801 14.3341C7.54801 14.5049 7.52472 14.6679 7.47814 14.8231C7.44708 14.9784 7.40051 15.1181 7.3384 15.2424C7.27629 15.3821 7.19866 15.5063 7.1055 15.615C7.01234 15.7237 6.91142 15.8246 6.80274 15.9178C6.69405 16.0109 6.56984 16.0963 6.4301 16.1739C6.29036 16.2361 6.14286 16.2904 5.9876 16.337C5.83233 16.3991 5.66931 16.4457 5.49852 16.4767C5.32773 16.4922 5.14917 16.5 4.96285 16.5C4.80759 16.5 4.65232 16.4922 4.49706 16.4767C4.3418 16.4457 4.19429 16.4068 4.05456 16.3603C3.89929 16.3137 3.75179 16.2593 3.61205 16.1972C3.48784 16.1351 3.37139 16.0575 3.26271 15.9643C3.1385 15.8867 3.02981 15.7935 2.93665 15.6849C2.84349 15.5762 2.76586 15.452 2.70376 15.3122C2.62612 15.188 2.57178 15.0483 2.54073 14.893C2.50968 14.7377 2.49415 14.567 2.49415 14.3806H3.89153C3.89153 14.4583 3.89929 14.5281 3.91482 14.5902C3.93035 14.6524 3.95363 14.7145 3.98469 14.7766C4.00021 14.8387 4.0235 14.9008 4.05456 14.9629C4.10114 15.0095 4.15548 15.0483 4.21758 15.0793C4.26416 15.1259 4.31074 15.1725 4.35732 15.2191C4.41943 15.2501 4.4893 15.2734 4.56693 15.2889C4.62904 15.32 4.69114 15.3433 4.75325 15.3588C4.83088 15.3588 4.91627 15.3588 5.00943 15.3588C5.08707 15.3588 5.1647 15.3588 5.24233 15.3588C5.33549 15.3433 5.42088 15.32 5.49852 15.2889C5.56062 15.2579 5.62273 15.2268 5.68483 15.1958C5.74694 15.1647 5.80128 15.1181 5.84786 15.056C5.89444 15.025 5.93326 14.9862 5.96431 14.9396C6.01089 14.8775 6.04194 14.8154 6.05747 14.7533C6.08852 14.6756 6.11181 14.6058 6.12734 14.5437C6.14286 14.466 6.15063 14.3884 6.15063 14.3108C6.15063 14.2176 6.14286 14.1322 6.12734 14.0546C6.11181 13.9614 6.08852 13.876 6.05747 13.7984C6.02642 13.7363 5.9876 13.6742 5.94102 13.6121C5.90997 13.55 5.86339 13.4956 5.80128 13.4491C5.7547 13.4025 5.6926 13.3637 5.61496 13.3326C5.55286 13.3016 5.48299 13.2783 5.40536 13.2627C5.32773 13.2317 5.24233 13.2162 5.14917 13.2162C5.07154 13.2006 4.98614 13.1929 4.89298 13.1929H4.12443V12.0983ZM12.6484 8.97744V10.1419H12.5786C12.3923 10.1419 12.2137 10.1574 12.0429 10.1885C11.8876 10.204 11.7324 10.2351 11.5771 10.2817C11.4374 10.3438 11.3054 10.4059 11.1812 10.468C11.0725 10.5301 10.9638 10.6077 10.8551 10.7009C10.762 10.794 10.6766 10.895 10.599 11.0036C10.5213 11.1123 10.4515 11.2288 10.3893 11.353C10.3272 11.4772 10.2729 11.6092 10.2263 11.7489C10.1953 11.8886 10.172 12.0361 10.1564 12.1914C10.203 12.1448 10.2496 12.0983 10.2962 12.0517C10.3428 12.0051 10.3893 11.9663 10.4359 11.9352C10.4825 11.8886 10.5368 11.8498 10.599 11.8188C10.6611 11.7722 10.7232 11.7334 10.7853 11.7023C10.8474 11.6713 10.9095 11.648 10.9716 11.6325C11.0337 11.6014 11.1036 11.5704 11.1812 11.5393C11.2588 11.5238 11.3365 11.516 11.4141 11.516C11.4917 11.5005 11.5771 11.4927 11.6703 11.4927C11.8411 11.4927 12.0041 11.5082 12.1594 11.5393C12.3146 11.5704 12.4544 11.6169 12.5786 11.679C12.7028 11.7567 12.8192 11.8421 12.9279 11.9352C13.0521 12.0129 13.1531 12.106 13.2307 12.2147C13.3238 12.3389 13.4015 12.4709 13.4636 12.6106C13.5257 12.7348 13.58 12.8746 13.6266 13.0298C13.6732 13.1696 13.7042 13.3248 13.7198 13.4956C13.7508 13.6509 13.7663 13.8062 13.7663 13.9614C13.7663 14.1477 13.7508 14.3263 13.7198 14.4971C13.6887 14.6524 13.6421 14.8076 13.58 14.9629C13.5179 15.1181 13.4481 15.2656 13.3704 15.4054C13.2928 15.5296 13.1996 15.646 13.0909 15.7547C12.9823 15.8789 12.8658 15.9876 12.7416 16.0808C12.6174 16.1584 12.4777 16.2283 12.3224 16.2904C12.1671 16.3525 12.0041 16.4068 11.8333 16.4534C11.6625 16.4845 11.484 16.5 11.2976 16.5C11.1113 16.5 10.925 16.4845 10.7387 16.4534C10.5679 16.4068 10.3971 16.3447 10.2263 16.2671C10.0711 16.1895 9.92355 16.1041 9.78381 16.0109C9.6596 15.9022 9.54315 15.7858 9.43447 15.6616C9.32578 15.5374 9.22486 15.3976 9.1317 15.2424C9.05407 15.0871 8.9842 14.9241 8.9221 14.7533C8.85999 14.567 8.81341 14.3806 8.78236 14.1943C8.75131 13.9925 8.73578 13.7906 8.73578 13.5888V13.0298C8.73578 12.7504 8.75131 12.4787 8.78236 12.2147C8.82894 11.9352 8.89881 11.6713 8.99197 11.4229C9.0696 11.1744 9.16276 10.9415 9.27144 10.7242C9.39565 10.5068 9.53539 10.3127 9.69066 10.1419C9.84592 9.9556 10.0167 9.79258 10.203 9.65284C10.4049 9.5131 10.6222 9.38889 10.8551 9.2802C11.088 9.18705 11.3365 9.11718 11.6004 9.0706C11.8644 9.00849 12.1516 8.97744 12.4621 8.97744H12.6484ZM11.2511 12.6106C11.189 12.6106 11.1269 12.6184 11.0647 12.6339C11.0026 12.6339 10.9405 12.6494 10.8784 12.6805C10.8163 12.696 10.7542 12.7193 10.6921 12.7504C10.6455 12.7659 10.599 12.7969 10.5524 12.8435C10.5058 12.8746 10.4592 12.9056 10.4126 12.9367C10.3816 12.9677 10.3505 13.0065 10.3195 13.0531C10.2884 13.0997 10.2574 13.1463 10.2263 13.1929C10.1953 13.2394 10.172 13.286 10.1564 13.3326V13.7518C10.1564 13.8916 10.1642 14.0235 10.1797 14.1477C10.1953 14.2564 10.2108 14.3574 10.2263 14.4505C10.2574 14.5592 10.2884 14.6524 10.3195 14.73C10.3661 14.8076 10.4126 14.8853 10.4592 14.9629C10.5213 15.025 10.5757 15.0793 10.6222 15.1259C10.6843 15.1725 10.7542 15.2191 10.8319 15.2656C10.894 15.2967 10.9638 15.32 11.0415 15.3355C11.1191 15.351 11.1967 15.3588 11.2744 15.3588C11.352 15.3588 11.4296 15.351 11.5072 15.3355C11.5849 15.32 11.6548 15.2967 11.7169 15.2656C11.7945 15.2191 11.8566 15.1725 11.9032 15.1259C11.9653 15.0793 12.0196 15.025 12.0662 14.9629C12.1128 14.9008 12.1516 14.8387 12.1827 14.7766C12.2292 14.6989 12.2603 14.6213 12.2758 14.5437C12.3069 14.4505 12.3302 14.3651 12.3457 14.2875C12.3612 14.1943 12.369 14.0934 12.369 13.9847C12.369 13.8916 12.3612 13.7984 12.3457 13.7052C12.3302 13.6121 12.3069 13.5267 12.2758 13.4491C12.2603 13.3559 12.2292 13.2783 12.1827 13.2162C12.1516 13.1385 12.1128 13.0687 12.0662 13.0065C12.0196 12.9444 11.9653 12.8901 11.9032 12.8435C11.8566 12.7969 11.7945 12.7581 11.7169 12.7271C11.6548 12.6805 11.5849 12.6494 11.5072 12.6339C11.4296 12.6184 11.3442 12.6106 11.2511 12.6106ZM19.9148 13.5888C19.9148 13.8217 19.8993 14.0468 19.8682 14.2642C19.8372 14.466 19.7984 14.6601 19.7518 14.8464C19.6897 15.0328 19.6198 15.2035 19.5422 15.3588C19.4646 15.4985 19.3792 15.6305 19.286 15.7547C19.1773 15.8789 19.0609 15.9876 18.9367 16.0808C18.8124 16.1739 18.6727 16.2516 18.5174 16.3137C18.3777 16.3758 18.2224 16.4224 18.0516 16.4534C17.8809 16.4845 17.7101 16.5 17.5393 16.5C17.353 16.5 17.1744 16.4845 17.0036 16.4534C16.8328 16.4224 16.6776 16.3758 16.5378 16.3137C16.3826 16.2516 16.2428 16.1739 16.1186 16.0808C15.9944 15.9876 15.8857 15.8789 15.7925 15.7547C15.6839 15.6305 15.5829 15.4985 15.4898 15.3588C15.4122 15.2035 15.35 15.0328 15.3035 14.8464C15.2414 14.6601 15.1948 14.466 15.1637 14.2642C15.1482 14.0468 15.1404 13.8217 15.1404 13.5888V11.8421C15.1404 11.5936 15.1482 11.3685 15.1637 11.1667C15.1948 10.9648 15.2414 10.7707 15.3035 10.5844C15.35 10.3981 15.4122 10.2351 15.4898 10.0953C15.5829 9.94008 15.6761 9.80034 15.7693 9.67613C15.8779 9.55192 15.9944 9.44323 16.1186 9.35007C16.2428 9.25691 16.3748 9.17928 16.5145 9.11718C16.6698 9.05507 16.8251 9.00849 16.9803 8.97744C17.1511 8.94639 17.3297 8.93086 17.516 8.93086C17.7023 8.93086 17.8809 8.94639 18.0516 8.97744C18.2224 9.00849 18.3777 9.05507 18.5174 9.11718C18.6727 9.17928 18.8124 9.25691 18.9367 9.35007C19.0609 9.44323 19.1773 9.55192 19.286 9.67613C19.3792 9.80034 19.4646 9.94008 19.5422 10.0953C19.6198 10.2351 19.6897 10.3981 19.7518 10.5844C19.7984 10.7707 19.8372 10.9648 19.8682 11.1667C19.8993 11.3685 19.9148 11.5936 19.9148 11.8421V13.5888ZM16.5378 12.9833L18.4942 11.5393C18.4942 11.3996 18.4864 11.2676 18.4709 11.1434C18.4553 11.0192 18.432 10.9105 18.401 10.8173C18.3855 10.7242 18.3544 10.6388 18.3078 10.5611C18.2768 10.4835 18.238 10.4136 18.1914 10.3515C18.1448 10.3049 18.0982 10.2661 18.0516 10.2351C18.0051 10.1885 17.9507 10.1574 17.8886 10.1419C17.842 10.1109 17.7877 10.0953 17.7256 10.0953C17.6635 10.0798 17.5936 10.0721 17.516 10.0721C17.4384 10.0721 17.3607 10.0798 17.2831 10.0953C17.221 10.1109 17.1589 10.1342 17.0968 10.1652C17.0347 10.1963 16.9803 10.2351 16.9337 10.2817C16.8872 10.3127 16.8406 10.3593 16.794 10.4214C16.763 10.4835 16.7241 10.5611 16.6776 10.6543C16.6465 10.7319 16.6232 10.8173 16.6077 10.9105C16.5922 11.0036 16.5766 11.1123 16.5611 11.2365C16.5456 11.3452 16.5378 11.4694 16.5378 11.6092V12.4243C16.5378 12.5019 16.5378 12.5718 16.5378 12.6339C16.5378 12.6805 16.5378 12.7193 16.5378 12.7504C16.5378 12.7814 16.5378 12.8202 16.5378 12.8668C16.5378 12.8979 16.5378 12.9367 16.5378 12.9833ZM18.4942 13.7984V12.96C18.4942 12.8979 18.4942 12.8513 18.4942 12.8202C18.4942 12.7737 18.4942 12.7348 18.4942 12.7038C18.4942 12.6883 18.4942 12.665 18.4942 12.6339C18.4942 12.5873 18.4942 12.5408 18.4942 12.4942L16.5378 13.9381C16.5533 14.0468 16.5611 14.1555 16.5611 14.2642C16.5766 14.3574 16.5922 14.4427 16.6077 14.5204C16.6232 14.6135 16.6465 14.6989 16.6776 14.7766C16.7086 14.8387 16.7397 14.9008 16.7707 14.9629C16.8173 15.025 16.8639 15.0871 16.9105 15.1492C16.957 15.1958 17.0114 15.2346 17.0735 15.2656C17.1511 15.2967 17.221 15.32 17.2831 15.3355C17.3607 15.351 17.4461 15.3588 17.5393 15.3588C17.6169 15.3588 17.6868 15.351 17.7489 15.3355C17.8265 15.32 17.8964 15.3045 17.9585 15.2889C18.0051 15.2579 18.0516 15.2191 18.0982 15.1725C18.1603 15.1259 18.2147 15.0716 18.2613 15.0095C18.2923 14.9474 18.3234 14.8775 18.3544 14.7999C18.3855 14.7067 18.4165 14.6135 18.4476 14.5204C18.4631 14.4117 18.4709 14.303 18.4709 14.1943C18.4864 14.0701 18.4942 13.9381 18.4942 13.7984ZM1.12006 7.23071C1.01137 7.3394 0.957031 7.47914 0.957031 7.64993C0.957031 7.80519 1.01137 7.94493 1.12006 8.06914C1.24427 8.17783 1.38401 8.23217 1.53927 8.23217C1.71006 8.23217 1.85757 8.17783 1.98178 8.06914L1.12006 7.23071ZM21.219 1.31514C21.2346 1.14435 21.1802 0.996846 21.056 0.872635C20.9473 0.748423 20.8076 0.686317 20.6368 0.686317L15.2802 0.5C15.1249 0.5 14.9852 0.554343 14.861 0.663028C14.7368 0.771713 14.6746 0.911451 14.6746 1.08224C14.6591 1.23751 14.7057 1.37724 14.8144 1.50146C14.9386 1.62567 15.0783 1.68777 15.2336 1.68777L20.008 1.8508L19.845 6.62518C19.845 6.79597 19.8993 6.94347 20.008 7.06769C20.1167 7.17637 20.2564 7.23848 20.4272 7.254C20.5825 7.254 20.7222 7.19966 20.8464 7.09098C20.9706 6.96676 21.0327 6.82703 21.0327 6.67176L21.219 1.31514ZM1.98178 8.06914L6.91919 3.10844L6.08076 2.27001L1.12006 7.23071L1.98178 8.06914ZM6.68629 3.13173L14.1157 7.23071L14.6979 6.18268L7.26853 2.10699L6.68629 3.13173ZM15.2802 7.09098L21.0327 1.71106L20.2176 0.849345L14.465 6.20597L15.2802 7.09098ZM14.1157 7.23071C14.3175 7.3394 14.5194 7.37821 14.7212 7.34716C14.9386 7.31611 15.1249 7.23071 15.2802 7.09098L14.465 6.20597C14.4961 6.19044 14.5349 6.18268 14.5815 6.18268C14.6281 6.16715 14.6669 6.16715 14.6979 6.18268L14.1157 7.23071ZM6.91919 3.10844C6.88813 3.1395 6.84932 3.16279 6.80274 3.17831C6.77168 3.17831 6.73287 3.16279 6.68629 3.13173L7.26853 2.10699C7.06669 1.9983 6.85708 1.95949 6.63971 1.99054C6.42234 2.02159 6.23602 2.11475 6.08076 2.27001L6.91919 3.10844Z" fill="#2A3EB1"/>
</svg>
