<svg width="13" height="12" viewBox="0 0 13 12" fill="none" xmlns="http://www.w3.org/2000/svg">
<g id="event_note">
<mask id="mask0_120_1806" style="mask-type:alpha" maskUnits="userSpaceOnUse" x="0" y="0" width="13" height="12">
<rect id="Bounding box" x="0.884766" y="0.38501" width="11.23" height="11.23" fill="#D9D9D9"/>
</mask>
<g mask="url(#mask0_120_1806)">
<path id="event_note_2" d="M3.22441 10.6791C2.96705 10.6791 2.74674 10.5875 2.56348 10.4042C2.38021 10.221 2.28857 10.0007 2.28857 9.7433V3.19247C2.28857 2.93511 2.38021 2.7148 2.56348 2.53154C2.74674 2.34827 2.96705 2.25663 3.22441 2.25663H3.69232V1.3208H4.62816V2.25663H8.37149V1.3208H9.30732V2.25663H9.77524C10.0326 2.25663 10.2529 2.34827 10.4362 2.53154C10.6194 2.7148 10.7111 2.93511 10.7111 3.19247V9.7433C10.7111 10.0007 10.6194 10.221 10.4362 10.4042C10.2529 10.5875 10.0326 10.6791 9.77524 10.6791H3.22441ZM3.22441 9.7433H9.77524V5.06413H3.22441V9.7433ZM3.22441 4.1283H9.77524V3.19247H3.22441V4.1283ZM4.16024 6.9358V5.99997H8.83941V6.9358H4.16024ZM4.16024 8.80747V7.87163H7.43566V8.80747H4.16024Z" fill="#2A3EB1"/>
</g>
</g>
</svg>
