<svg width="13" height="15" viewBox="0 0 13 15" fill="none" xmlns="http://www.w3.org/2000/svg">
<path id="local_library" d="M6.95703 14.6667C6.15703 13.9112 5.24036 13.3334 4.20703 12.9334C3.1737 12.5334 2.09036 12.3334 0.957031 12.3334V5.00004C2.07925 5.00004 3.15703 5.20282 4.19036 5.60837C5.2237 6.01393 6.14592 6.60004 6.95703 7.36671C7.76814 6.60004 8.69037 6.01393 9.7237 5.60837C10.757 5.20282 11.8348 5.00004 12.957 5.00004V12.3334C11.8126 12.3334 10.7265 12.5334 9.6987 12.9334C8.67092 13.3334 7.75703 13.9112 6.95703 14.6667ZM6.95703 12.9334C7.65703 12.4112 8.40148 11.9945 9.19036 11.6834C9.97925 11.3723 10.7904 11.1667 11.6237 11.0667V6.46671C10.8126 6.61115 10.0154 6.90282 9.23203 7.34171C8.4487 7.7806 7.69036 8.36671 6.95703 9.10004C6.2237 8.36671 5.46536 7.7806 4.68203 7.34171C3.8987 6.90282 3.10148 6.61115 2.29036 6.46671V11.0667C3.1237 11.1667 3.93481 11.3723 4.7237 11.6834C5.51259 11.9945 6.25703 12.4112 6.95703 12.9334ZM6.95703 5.66671C6.2237 5.66671 5.59592 5.4056 5.0737 4.88337C4.55148 4.36115 4.29036 3.73337 4.29036 3.00004C4.29036 2.26671 4.55148 1.63893 5.0737 1.11671C5.59592 0.594485 6.2237 0.333374 6.95703 0.333374C7.69036 0.333374 8.31814 0.594485 8.84036 1.11671C9.36259 1.63893 9.6237 2.26671 9.6237 3.00004C9.6237 3.73337 9.36259 4.36115 8.84036 4.88337C8.31814 5.4056 7.69036 5.66671 6.95703 5.66671ZM6.95703 4.33337C7.3237 4.33337 7.63759 4.20282 7.8987 3.94171C8.15981 3.6806 8.29036 3.36671 8.29036 3.00004C8.29036 2.63337 8.15981 2.31949 7.8987 2.05837C7.63759 1.79726 7.3237 1.66671 6.95703 1.66671C6.59036 1.66671 6.27648 1.79726 6.01536 2.05837C5.75425 2.31949 5.6237 2.63337 5.6237 3.00004C5.6237 3.36671 5.75425 3.6806 6.01536 3.94171C6.27648 4.20282 6.59036 4.33337 6.95703 4.33337Z" fill="#727CAF"/>
</svg>
