<svg width="15" height="15" viewBox="0 0 15 15" fill="none" xmlns="http://www.w3.org/2000/svg">
<path id="calendar_clock" d="M2.29036 4.5H11.6237V3.16667H2.29036V4.5ZM2.29036 13.8333C1.9237 13.8333 1.60981 13.7028 1.3487 13.4417C1.08759 13.1806 0.957031 12.8667 0.957031 12.5V3.16667C0.957031 2.8 1.08759 2.48611 1.3487 2.225C1.60981 1.96389 1.9237 1.83333 2.29036 1.83333H2.95703V0.5H4.29036V1.83333H9.6237V0.5H10.957V1.83333H11.6237C11.9904 1.83333 12.3043 1.96389 12.5654 2.225C12.8265 2.48611 12.957 2.8 12.957 3.16667V6.95C12.7459 6.85 12.5293 6.76667 12.307 6.7C12.0848 6.63333 11.857 6.58333 11.6237 6.55V5.83333H2.29036V12.5H6.49036C6.56814 12.7444 6.65981 12.9778 6.76536 13.2C6.87092 13.4222 6.99592 13.6333 7.14036 13.8333H2.29036ZM10.957 14.5C10.0348 14.5 9.2487 14.175 8.5987 13.525C7.9487 12.875 7.6237 12.0889 7.6237 11.1667C7.6237 10.2444 7.9487 9.45833 8.5987 8.80833C9.2487 8.15833 10.0348 7.83333 10.957 7.83333C11.8793 7.83333 12.6654 8.15833 13.3154 8.80833C13.9654 9.45833 14.2904 10.2444 14.2904 11.1667C14.2904 12.0889 13.9654 12.875 13.3154 13.525C12.6654 14.175 11.8793 14.5 10.957 14.5ZM12.0737 12.75L12.5404 12.2833L11.2904 11.0333V9.16667H10.6237V11.3L12.0737 12.75Z" fill="#2A3EB1"/>
</svg>
