<svg width="14" height="15" viewBox="0 0 14 15" fill="none" xmlns="http://www.w3.org/2000/svg">
<path d="M1.55693 13.1C1.22693 13.1 0.944434 12.9825 0.709434 12.7475C0.474433 12.5125 0.356934 12.23 0.356934 11.9V3.09995C0.356934 2.76995 0.474433 2.48745 0.709434 2.25245C0.944434 2.01745 1.22693 1.89995 1.55693 1.89995H4.40693C4.49582 1.55551 4.68193 1.2694 4.96527 1.04162C5.2486 0.81384 5.57916 0.699951 5.95693 0.699951C6.33471 0.699951 6.66527 0.81384 6.9486 1.04162C7.23193 1.2694 7.41804 1.55551 7.50693 1.89995H10.3569C10.6869 1.89995 10.9694 2.01745 11.2044 2.25245C11.4394 2.48745 11.5569 2.76995 11.5569 3.09995V7.39995C11.3669 7.33595 11.1719 7.28084 10.9719 7.23462C10.7719 7.1884 10.5669 7.15462 10.3569 7.13329V3.09995H1.55693V11.9H5.5736C5.59449 12.1168 5.62749 12.3238 5.6726 12.521C5.71771 12.7181 5.7736 12.9111 5.84027 13.1H1.55693ZM1.55693 11.9V3.09995V7.13329V7.09995V11.9ZM2.75693 10.7H5.6236C5.66805 10.4888 5.72466 10.2835 5.79343 10.0838C5.86221 9.88423 5.93893 9.68962 6.0236 9.49995H2.75693V10.7ZM2.75693 8.09995H7.15693C7.44582 7.87773 7.75693 7.68606 8.09027 7.52495C8.4236 7.36384 8.77916 7.24995 9.15693 7.18328V6.89995H2.75693V8.09995ZM2.75693 5.49995H9.15693V4.29995H2.75693V5.49995ZM5.95693 2.69995C6.07249 2.69995 6.16805 2.66217 6.2436 2.58662C6.31916 2.51106 6.35693 2.41551 6.35693 2.29995C6.35693 2.1844 6.31916 2.08884 6.2436 2.01328C6.16805 1.93773 6.07249 1.89995 5.95693 1.89995C5.84138 1.89995 5.74582 1.93773 5.67027 2.01328C5.59471 2.08884 5.55693 2.1844 5.55693 2.29995C5.55693 2.41551 5.59471 2.51106 5.67027 2.58662C5.74582 2.66217 5.84138 2.69995 5.95693 2.69995ZM9.9531 14.7C9.06677 14.7 8.31249 14.3876 7.69027 13.7628C7.06805 13.1381 6.75693 12.3826 6.75693 11.4961C6.75693 10.6098 7.06932 9.85551 7.6941 9.23328C8.31877 8.61106 9.07432 8.29995 9.96077 8.29995C10.8471 8.29995 11.6014 8.61234 12.2236 9.23712C12.8458 9.86178 13.1569 10.6173 13.1569 11.5038C13.1569 12.3901 12.8445 13.1444 12.2198 13.7666C11.5951 14.3888 10.8395 14.7 9.9531 14.7ZM9.55693 13.1H10.3569V11.9H11.5569V11.1H10.3569V9.89995H9.55693V11.1H8.35693V11.9H9.55693V13.1Z" fill="#727CAF"/>
</svg>
