<svg width="13" height="12" viewBox="0 0 13 12" fill="none" xmlns="http://www.w3.org/2000/svg">
<path d="M0.5 11.23V9.90882H8.42706V11.23H0.5ZM9.08765 6.60588C8.17383 6.60588 7.39489 6.28385 6.75082 5.63977C6.10674 4.9957 5.78471 4.21675 5.78471 3.30294C5.78471 2.38913 6.10674 1.61018 6.75082 0.96611C7.39489 0.322037 8.17383 0 9.08765 0C10.0015 0 10.7804 0.322037 11.4245 0.96611C12.0686 1.61018 12.3906 2.38913 12.3906 3.30294C12.3906 4.21675 12.0686 4.9957 11.4245 5.63977C10.7804 6.28385 10.0015 6.60588 9.08765 6.60588ZM0.5 5.94529V4.62412H4.66171C4.73877 4.86633 4.82685 5.09754 4.92594 5.31774C5.02503 5.53793 5.14614 5.74712 5.28926 5.94529H0.5ZM0.5 8.58765V7.26647H6.70953C6.96275 7.42061 7.23249 7.54997 7.51875 7.65457C7.805 7.75916 8.10777 7.83348 8.42706 7.87751V8.58765H0.5ZM8.75735 5.28471H9.41794V2.64235H8.75735V5.28471ZM9.08765 1.98176C9.17572 1.98176 9.25279 1.94874 9.31885 1.88268C9.38491 1.81662 9.41794 1.73955 9.41794 1.65147C9.41794 1.56339 9.38491 1.48632 9.31885 1.42026C9.25279 1.35421 9.17572 1.32118 9.08765 1.32118C8.99957 1.32118 8.9225 1.35421 8.85644 1.42026C8.79038 1.48632 8.75735 1.56339 8.75735 1.65147C8.75735 1.73955 8.79038 1.81662 8.85644 1.88268C8.9225 1.94874 8.99957 1.98176 9.08765 1.98176Z" fill="#2A3EB1"/>
</svg>
