<svg width="17" height="17" viewBox="0 0 17 17" fill="none" xmlns="http://www.w3.org/2000/svg">
<g id="inbox_customize">
<mask id="mask0_120_1111" style="mask-type:alpha" maskUnits="userSpaceOnUse" x="0" y="0" width="17" height="17">
<rect id="Bounding box" x="0.957031" y="0.5" width="16" height="16" fill="#D9D9D9"/>
</mask>
<g mask="url(#mask0_120_1111)">
<path id="inbox_customize_2" d="M4.29036 13.8333C3.9237 13.8333 3.60981 13.7028 3.3487 13.4416C3.08759 13.1805 2.95703 12.8666 2.95703 12.5V3.16665C2.95703 2.79998 3.08759 2.48609 3.3487 2.22498C3.60981 1.96387 3.9237 1.83331 4.29036 1.83331H13.6237C13.9904 1.83331 14.3043 1.96387 14.5654 2.22498C14.8265 2.48609 14.957 2.79998 14.957 3.16665V6.93331C14.7459 6.83331 14.5293 6.75276 14.307 6.69165C14.0848 6.63054 13.857 6.58331 13.6237 6.54998V3.16665H4.29036V9.16665H7.09036C7.19036 9.46665 7.35703 9.72776 7.59036 9.94998C7.8237 10.1722 8.08481 10.3278 8.3737 10.4166C8.34036 10.6389 8.31814 10.8639 8.30703 11.0916C8.29592 11.3194 8.30703 11.5444 8.34036 11.7666C7.94036 11.6889 7.56536 11.5416 7.21536 11.325C6.86536 11.1083 6.55703 10.8333 6.29036 10.5H4.29036V12.5H8.50703C8.58481 12.7444 8.6737 12.9778 8.7737 13.2C8.8737 13.4222 8.99592 13.6333 9.14037 13.8333H4.29036ZM12.307 14.5L12.107 13.5C11.9737 13.4444 11.8487 13.3861 11.732 13.325C11.6154 13.2639 11.4959 13.1889 11.3737 13.1L10.407 13.4L9.74037 12.2666L10.507 11.6C10.4848 11.4666 10.4737 11.3222 10.4737 11.1666C10.4737 11.0111 10.4848 10.8666 10.507 10.7333L9.74037 10.0666L10.407 8.93331L11.3737 9.23331C11.4959 9.14442 11.6154 9.06942 11.732 9.00831C11.8487 8.9472 11.9737 8.88887 12.107 8.83331L12.307 7.83331H13.6404L13.8404 8.83331C13.9737 8.88887 14.0987 8.9472 14.2154 9.00831C14.332 9.06942 14.4515 9.14442 14.5737 9.23331L15.5404 8.93331L16.207 10.0666L15.4404 10.7333C15.4626 10.8666 15.4737 11.0111 15.4737 11.1666C15.4737 11.3222 15.4626 11.4666 15.4404 11.6L16.207 12.2666L15.5404 13.4L14.5737 13.1C14.4515 13.1889 14.332 13.2639 14.2154 13.325C14.0987 13.3861 13.9737 13.4444 13.8404 13.5L13.6404 14.5H12.307ZM12.9737 12.5C13.3404 12.5 13.6543 12.3694 13.9154 12.1083C14.1765 11.8472 14.307 11.5333 14.307 11.1666C14.307 10.8 14.1765 10.4861 13.9154 10.225C13.6543 9.96387 13.3404 9.83331 12.9737 9.83331C12.607 9.83331 12.2931 9.96387 12.032 10.225C11.7709 10.4861 11.6404 10.8 11.6404 11.1666C11.6404 11.5333 11.7709 11.8472 12.032 12.1083C12.2931 12.3694 12.607 12.5 12.9737 12.5Z" fill="#2A3EB1"/>
</g>
</g>
</svg>
