<svg width="17" height="17" viewBox="0 0 17 17" fill="none" xmlns="http://www.w3.org/2000/svg">
<g id="travel_explore">
<mask id="mask0_120_1118" style="mask-type:alpha" maskUnits="userSpaceOnUse" x="0" y="0" width="17" height="17">
<rect id="Bounding box" x="0.957031" y="0.5" width="16" height="16" fill="#D9D9D9"/>
</mask>
<g mask="url(#mask0_120_1118)">
<path id="travel_explore_2" d="M8.95719 15.1666C8.03497 15.1666 7.16831 14.9916 6.35719 14.6416C5.54608 14.2916 4.84053 13.8166 4.24053 13.2166C3.64053 12.6166 3.16553 11.9111 2.81553 11.1C2.46553 10.2889 2.29053 9.4222 2.29053 8.49998C2.29053 7.57776 2.46553 6.71109 2.81553 5.89998C3.16553 5.08887 3.64053 4.38331 4.24053 3.78331C4.84053 3.18331 5.54608 2.70831 6.35719 2.35831C7.16831 2.00831 8.03497 1.83331 8.95719 1.83331C10.5794 1.83331 11.9989 2.34165 13.2155 3.35831C14.4322 4.37498 15.1905 5.64998 15.4905 7.18331H14.1239C13.9128 6.3722 13.5322 5.6472 12.9822 5.00831C12.4322 4.36942 11.7572 3.88887 10.9572 3.56665V3.83331C10.9572 4.19998 10.8266 4.51387 10.5655 4.77498C10.3044 5.03609 9.99053 5.16665 9.62386 5.16665H8.29053V6.49998C8.29053 6.68887 8.22664 6.8472 8.09886 6.97498C7.97108 7.10276 7.81275 7.16665 7.62386 7.16665H6.29053V8.49998H7.62386V10.5H6.95719L3.75719 7.29998C3.72386 7.49998 3.69331 7.69998 3.66553 7.89998C3.63775 8.09998 3.62386 8.29998 3.62386 8.49998C3.62386 9.95553 4.13497 11.2055 5.15719 12.25C6.17942 13.2944 7.44608 13.8222 8.95719 13.8333V15.1666ZM15.0239 14.8333L12.8905 12.7C12.6572 12.8333 12.4072 12.9444 12.1405 13.0333C11.8739 13.1222 11.5905 13.1666 11.2905 13.1666C10.4572 13.1666 9.74886 12.875 9.16553 12.2916C8.58219 11.7083 8.29053 11 8.29053 10.1666C8.29053 9.33331 8.58219 8.62498 9.16553 8.04165C9.74886 7.45831 10.4572 7.16665 11.2905 7.16665C12.1239 7.16665 12.8322 7.45831 13.4155 8.04165C13.9989 8.62498 14.2905 9.33331 14.2905 10.1666C14.2905 10.4666 14.2461 10.75 14.1572 11.0166C14.0683 11.2833 13.9572 11.5333 13.8239 11.7666L15.9572 13.9L15.0239 14.8333ZM11.2905 11.8333C11.7572 11.8333 12.1516 11.6722 12.4739 11.35C12.7961 11.0278 12.9572 10.6333 12.9572 10.1666C12.9572 9.69998 12.7961 9.30553 12.4739 8.98331C12.1516 8.66109 11.7572 8.49998 11.2905 8.49998C10.8239 8.49998 10.4294 8.66109 10.1072 8.98331C9.78497 9.30553 9.62386 9.69998 9.62386 10.1666C9.62386 10.6333 9.78497 11.0278 10.1072 11.35C10.4294 11.6722 10.8239 11.8333 11.2905 11.8333Z" fill="#727CAF"/>
</g>
</g>
</svg>
