<svg width="12" height="15" viewBox="0 0 12 15" fill="none" xmlns="http://www.w3.org/2000/svg">
<path id="encrypted" d="M5.29036 9.50004H7.29036L6.90703 7.35004C7.12925 7.23893 7.30425 7.07782 7.43203 6.86671C7.55981 6.6556 7.6237 6.42226 7.6237 6.16671C7.6237 5.80004 7.49314 5.48615 7.23203 5.22504C6.97092 4.96393 6.65703 4.83337 6.29036 4.83337C5.9237 4.83337 5.60981 4.96393 5.3487 5.22504C5.08759 5.48615 4.95703 5.80004 4.95703 6.16671C4.95703 6.42226 5.02092 6.6556 5.1487 6.86671C5.27648 7.07782 5.45148 7.23893 5.6737 7.35004L5.29036 9.50004ZM6.29036 14.1667C4.74592 13.7778 3.47092 12.8917 2.46536 11.5084C1.45981 10.125 0.957031 8.58893 0.957031 6.90004V2.83337L6.29036 0.833374L11.6237 2.83337V6.90004C11.6237 8.58893 11.1209 10.125 10.1154 11.5084C9.10981 12.8917 7.83481 13.7778 6.29036 14.1667ZM6.29036 12.7667C7.44592 12.4 8.40148 11.6667 9.15703 10.5667C9.91259 9.46671 10.2904 8.24448 10.2904 6.90004V3.75004L6.29036 2.25004L2.29036 3.75004V6.90004C2.29036 8.24448 2.66814 9.46671 3.4237 10.5667C4.17925 11.6667 5.13481 12.4 6.29036 12.7667Z" fill="#2A3EB1"/>
</svg>
