<svg width="14" height="15" viewBox="0 0 14 15" fill="none" xmlns="http://www.w3.org/2000/svg">
<path id="lock_person" d="M10.2904 11.5C10.5681 11.5 10.8043 11.4027 10.9987 11.2083C11.1931 11.0138 11.2904 10.7777 11.2904 10.5C11.2904 10.2222 11.1931 9.98607 10.9987 9.79163C10.8043 9.59718 10.5681 9.49996 10.2904 9.49996C10.0126 9.49996 9.77648 9.59718 9.58203 9.79163C9.38759 9.98607 9.29037 10.2222 9.29037 10.5C9.29037 10.7777 9.38759 11.0138 9.58203 11.2083C9.77648 11.4027 10.0126 11.5 10.2904 11.5ZM10.2904 13.5C10.6237 13.5 10.9348 13.4222 11.2237 13.2666C11.5126 13.1111 11.7515 12.8944 11.9404 12.6166C11.6848 12.4611 11.4181 12.3472 11.1404 12.275C10.8626 12.2027 10.5793 12.1666 10.2904 12.1666C10.0015 12.1666 9.71814 12.2027 9.44036 12.275C9.16259 12.3472 8.89592 12.4611 8.64037 12.6166C8.82925 12.8944 9.06814 13.1111 9.35703 13.2666C9.64592 13.4222 9.95703 13.5 10.2904 13.5ZM4.29036 4.83329H8.29036V3.49996C8.29036 2.9444 8.09592 2.47218 7.70703 2.08329C7.31814 1.6944 6.84592 1.49996 6.29036 1.49996C5.73481 1.49996 5.26259 1.6944 4.8737 2.08329C4.48481 2.47218 4.29036 2.9444 4.29036 3.49996V4.83329ZM6.45703 14.1666H2.29036C1.9237 14.1666 1.60981 14.0361 1.3487 13.775C1.08759 13.5138 0.957031 13.2 0.957031 12.8333V6.16663C0.957031 5.79996 1.08759 5.48607 1.3487 5.22496C1.60981 4.96385 1.9237 4.83329 2.29036 4.83329H2.95703V3.49996C2.95703 2.57774 3.28203 1.79163 3.93203 1.14163C4.58203 0.491626 5.36814 0.166626 6.29036 0.166626C7.21259 0.166626 7.9987 0.491626 8.6487 1.14163C9.2987 1.79163 9.6237 2.57774 9.6237 3.49996V4.83329H10.2904C10.657 4.83329 10.9709 4.96385 11.232 5.22496C11.4931 5.48607 11.6237 5.79996 11.6237 6.16663V7.03329C11.4237 6.96663 11.2154 6.91663 10.9987 6.88329C10.782 6.84996 10.5459 6.83329 10.2904 6.83329V6.16663H2.29036V12.8333H5.8237C5.91259 13.1 6.00148 13.3305 6.09036 13.525C6.17925 13.7194 6.30148 13.9333 6.45703 14.1666ZM10.2904 14.8333C9.36814 14.8333 8.58203 14.5083 7.93203 13.8583C7.28203 13.2083 6.95703 12.4222 6.95703 11.5C6.95703 10.5777 7.28203 9.79163 7.93203 9.14163C8.58203 8.49163 9.36814 8.16663 10.2904 8.16663C11.2126 8.16663 11.9987 8.49163 12.6487 9.14163C13.2987 9.79163 13.6237 10.5777 13.6237 11.5C13.6237 12.4222 13.2987 13.2083 12.6487 13.8583C11.9987 14.5083 11.2126 14.8333 10.2904 14.8333Z" fill="#727CAF"/>
</svg>
