<svg width="15" height="14" viewBox="0 0 15 14" fill="none" xmlns="http://www.w3.org/2000/svg">
<path d="M10.2904 9.16667C9.73481 9.16667 9.26259 8.97222 8.8737 8.58333C8.48481 8.19444 8.29036 7.72222 8.29036 7.16667C8.29036 6.61111 8.48481 6.13889 8.8737 5.75C9.26259 5.36111 9.73481 5.16667 10.2904 5.16667C10.8459 5.16667 11.3181 5.36111 11.707 5.75C12.0959 6.13889 12.2904 6.61111 12.2904 7.16667C12.2904 7.72222 12.0959 8.19444 11.707 8.58333C11.3181 8.97222 10.8459 9.16667 10.2904 9.16667ZM10.2904 7.83333C10.4793 7.83333 10.6376 7.76944 10.7654 7.64167C10.8931 7.51389 10.957 7.35556 10.957 7.16667C10.957 6.97778 10.8931 6.81944 10.7654 6.69167C10.6376 6.56389 10.4793 6.5 10.2904 6.5C10.1015 6.5 9.94314 6.56389 9.81536 6.69167C9.68759 6.81944 9.6237 6.97778 9.6237 7.16667C9.6237 7.35556 9.68759 7.51389 9.81536 7.64167C9.94314 7.76944 10.1015 7.83333 10.2904 7.83333ZM6.29036 13.8333V11.9C6.29036 11.6667 6.34592 11.4472 6.45703 11.2417C6.56814 11.0361 6.7237 10.8722 6.9237 10.75C7.27925 10.5389 7.65425 10.3639 8.0487 10.225C8.44314 10.0861 8.84592 9.98333 9.25703 9.91667L10.2904 11.1667L11.3237 9.91667C11.7348 9.98333 12.1348 10.0861 12.5237 10.225C12.9126 10.3639 13.2848 10.5389 13.6404 10.75C13.8404 10.8722 13.9987 11.0361 14.1154 11.2417C14.232 11.4472 14.2904 11.6667 14.2904 11.9V13.8333H6.29036ZM7.60703 12.5H9.65703L8.75703 11.4C8.55703 11.4556 8.36259 11.5278 8.1737 11.6167C7.98481 11.7056 7.79592 11.8 7.60703 11.9V12.5ZM10.9237 12.5H12.957V11.9C12.7793 11.7889 12.5959 11.6917 12.407 11.6083C12.2181 11.525 12.0237 11.4556 11.8237 11.4L10.9237 12.5ZM2.29036 12.5C1.9237 12.5 1.60981 12.3694 1.3487 12.1083C1.08759 11.8472 0.957031 11.5333 0.957031 11.1667V1.83333C0.957031 1.46667 1.08759 1.15278 1.3487 0.891667C1.60981 0.630556 1.9237 0.5 2.29036 0.5H11.6237C11.9904 0.5 12.3043 0.630556 12.5654 0.891667C12.8265 1.15278 12.957 1.46667 12.957 1.83333V5.16667C12.7793 4.94444 12.5848 4.73333 12.3737 4.53333C12.1626 4.33333 11.9126 4.2 11.6237 4.13333V1.83333H2.29036V11.1667H5.05703C5.0237 11.2889 4.9987 11.4111 4.98203 11.5333C4.96536 11.6556 4.95703 11.7778 4.95703 11.9V12.5H2.29036ZM3.6237 4.5H8.29036C8.57925 4.27778 8.89592 4.11111 9.24036 4C9.58481 3.88889 9.93481 3.83333 10.2904 3.83333V3.16667H3.6237V4.5ZM3.6237 7.16667H6.95703C6.95703 6.93333 6.98203 6.70556 7.03203 6.48333C7.08203 6.26111 7.15148 6.04444 7.24036 5.83333H3.6237V7.16667ZM3.6237 9.83333H5.9237C6.04592 9.73333 6.17648 9.64444 6.31536 9.56667C6.45425 9.48889 6.59592 9.41667 6.74036 9.35V8.5H3.6237V9.83333ZM2.29036 11.1667V1.83333V4.11667V3.83333V11.1667Z" fill="#727CAF"/>
</svg>
