<svg width="13" height="12" viewBox="0 0 13 12" fill="none" xmlns="http://www.w3.org/2000/svg">
<path d="M10.7768 11.5263H8.31065C7.96842 11.5263 7.66147 11.3871 7.43567 11.1679C7.21339 10.9452 7.07227 10.6426 7.07227 10.3051V7.87316C7.07227 7.53916 7.21339 7.23299 7.43567 7.01381C7.66147 6.79114 7.96842 6.65546 8.31065 6.65546H10.7768C11.1155 6.65546 11.426 6.79114 11.6518 7.01381C11.8741 7.23299 12.0117 7.53916 12.0117 7.87316V10.3051C12.0117 10.6426 11.8741 10.9452 11.6518 11.1679C11.426 11.3871 11.1155 11.5263 10.7768 11.5263Z" fill="#2A3EB1"/>
<path d="M1.81282 6.8416C1.90878 6.66625 2.09789 6.54657 2.3124 6.54657C2.53538 6.54657 2.73014 6.6746 2.82046 6.8583L3.58819 8.16924C3.74343 8.43644 3.65311 8.776 3.38497 8.92909C3.22408 9.02094 3.03497 9.0265 2.87691 8.95692V10.5017H4.99663C5.30711 10.5017 5.56114 10.7522 5.56114 11.0583C5.56114 11.3673 5.30711 11.615 4.99663 11.615H2.87691C2.56925 11.615 2.287 11.4897 2.08096 11.2893V11.2866C1.87491 11.0862 1.7479 10.8078 1.7479 10.5017V8.89569C1.56443 9.02929 1.30758 9.0432 1.10718 8.91239C0.84751 8.7426 0.774124 8.40026 0.946299 8.14419L1.81282 6.8416Z" fill="#2A3EB1"/>
<path d="M11.2112 5.15839C11.1152 5.33374 10.9261 5.45342 10.7116 5.45342C10.4886 5.45342 10.2939 5.32539 10.2036 5.14169L9.43584 3.83075C9.2806 3.56355 9.37092 3.22399 9.63906 3.07091C9.79995 2.97906 9.98906 2.97349 10.1471 3.04307V1.49834H8.0274C7.71692 1.49834 7.46289 1.24784 7.46289 0.941673C7.46289 0.632725 7.71692 0.38501 8.0274 0.38501H10.1471C10.4548 0.38501 10.737 0.510259 10.9431 0.710657V0.713441C11.1491 0.913839 11.2761 1.19217 11.2761 1.49834V3.10431C11.4596 2.97071 11.7164 2.95679 11.9168 3.08761C12.1765 3.25739 12.2499 3.59974 12.0777 3.8558L11.2112 5.15839Z" fill="#2A3EB1"/>
<path d="M5.76804 1.87584V4.30776C5.76804 4.64176 5.62692 4.94792 5.40464 5.17059C5.17884 5.38978 4.87189 5.52546 4.52966 5.52546H2.06347C1.72477 5.52546 1.41429 5.38978 1.18849 5.17059C0.966212 4.94792 0.828613 4.64176 0.828613 4.30776V1.87584C0.828613 1.53837 0.966212 1.23568 1.18849 1.01301C1.41429 0.793829 1.72477 0.654663 2.06347 0.654663H4.52966C4.87189 0.654663 5.17884 0.793829 5.40464 1.01301C5.62692 1.23568 5.76804 1.53837 5.76804 1.87584Z" fill="#2A3EB1"/>
</svg>
