<svg xmlns="http://www.w3.org/2000/svg" width="30" height="30" viewBox="0 0 24 24" fill="none">
<rect width="24" height="24" rx="6" fill="#EEEEEE"/>
<g clip-path="url(#clip0_852_3913)">
<path d="M11.3438 17.6019C11.359 17.6021 11.3742 17.6022 11.3898 17.6024C11.4399 17.6028 11.4899 17.6027 11.54 17.6026C11.5749 17.6027 11.6098 17.6028 11.6448 17.6029C11.7179 17.6031 11.7911 17.6031 11.8642 17.6028C11.9577 17.6026 12.0513 17.603 12.1448 17.6037C12.2169 17.6041 12.2891 17.6041 12.3612 17.6039C12.3957 17.6039 12.4301 17.6041 12.4646 17.6043C12.5129 17.6047 12.5612 17.6044 12.6095 17.6041C12.6506 17.604 12.6506 17.604 12.6926 17.604C12.8024 17.588 12.866 17.5418 12.9399 17.4608C12.9801 17.3567 12.9736 17.2541 12.9725 17.1436C12.9725 17.1181 12.9725 17.0927 12.9726 17.0664C12.9725 16.9823 12.972 16.8981 12.9715 16.814C12.9714 16.7556 12.9713 16.6973 12.9712 16.6389C12.971 16.501 12.9705 16.3631 12.9698 16.2253C12.9691 16.0682 12.9687 15.9112 12.9684 15.7542C12.9677 15.4313 12.9665 15.1084 12.9651 14.7855C12.9333 14.7926 12.9016 14.7996 12.8699 14.8067C12.8522 14.8106 12.8346 14.8145 12.8164 14.8186C12.7812 14.8264 12.7461 14.8342 12.7109 14.8421C11.9004 15.0211 11.1152 14.9132 10.3988 14.4785C9.73018 14.0469 9.28213 13.3885 9.10474 12.6141C9.06147 12.4133 9.05202 12.2159 9.05265 12.0109C9.05268 11.9879 9.05268 11.9879 9.05271 11.9643C9.05594 11.1781 9.37188 10.4608 9.9204 9.89984C10.3728 9.45461 10.9923 9.14786 11.6271 9.08282C11.6541 9.0799 11.6811 9.07699 11.7089 9.07399C12.0875 9.03937 12.4549 9.0851 12.8186 9.19197C12.8993 9.21442 12.8993 9.21442 12.9651 9.21442C12.9671 8.87638 12.9687 8.53834 12.9696 8.20029C12.9701 8.04333 12.9707 7.88636 12.9717 7.7294C12.9726 7.59257 12.9731 7.45574 12.9733 7.3189C12.9734 7.24647 12.9737 7.17404 12.9743 7.10161C12.975 7.02069 12.9751 6.93978 12.975 6.85886C12.9753 6.83492 12.9756 6.81099 12.976 6.78633C12.9753 6.65675 12.9696 6.57216 12.8773 6.47272C12.7907 6.40327 12.7217 6.39853 12.6123 6.39805C12.5971 6.3979 12.5819 6.39775 12.5662 6.3976C12.5162 6.3972 12.4662 6.39728 12.4161 6.39741C12.3812 6.39731 12.3462 6.39719 12.3113 6.39706C12.2382 6.39686 12.165 6.39691 12.0919 6.39713C11.9983 6.39738 11.9048 6.39694 11.8113 6.3963C11.7392 6.3959 11.667 6.3959 11.5949 6.39603C11.5604 6.39603 11.5259 6.3959 11.4915 6.39563C11.4432 6.3953 11.3949 6.39554 11.3466 6.39591C11.3192 6.39592 11.2917 6.39592 11.2635 6.39592C11.1536 6.41202 11.084 6.4599 11.0161 6.5468C10.9868 6.6141 10.9835 6.66173 10.9846 6.73498C10.9848 6.75936 10.985 6.78375 10.9852 6.80888C10.9858 6.83411 10.9864 6.85934 10.9869 6.88534C10.9872 6.911 10.9875 6.93666 10.9878 6.9631C10.9886 7.02629 10.9897 7.08947 10.991 7.15266C10.9712 7.15589 10.9514 7.15913 10.9309 7.16246C10.376 7.25659 9.81673 7.48572 9.35381 7.80561C9.30541 7.83714 9.30541 7.83714 9.25929 7.82726C9.20797 7.80829 9.18399 7.78726 9.14655 7.74769C9.12828 7.7288 9.12828 7.7288 9.10963 7.70952C9.09716 7.69631 9.08469 7.68309 9.07184 7.66947C9.04705 7.64335 9.02215 7.61733 8.99713 7.59142C8.9862 7.57984 8.97528 7.56826 8.96402 7.55634C8.88914 7.48994 8.82227 7.47482 8.72365 7.47344C8.70357 7.47282 8.6835 7.47219 8.66282 7.47155C8.48956 7.49956 8.36379 7.66794 8.24625 7.78599C8.22491 7.8073 8.20357 7.8286 8.18222 7.8499C8.13768 7.89437 8.09323 7.93892 8.04883 7.98352C7.99199 8.04061 7.93496 8.09749 7.87787 8.15432C7.83383 8.1982 7.7899 8.24218 7.746 8.28619C7.71484 8.3174 7.68358 8.34852 7.65233 8.37964C7.63343 8.39868 7.61454 8.41771 7.59507 8.43732C7.57842 8.454 7.56177 8.47069 7.54462 8.48788C7.47278 8.56947 7.45301 8.63206 7.4515 8.7401C7.45088 8.76018 7.45026 8.78025 7.44961 8.80093C7.47506 8.95837 7.61097 9.06126 7.72331 9.16344C7.78891 9.22106 7.78891 9.22106 7.81289 9.30069C7.77735 9.36737 7.74069 9.43309 7.70236 9.49818C7.43252 9.97028 7.21391 10.4722 7.13072 11.013C7.1148 11.0125 7.09888 11.0121 7.08247 11.0116C7.00991 11.0097 6.93735 11.0086 6.86478 11.0075C6.83973 11.0068 6.81467 11.006 6.78886 11.0053C6.55265 11.0025 6.55265 11.0025 6.45078 11.1007C6.38477 11.1902 6.37659 11.2555 6.37612 11.3657C6.37589 11.3885 6.37589 11.3885 6.37566 11.4118C6.37526 11.4618 6.37534 11.5119 6.37547 11.5619C6.37537 11.5968 6.37525 11.6318 6.37512 11.6667C6.37492 11.7399 6.37498 11.813 6.37519 11.8861C6.37545 11.9797 6.375 12.0732 6.37436 12.1668C6.37396 12.2389 6.37397 12.311 6.37409 12.3831C6.3741 12.4176 6.37396 12.4521 6.37369 12.4866C6.37336 12.5349 6.3736 12.5831 6.37397 12.6314C6.37398 12.6589 6.37398 12.6863 6.37399 12.7146C6.39009 12.8245 6.43796 12.8941 6.52486 12.9619C6.59216 12.9913 6.63979 12.9945 6.71304 12.9934C6.73743 12.9932 6.76181 12.993 6.78694 12.9928C6.81217 12.9922 6.83741 12.9917 6.8634 12.9911C6.88906 12.9908 6.91472 12.9905 6.94116 12.9902C7.00436 12.9894 7.06753 12.9884 7.13072 12.987C7.13396 13.0068 7.13719 13.0267 7.14053 13.0471C7.23465 13.6021 7.46378 14.1613 7.78367 14.6242C7.8152 14.6726 7.8152 14.6726 7.80532 14.7187C7.78635 14.7701 7.76532 14.794 7.72575 14.8315C7.71316 14.8437 7.70056 14.8558 7.68759 14.8684C7.67437 14.8809 7.66115 14.8933 7.64753 14.9062C7.62141 14.931 7.59539 14.9559 7.56948 14.9809C7.5579 14.9918 7.54633 15.0028 7.5344 15.014C7.468 15.0889 7.45288 15.1558 7.4515 15.2544C7.45088 15.2745 7.45026 15.2945 7.44961 15.3152C7.47762 15.4885 7.646 15.6142 7.76405 15.7318C7.78536 15.7531 7.80666 15.7745 7.82796 15.7958C7.87243 15.8403 7.91698 15.8848 7.96158 15.9292C8.01867 15.986 8.07556 16.0431 8.13239 16.1002C8.17626 16.1442 8.22024 16.1881 8.26425 16.232C8.29546 16.2632 8.32659 16.2944 8.35771 16.3257C8.37674 16.3446 8.39577 16.3635 8.41538 16.383C8.43206 16.3996 8.44875 16.4163 8.46594 16.4334C8.54753 16.5052 8.61012 16.525 8.71816 16.5265C8.74828 16.5275 8.74828 16.5275 8.779 16.5284C8.93644 16.503 9.03932 16.3671 9.1415 16.2547C9.19912 16.1891 9.19912 16.1891 9.27876 16.1651C9.34543 16.2007 9.41115 16.2373 9.47624 16.2757C9.94835 16.5455 10.4503 16.7641 10.991 16.8473C10.9906 16.8632 10.9901 16.8792 10.9896 16.8956C10.9878 16.9681 10.9867 17.0407 10.9855 17.1133C10.9848 17.1383 10.9841 17.1634 10.9833 17.1892C10.9806 17.4254 10.9806 17.4254 11.0788 17.5272C11.1682 17.5933 11.2336 17.6014 11.3438 17.6019Z" fill="#727CAF"/>
<path d="M12.9651 14.1056C12.9651 12.7159 12.9651 11.3262 12.9651 9.89433C12.3049 9.64678 11.6446 9.59933 10.9911 9.89433C10.447 10.1511 10.0228 10.6038 9.80666 11.1665C9.6419 11.6535 9.59672 12.208 9.7628 12.7018C9.77049 12.726 9.77818 12.7502 9.7861 12.7752C9.99483 13.3724 10.4332 13.8347 10.9979 14.1111C11.6491 14.3983 12.3103 14.3511 12.9651 14.1056Z" fill="#727CAF"/>
<path d="M13.623 10.7936C13.8574 10.7966 14.0917 10.799 14.326 10.8004C14.4349 10.8011 14.5437 10.802 14.6525 10.8035C14.7576 10.805 14.8627 10.8058 14.9678 10.8061C15.0078 10.8063 15.0478 10.8068 15.0878 10.8075C15.4408 10.8136 15.4408 10.8136 15.5528 10.7307C15.5756 10.7085 15.5977 10.6856 15.619 10.662C15.6424 10.6421 15.6661 10.6225 15.69 10.6033C15.7125 10.5841 15.735 10.5648 15.7575 10.5455C15.8678 10.4513 15.9791 10.3586 16.0921 10.2676C16.1396 10.2282 16.1833 10.1867 16.2277 10.1438C16.2872 10.092 16.2944 10.0917 16.3798 10.0931C16.4158 10.1033 16.4158 10.1033 16.4525 10.1137C16.6804 10.1769 16.9687 10.1627 17.1763 10.0479C17.374 9.9246 17.5279 9.75118 17.6005 9.52772C17.6533 9.26497 17.6379 8.997 17.4942 8.76655C17.3551 8.57347 17.1711 8.42836 16.935 8.38091C16.6627 8.35157 16.422 8.37488 16.1948 8.53856C16.0303 8.67717 15.897 8.84479 15.8603 9.06086C15.8603 9.12072 15.8629 9.18022 15.8656 9.24002C15.8801 9.43338 15.8801 9.43338 15.8203 9.61151C15.7634 9.66196 15.7056 9.70096 15.6409 9.7408C15.6003 9.77366 15.5601 9.80703 15.5203 9.84087C15.4802 9.87343 15.44 9.90585 15.3997 9.9382C15.3859 9.95233 15.3721 9.96646 15.3579 9.98102C15.191 10.1392 15.0346 10.1385 14.8183 10.1356C14.7837 10.1358 14.7491 10.136 14.7145 10.1363C14.6241 10.1369 14.5337 10.1365 14.4434 10.1359C14.3509 10.1354 14.2584 10.1359 14.1659 10.1364C13.9849 10.1371 13.804 10.1366 13.623 10.1356C13.623 10.3527 13.623 10.5699 13.623 10.7936Z" fill="#727CAF"/>
<path d="M17.2293 15.4982C17.4224 15.3591 17.5675 15.1752 17.615 14.939C17.6443 14.6667 17.621 14.426 17.4573 14.1988C17.3087 14.0224 17.1242 13.8811 16.8878 13.8601C16.7189 13.8516 16.5693 13.8515 16.4086 13.9082C16.3347 13.9188 16.3099 13.916 16.2487 13.8719C16.2234 13.8471 16.2234 13.8471 16.1975 13.8218C16.1214 13.7497 16.0447 13.6807 15.9631 13.6148C15.8959 13.5605 15.8292 13.5058 15.7635 13.4496C15.7509 13.4388 15.7383 13.428 15.7252 13.4168C15.7007 13.3958 15.6763 13.3748 15.652 13.3536C15.5215 13.2418 15.4371 13.1963 15.264 13.1988C15.2462 13.1988 15.2284 13.1988 15.2101 13.1988C15.1516 13.1988 15.0931 13.1993 15.0346 13.1999C14.9939 13.2 14.9533 13.2001 14.9126 13.2001C14.8058 13.2004 14.6989 13.201 14.5921 13.2018C14.483 13.2024 14.3739 13.2027 14.2648 13.2031C14.0509 13.2038 13.837 13.2049 13.623 13.2063C13.623 13.4234 13.623 13.6406 13.623 13.8643C13.6916 13.8634 13.6916 13.8634 13.7615 13.8625C13.9135 13.8607 14.0654 13.8602 14.2174 13.8604C14.3094 13.8604 14.4014 13.8601 14.4935 13.8586C14.5825 13.8573 14.6715 13.8572 14.7606 13.8578C14.7943 13.8578 14.828 13.8575 14.8618 13.8566C15.0794 13.8517 15.2105 13.8817 15.3715 14.0338C15.3926 14.0547 15.4135 14.0756 15.4343 14.0968C15.4845 14.1462 15.5392 14.1891 15.5943 14.233C15.6319 14.2635 15.6694 14.2941 15.7067 14.3249C15.7203 14.3337 15.7338 14.3425 15.7477 14.3516C15.8122 14.3973 15.8545 14.4289 15.8711 14.5083C15.8722 14.5698 15.8691 14.6296 15.8644 14.6909C15.8547 14.9498 15.8875 15.1297 16.0583 15.3324C16.364 15.6527 16.8452 15.7377 17.2293 15.4982Z" fill="#727CAF"/>
<path d="M17.2293 12.7566C17.4224 12.6175 17.5675 12.4335 17.615 12.1974C17.6443 11.9251 17.621 11.6844 17.4573 11.4572C17.3079 11.2798 17.1257 11.1432 16.8896 11.1178C16.606 11.0981 16.3715 11.1331 16.147 11.3201C16.0458 11.4177 15.9669 11.5235 15.9041 11.6491C15.1514 11.6563 14.3986 11.6636 13.623 11.671C13.623 11.8882 13.623 12.1053 13.623 12.329C13.6913 12.3284 13.7596 12.3278 13.83 12.3272C14.0558 12.3254 14.2816 12.3249 14.5073 12.3251C14.6442 12.3252 14.7811 12.3248 14.918 12.3234C15.0501 12.322 15.1822 12.3219 15.3143 12.3225C15.3647 12.3226 15.4151 12.3222 15.4655 12.3214C15.7327 12.3046 15.7327 12.3046 15.967 12.4036C16.0061 12.4654 16.031 12.5245 16.0577 12.5922C16.3458 12.9203 16.8623 12.9855 17.2293 12.7566Z" fill="#727CAF"/>
<path d="M15.694 8.15044C15.8871 8.01138 16.0322 7.82744 16.0796 7.59131C16.109 7.31896 16.0856 7.07831 15.922 6.85105C15.7725 6.67371 15.5904 6.53711 15.3542 6.51167C15.0706 6.492 14.8361 6.52701 14.6117 6.71396C14.5104 6.8116 14.4316 6.91737 14.3688 7.04297C14.1227 7.05021 13.8766 7.05745 13.623 7.0649C13.623 7.28205 13.623 7.49919 13.623 7.72291C13.6751 7.72169 13.7272 7.72048 13.7808 7.71923C13.8316 7.71887 13.8824 7.71893 13.9332 7.71903C13.9684 7.71888 14.0035 7.7183 14.0386 7.71727C14.153 7.7141 14.2576 7.71561 14.3688 7.74484C14.4285 7.80155 14.4595 7.85158 14.494 7.92595C14.5725 8.09267 14.7536 8.18201 14.9171 8.24932C15.1717 8.32234 15.4708 8.28962 15.694 8.15044Z" fill="#727CAF"/>
<path d="M15.694 17.3626C15.8871 17.2235 16.0322 17.0396 16.0796 16.8035C16.109 16.5311 16.0856 16.2905 15.922 16.0632C15.7725 15.8859 15.5904 15.7493 15.3542 15.7238C15.0706 15.7042 14.8361 15.7392 14.6117 15.9261C14.5104 16.0238 14.4316 16.1295 14.3688 16.2551C14.1227 16.2624 13.8766 16.2696 13.623 16.2771C13.623 16.4942 13.623 16.7113 13.623 16.9351C13.6751 16.9339 13.7272 16.9326 13.7808 16.9314C13.8316 16.931 13.8824 16.9311 13.9332 16.9312C13.9684 16.931 14.0035 16.9305 14.0386 16.9294C14.153 16.9263 14.2576 16.9278 14.3688 16.957C14.4285 17.0137 14.4595 17.0637 14.494 17.1381C14.5725 17.3048 14.7536 17.3942 14.9171 17.4615C15.1717 17.5345 15.4708 17.5018 15.694 17.3626Z" fill="#727CAF"/>
</g>
<defs>
<clipPath id="clip0_852_3913">
<rect width="11.23" height="11.23" fill="white" transform="matrix(1 0 0 -1 6.38501 17.615)"/>
</clipPath>
</defs>
</svg>