<svg width="17" height="17" viewBox="0 0 17 17" fill="none" xmlns="http://www.w3.org/2000/svg">
<g id="flex_wrap">
<mask id="mask0_120_1643" style="mask-type:alpha" maskUnits="userSpaceOnUse" x="0" y="0" width="17" height="17">
<rect id="Bounding box" x="0.957031" y="0.5" width="16" height="16" fill="#D9D9D9"/>
</mask>
<g mask="url(#mask0_120_1643)">
<path id="flex_wrap_2" d="M1.62354 15.1666V9.16665H5.62354V15.1666H1.62354ZM6.95687 15.1666V9.16665H10.9569V15.1666H6.95687ZM12.2902 15.1666V9.16665H16.2902V15.1666H12.2902ZM8.2902 13.8333H9.62354V10.5H8.2902V13.8333ZM1.62354 7.83331V1.83331H5.62354V7.83331H1.62354ZM6.95687 7.83331V1.83331H10.9569V7.83331H6.95687ZM12.2902 7.83331V1.83331H16.2902V7.83331H12.2902ZM2.95687 6.49998H4.2902V3.16665H2.95687V6.49998ZM13.6235 6.49998H14.9569V3.16665H13.6235V6.49998Z" fill="#2A3EB1"/>
</g>
</g>
</svg>
