<svg width="18" height="18" viewBox="0 0 12 15" fill="none" xmlns="http://www.w3.org/2000/svg">
<path d="M5.95687 8.16671C5.30131 8.16671 4.74854 7.94171 4.29854 7.49171C3.84854 7.04171 3.62354 6.48893 3.62354 5.83337C3.62354 5.17782 3.84854 4.62504 4.29854 4.17504C4.74854 3.72504 5.30131 3.50004 5.95687 3.50004C6.61242 3.50004 7.1652 3.72504 7.6152 4.17504C8.0652 4.62504 8.2902 5.17782 8.2902 5.83337C8.2902 6.48893 8.0652 7.04171 7.6152 7.49171C7.1652 7.94171 6.61242 8.16671 5.95687 8.16671ZM5.95687 6.83337C6.24576 6.83337 6.48465 6.73893 6.67354 6.55004C6.86242 6.36115 6.95687 6.12226 6.95687 5.83337C6.95687 5.54448 6.86242 5.3056 6.67354 5.11671C6.48465 4.92782 6.24576 4.83337 5.95687 4.83337C5.66798 4.83337 5.42909 4.92782 5.2402 5.11671C5.05131 5.3056 4.95687 5.54448 4.95687 5.83337C4.95687 6.12226 5.05131 6.36115 5.2402 6.55004C5.42909 6.73893 5.66798 6.83337 5.95687 6.83337ZM5.95687 14.1667C4.41242 13.7778 3.13742 12.8917 2.13187 11.5084C1.12631 10.125 0.623535 8.58893 0.623535 6.90004V2.83337L5.95687 0.833374L11.2902 2.83337V6.90004C11.2902 8.58893 10.7874 10.125 9.78187 11.5084C8.77631 12.8917 7.50131 13.7778 5.95687 14.1667ZM5.95687 2.25004L1.95687 3.75004V6.90004C1.95687 7.50004 2.0402 8.08337 2.20687 8.65004C2.37354 9.21671 2.60131 9.75004 2.8902 10.25C3.35687 10.0167 3.84576 9.83337 4.35687 9.70004C4.86798 9.56671 5.40131 9.50004 5.95687 9.50004C6.51242 9.50004 7.04576 9.56671 7.55687 9.70004C8.06798 9.83337 8.55687 10.0167 9.02354 10.25C9.31242 9.75004 9.5402 9.21671 9.70687 8.65004C9.87354 8.08337 9.95687 7.50004 9.95687 6.90004V3.75004L5.95687 2.25004ZM5.95687 10.8334C5.55687 10.8334 5.16798 10.8778 4.7902 10.9667C4.41242 11.0556 4.05131 11.1778 3.70687 11.3334C4.02909 11.6667 4.37909 11.9556 4.75687 12.2C5.13465 12.4445 5.53465 12.6334 5.95687 12.7667C6.37909 12.6334 6.77909 12.4445 7.15687 12.2C7.53465 11.9556 7.88465 11.6667 8.20687 11.3334C7.86242 11.1778 7.50131 11.0556 7.12354 10.9667C6.74576 10.8778 6.35687 10.8334 5.95687 10.8334Z" fill="#2A3EB1"/>
</svg>
