<svg width="20" height="20" viewBox="0 0 14 12" fill="#EEEEEE" xmlns="http://www.w3.org/2000/svg">
<path d="M9.66659 12L9.46659 11C9.33325 10.9444 9.20825 10.8861 9.09159 10.825C8.97492 10.7638 8.85547 10.6888 8.73325 10.6L7.76659 10.9L7.09992 9.76663L7.86659 9.09996C7.84436 8.9444 7.83325 8.79996 7.83325 8.66663C7.83325 8.53329 7.84436 8.38885 7.86659 8.23329L7.09992 7.56663L7.76659 6.43329L8.73325 6.73329C8.85547 6.6444 8.97492 6.5694 9.09159 6.50829C9.20825 6.44718 9.33325 6.38885 9.46659 6.33329L9.66659 5.33329H10.9999L11.1999 6.33329C11.3333 6.38885 11.4583 6.44996 11.5749 6.51663C11.6916 6.58329 11.811 6.66663 11.9333 6.76663L12.8999 6.43329L13.5666 7.59996L12.7999 8.26663C12.8221 8.39996 12.8333 8.53885 12.8333 8.68329C12.8333 8.82774 12.8221 8.96663 12.7999 9.09996L13.5666 9.76663L12.8999 10.9L11.9333 10.6C11.811 10.6888 11.6916 10.7638 11.5749 10.825C11.4583 10.8861 11.3333 10.9444 11.1999 11L10.9999 12H9.66659ZM0.333252 11.3333V9.46663C0.333252 9.09996 0.427696 8.75552 0.616585 8.43329C0.805474 8.11107 1.06659 7.86663 1.39992 7.69996C1.96659 7.41107 2.60547 7.16663 3.31659 6.96663C4.0277 6.76663 4.81103 6.66663 5.66659 6.66663H5.89992C5.96659 6.66663 6.03325 6.67774 6.09992 6.69996C5.7777 7.49996 5.64436 8.2944 5.69992 9.08329C5.75547 9.87218 6.02214 10.6222 6.49992 11.3333H0.333252ZM10.3333 9.99996C10.6999 9.99996 11.0138 9.8694 11.2749 9.60829C11.536 9.34718 11.6666 9.03329 11.6666 8.66663C11.6666 8.29996 11.536 7.98607 11.2749 7.72496C11.0138 7.46385 10.6999 7.33329 10.3333 7.33329C9.96659 7.33329 9.6527 7.46385 9.39159 7.72496C9.13048 7.98607 8.99992 8.29996 8.99992 8.66663C8.99992 9.03329 9.13048 9.34718 9.39159 9.60829C9.6527 9.8694 9.96659 9.99996 10.3333 9.99996ZM5.66659 5.99996C4.93325 5.99996 4.30547 5.73885 3.78325 5.21663C3.26103 4.6944 2.99992 4.06663 2.99992 3.33329C2.99992 2.59996 3.26103 1.97218 3.78325 1.44996C4.30547 0.927737 4.93325 0.666626 5.66659 0.666626C6.39992 0.666626 7.0277 0.927737 7.54992 1.44996C8.07214 1.97218 8.33325 2.59996 8.33325 3.33329C8.33325 4.06663 8.07214 4.6944 7.54992 5.21663C7.0277 5.73885 6.39992 5.99996 5.66659 5.99996Z" 
    fill="#727CAF"/>
</svg>
