<svg width="17" height="17" viewBox="0 0 16 11" fill="none" xmlns="http://www.w3.org/2000/svg">
<path d="M0.623535 10.8333V8.96663C0.623535 8.58885 0.720757 8.24163 0.915202 7.92496C1.10965 7.60829 1.36798 7.36663 1.6902 7.19996C2.37909 6.85552 3.07909 6.59718 3.7902 6.42496C4.50131 6.25274 5.22354 6.16663 5.95687 6.16663C6.6902 6.16663 7.41242 6.25274 8.12354 6.42496C8.83465 6.59718 9.53465 6.85552 10.2235 7.19996C10.5458 7.36663 10.8041 7.60829 10.9985 7.92496C11.193 8.24163 11.2902 8.58885 11.2902 8.96663V10.8333H0.623535ZM12.6235 10.8333V8.83329C12.6235 8.3444 12.4874 7.87496 12.2152 7.42496C11.943 6.97496 11.5569 6.58885 11.0569 6.26663C11.6235 6.33329 12.1569 6.44718 12.6569 6.60829C13.1569 6.7694 13.6235 6.96663 14.0569 7.19996C14.4569 7.42218 14.7624 7.6694 14.9735 7.94163C15.1846 8.21385 15.2902 8.51107 15.2902 8.83329V10.8333H12.6235ZM5.95687 5.49996C5.22354 5.49996 4.59576 5.23885 4.07354 4.71663C3.55131 4.1944 3.2902 3.56663 3.2902 2.83329C3.2902 2.09996 3.55131 1.47218 4.07354 0.949959C4.59576 0.427737 5.22354 0.166626 5.95687 0.166626C6.6902 0.166626 7.31798 0.427737 7.8402 0.949959C8.36242 1.47218 8.62354 2.09996 8.62354 2.83329C8.62354 3.56663 8.36242 4.1944 7.8402 4.71663C7.31798 5.23885 6.6902 5.49996 5.95687 5.49996ZM12.6235 2.83329C12.6235 3.56663 12.3624 4.1944 11.8402 4.71663C11.318 5.23885 10.6902 5.49996 9.95687 5.49996C9.83465 5.49996 9.67909 5.48607 9.4902 5.45829C9.30131 5.43051 9.14576 5.39996 9.02354 5.36663C9.32354 5.01107 9.55409 4.61663 9.7152 4.18329C9.87631 3.74996 9.95687 3.29996 9.95687 2.83329C9.95687 2.36663 9.87631 1.91663 9.7152 1.48329C9.55409 1.04996 9.32354 0.655515 9.02354 0.299959C9.17909 0.244404 9.33465 0.208293 9.4902 0.191626C9.64576 0.174959 9.80131 0.166626 9.95687 0.166626C10.6902 0.166626 11.318 0.427737 11.8402 0.949959C12.3624 1.47218 12.6235 2.09996 12.6235 2.83329ZM1.95687 9.49996H9.95687V8.96663C9.95687 8.8444 9.92631 8.73329 9.8652 8.63329C9.80409 8.53329 9.72354 8.45551 9.62354 8.39996C9.02354 8.09996 8.41798 7.87496 7.80687 7.72496C7.19576 7.57496 6.57909 7.49996 5.95687 7.49996C5.33465 7.49996 4.71798 7.57496 4.10687 7.72496C3.49576 7.87496 2.8902 8.09996 2.2902 8.39996C2.1902 8.45551 2.10965 8.53329 2.04854 8.63329C1.98742 8.73329 1.95687 8.8444 1.95687 8.96663V9.49996ZM5.95687 4.16663C6.32354 4.16663 6.63742 4.03607 6.89854 3.77496C7.15965 3.51385 7.2902 3.19996 7.2902 2.83329C7.2902 2.46663 7.15965 2.15274 6.89854 1.89163C6.63742 1.63051 6.32354 1.49996 5.95687 1.49996C5.5902 1.49996 5.27631 1.63051 5.0152 1.89163C4.75409 2.15274 4.62354 2.46663 4.62354 2.83329C4.62354 3.19996 4.75409 3.51385 5.0152 3.77496C5.27631 4.03607 5.5902 4.16663 5.95687 4.16663Z" fill="#727CAF"/>
</svg>
