<svg width="13" height="15" viewBox="0 0 13 15" fill="none" xmlns="http://www.w3.org/2000/svg">
<path id="assignment" d="M2.29036 14.1667C1.9237 14.1667 1.60981 14.0362 1.3487 13.775C1.08759 13.5139 0.957031 13.2 0.957031 12.8334V3.50004C0.957031 3.13337 1.08759 2.81949 1.3487 2.55837C1.60981 2.29726 1.9237 2.16671 2.29036 2.16671H5.09036C5.23481 1.76671 5.47648 1.44449 5.81536 1.20004C6.15425 0.955596 6.53481 0.833374 6.95703 0.833374C7.37925 0.833374 7.75981 0.955596 8.0987 1.20004C8.43759 1.44449 8.67925 1.76671 8.8237 2.16671H11.6237C11.9904 2.16671 12.3043 2.29726 12.5654 2.55837C12.8265 2.81949 12.957 3.13337 12.957 3.50004V12.8334C12.957 13.2 12.8265 13.5139 12.5654 13.775C12.3043 14.0362 11.9904 14.1667 11.6237 14.1667H2.29036ZM2.29036 12.8334H11.6237V3.50004H2.29036V12.8334ZM3.6237 11.5H8.29036V10.1667H3.6237V11.5ZM3.6237 8.83337H10.2904V7.50004H3.6237V8.83337ZM3.6237 6.16671H10.2904V4.83337H3.6237V6.16671ZM6.95703 3.00004C7.10148 3.00004 7.22092 2.95282 7.31536 2.85837C7.40981 2.76393 7.45703 2.64448 7.45703 2.50004C7.45703 2.3556 7.40981 2.23615 7.31536 2.14171C7.22092 2.04726 7.10148 2.00004 6.95703 2.00004C6.81259 2.00004 6.69314 2.04726 6.5987 2.14171C6.50425 2.23615 6.45703 2.3556 6.45703 2.50004C6.45703 2.64448 6.50425 2.76393 6.5987 2.85837C6.69314 2.95282 6.81259 3.00004 6.95703 3.00004Z" fill="#727CAF"/>
</svg>
