<svg width="13" height="13" viewBox="0 0 13 13" fill="none" xmlns="http://www.w3.org/2000/svg">
<path id="square_foot" d="M2.4237 12.1724C2.01259 12.1724 1.66536 12.0307 1.38203 11.7474C1.0987 11.464 0.957031 11.1168 0.957031 10.7057V1.57237C0.957031 1.25014 1.10703 1.02514 1.40703 0.897366C1.70703 0.769588 1.96814 0.816811 2.19036 1.03903L3.69036 2.53903L2.79036 3.43903L3.25703 3.9057L4.15703 3.0057L5.89037 4.73903L4.99037 5.63903L5.45703 6.1057L6.35703 5.2057L8.09037 6.93903L7.19036 7.83903L7.65703 8.3057L8.55703 7.4057L10.2904 9.13903L9.39037 10.039L9.85703 10.5057L10.757 9.6057L12.0904 10.939C12.3126 11.1613 12.3598 11.4224 12.232 11.7224C12.1043 12.0224 11.8793 12.1724 11.557 12.1724H2.4237ZM2.95703 10.1724H8.49037L2.95703 4.63903V10.1724Z" fill="#727CAF"/>
</svg>
