<svg width="14" height="14" viewBox="0 0 14 14" fill="none" xmlns="http://www.w3.org/2000/svg">
<path d="M1.16667 8.51667L1.16667 11.9C1.16667 12.0933 1.32337 12.25 1.51667 12.25H3.73333C3.92663 12.25 4.08333 12.0933 4.08333 11.9V8.51667C4.08333 8.32337 3.92663 8.16667 3.73333 8.16667H1.51667C1.32337 8.16667 1.16667 8.32337 1.16667 8.51667Z" stroke="#666975" stroke-width="1.5"/>
<path d="M9.91667 5.30829V8.69163C9.91667 8.88493 10.0734 9.04163 10.2667 9.04163H12.4833C12.6766 9.04163 12.8333 8.88493 12.8333 8.69163V5.30829C12.8333 5.11499 12.6766 4.95829 12.4833 4.95829H10.2667C10.0734 4.95829 9.91667 5.11499 9.91667 5.30829Z" stroke="#666975" stroke-width="1.5"/>
<path d="M1.16667 2.10004L1.16667 5.48337C1.16667 5.67667 1.32337 5.83337 1.51667 5.83337H3.73333C3.92663 5.83337 4.08333 5.67667 4.08333 5.48337V2.10004C4.08333 1.90674 3.92663 1.75004 3.73333 1.75004H1.51667C1.32337 1.75004 1.16667 1.90674 1.16667 2.10004Z" stroke="#666975" stroke-width="1.5"/>
<path d="M4.08333 10.2083H6.125C6.76935 10.2083 7.29167 9.68598 7.29167 9.04163V4.95829C7.29167 4.31396 6.76935 3.79163 6.125 3.79163H4.08333" stroke="#666975" stroke-width="1.5"/>
<path d="M7.29167 7H9.91667" stroke="#666975" stroke-width="1.5"/>
</svg>
