<svg width="14" height="14" viewBox="0 0 14 14" fill="none" xmlns="http://www.w3.org/2000/svg">
<path d="M1.16669 8.51667L1.16669 11.9C1.16669 12.0933 1.32339 12.25 1.51669 12.25H3.73335C3.92665 12.25 4.08335 12.0933 4.08335 11.9V8.51667C4.08335 8.32337 3.92665 8.16667 3.73335 8.16667H1.51669C1.32339 8.16667 1.16669 8.32337 1.16669 8.51667Z" stroke="#2B40B4" stroke-width="1.5"/>
<path d="M9.91669 5.30835V8.69169C9.91669 8.88499 10.0734 9.04169 10.2667 9.04169H12.4834C12.6767 9.04169 12.8334 8.88499 12.8334 8.69169V5.30835C12.8334 5.11505 12.6767 4.95835 12.4834 4.95835H10.2667C10.0734 4.95835 9.91669 5.11505 9.91669 5.30835Z" stroke="#2B40B4" stroke-width="1.5"/>
<path d="M1.16669 2.09998L1.16669 5.48331C1.16669 5.67661 1.32339 5.83331 1.51669 5.83331H3.73335C3.92665 5.83331 4.08335 5.67661 4.08335 5.48331V2.09998C4.08335 1.90668 3.92665 1.74998 3.73335 1.74998H1.51669C1.32339 1.74998 1.16669 1.90668 1.16669 2.09998Z" stroke="#2B40B4" stroke-width="1.5"/>
<path d="M4.08331 10.2084H6.12498C6.76933 10.2084 7.29165 9.68604 7.29165 9.04169V4.95835C7.29165 4.31402 6.76933 3.79169 6.12498 3.79169H4.08331" stroke="#2B40B4" stroke-width="1.5"/>
<path d="M7.29169 7H9.91669" stroke="#2B40B4" stroke-width="1.5"/>
</svg>
