<svg width="13" height="14" viewBox="0 0 13 14" fill="none" xmlns="http://www.w3.org/2000/svg">
<path d="M5.6237 9.83333H8.29037V8.5H5.6237V9.83333ZM5.6237 7.16667H10.2904V5.83333H5.6237V7.16667ZM3.6237 4.5H10.2904V3.16667H3.6237V4.5ZM3.3737 13.1667C2.49592 13.1667 1.7487 12.8583 1.13203 12.2417C0.515365 11.625 0.207031 10.8778 0.207031 10C0.207031 9.36667 0.37092 8.8 0.698698 8.3C1.02648 7.8 1.45703 7.42222 1.99036 7.16667H0.290365V5.83333H4.29036V9.83333H2.95703V8.21667C2.54592 8.30556 2.20703 8.51667 1.94036 8.85C1.6737 9.18333 1.54036 9.56667 1.54036 10C1.54036 10.5111 1.72092 10.9444 2.08203 11.3C2.44314 11.6556 2.8737 11.8333 3.3737 11.8333V13.1667ZM5.6237 12.5V11.1667H11.6237V1.83333H2.29036V4.5H0.957031V1.83333C0.957031 1.46667 1.08759 1.15278 1.3487 0.891667C1.60981 0.630556 1.9237 0.5 2.29036 0.5H11.6237C11.9904 0.5 12.3043 0.630556 12.5654 0.891667C12.8265 1.15278 12.957 1.46667 12.957 1.83333V11.1667C12.957 11.5333 12.8265 11.8472 12.5654 12.1083C12.3043 12.3694 11.9904 12.5 11.6237 12.5H5.6237Z" fill="#727CAF"/>
</svg>
