<svg width="15" height="15" viewBox="0 0 15 15" fill="none" xmlns="http://www.w3.org/2000/svg">
<path d="M4.95703 5.50001V4.16668H10.957V5.50001H4.95703ZM4.95703 7.50001V6.16668H10.957V7.50001H4.95703ZM6.95703 14.1667H2.95703C2.40148 14.1667 1.92925 13.9722 1.54036 13.5833C1.15148 13.1945 0.957031 12.7222 0.957031 12.1667V10.1667H2.95703V0.833344H12.957V6.85001C12.7348 6.82779 12.5098 6.83612 12.282 6.87501C12.0543 6.9139 11.8348 6.98334 11.6237 7.08334V2.16668H4.29036V10.1667H8.29036L6.95703 11.5H2.29036V12.1667C2.29036 12.3556 2.35425 12.5139 2.48203 12.6417C2.60981 12.7695 2.76814 12.8333 2.95703 12.8333H6.95703V14.1667ZM8.29036 14.1667V12.1167L11.9737 8.45001C12.0737 8.35001 12.1848 8.27779 12.307 8.23334C12.4293 8.1889 12.5515 8.16668 12.6737 8.16668C12.807 8.16668 12.9348 8.19168 13.057 8.24168C13.1793 8.29168 13.2904 8.36668 13.3904 8.46668L14.007 9.08334C14.0959 9.18334 14.1654 9.29445 14.2154 9.41668C14.2654 9.5389 14.2904 9.66112 14.2904 9.78334C14.2904 9.90557 14.2681 10.0306 14.2237 10.1583C14.1793 10.2861 14.107 10.4 14.007 10.5L10.3404 14.1667H8.29036ZM9.29036 13.1667H9.9237L11.9404 11.1333L11.6404 10.8167L11.3237 10.5167L9.29036 12.5333V13.1667ZM11.6404 10.8167L11.3237 10.5167L11.9404 11.1333L11.6404 10.8167Z" fill="#2A3EB1"/>
</svg>
