<svg width="14" height="15" viewBox="0 0 14 15" fill="none" xmlns="http://www.w3.org/2000/svg">
<path d="M6.95726 14.1833C6.77948 14.1833 6.61004 14.15 6.44893 14.0833C6.28782 14.0167 6.14059 13.9222 6.00726 13.8L0.657259 8.45002C0.535037 8.31668 0.440592 8.16946 0.373926 8.00835C0.307259 7.84724 0.273926 7.67779 0.273926 7.50001C0.273926 7.32224 0.307259 7.15001 0.373926 6.98335C0.440592 6.81668 0.535037 6.67224 0.657259 6.55001L6.00726 1.20001C6.14059 1.06668 6.28782 0.969459 6.44893 0.908348C6.61004 0.847236 6.77948 0.816681 6.95726 0.816681C7.13504 0.816681 7.30726 0.847236 7.47393 0.908348C7.64059 0.969459 7.78504 1.06668 7.90726 1.20001L13.2573 6.55001C13.3906 6.67224 13.4878 6.81668 13.5489 6.98335C13.61 7.15001 13.6406 7.32224 13.6406 7.50001C13.6406 7.67779 13.61 7.84724 13.5489 8.00835C13.4878 8.16946 13.3906 8.31668 13.2573 8.45002L7.90726 13.8C7.78504 13.9222 7.64059 14.0167 7.47393 14.0833C7.30726 14.15 7.13504 14.1833 6.95726 14.1833ZM6.95726 12.85L12.3073 7.50001L6.95726 2.15001L1.60726 7.50001L6.95726 12.85ZM6.29059 8.16668H7.62393V4.16668H6.29059V8.16668ZM6.95726 10.1667C7.14615 10.1667 7.30448 10.1028 7.43226 9.97502C7.56004 9.84724 7.62393 9.6889 7.62393 9.50002C7.62393 9.31113 7.56004 9.15279 7.43226 9.02501C7.30448 8.89724 7.14615 8.83335 6.95726 8.83335C6.76837 8.83335 6.61004 8.89724 6.48226 9.02501C6.35448 9.15279 6.29059 9.31113 6.29059 9.50002C6.29059 9.6889 6.35448 9.84724 6.48226 9.97502C6.61004 10.1028 6.76837 10.1667 6.95726 10.1667Z" fill="#727CAF"/>
</svg>
