<svg width="13" height="12" viewBox="0 0 13 12" fill="none" xmlns="http://www.w3.org/2000/svg">
<path d="M0.5 9.45684V8.27474H2.12539L1.88897 8.06787C1.37673 7.61473 1.01717 7.09756 0.810303 6.51636C0.603434 5.93515 0.5 5.34903 0.5 4.75797C0.5 3.66453 0.827542 2.69175 1.48263 1.83965C2.13771 0.98755 2.99227 0.423588 4.04632 0.147763V1.38897C3.33705 1.6451 2.7657 2.081 2.33226 2.69668C1.89882 3.31236 1.68211 3.99946 1.68211 4.75797C1.68211 5.20126 1.76584 5.63224 1.9333 6.0509C2.10077 6.46956 2.36182 6.85621 2.71645 7.21084L2.86421 7.3586V5.91053H4.04632V9.45684H0.5ZM11.0946 4.13737H9.89774C9.84848 3.79259 9.74259 3.46258 9.58005 3.14736C9.41751 2.83213 9.19833 2.53168 8.9225 2.246L8.77474 2.09824V3.54632H7.59263V0H11.1389V1.18211H9.51355L9.74997 1.38897C10.1539 1.80271 10.4642 2.24107 10.6809 2.70407C10.8976 3.16706 11.0355 3.64482 11.0946 4.13737ZM8.77474 11.23L8.59742 10.3434C8.47921 10.2942 8.36839 10.2425 8.26495 10.1883C8.16152 10.1341 8.05562 10.0676 7.94726 9.98879L7.09024 10.2548L6.49918 9.24997L7.17889 8.65892C7.15919 8.52101 7.14934 8.39295 7.14934 8.27474C7.14934 8.15653 7.15919 8.02847 7.17889 7.89055L6.49918 7.2995L7.09024 6.29471L7.94726 6.56068C8.05562 6.48188 8.16152 6.41538 8.26495 6.3612C8.36839 6.30702 8.47921 6.25531 8.59742 6.20605L8.77474 5.31947H9.95684L10.1342 6.20605C10.2524 6.25531 10.3632 6.30949 10.4666 6.36859C10.5701 6.4277 10.676 6.50158 10.7843 6.59024L11.6413 6.29471L12.2324 7.32905L11.5527 7.92011C11.5724 8.03832 11.5822 8.16145 11.5822 8.28951C11.5822 8.41757 11.5724 8.54071 11.5527 8.65892L12.2324 9.24997L11.6413 10.2548L10.7843 9.98879C10.676 10.0676 10.5701 10.1341 10.4666 10.1883C10.3632 10.2425 10.2524 10.2942 10.1342 10.3434L9.95684 11.23H8.77474ZM9.36579 9.45684C9.69087 9.45684 9.96916 9.34109 10.2007 9.1096C10.4321 8.8781 10.5479 8.59982 10.5479 8.27474C10.5479 7.94966 10.4321 7.67137 10.2007 7.43988C9.96916 7.20838 9.69087 7.09263 9.36579 7.09263C9.04071 7.09263 8.76242 7.20838 8.53093 7.43988C8.29943 7.67137 8.18368 7.94966 8.18368 8.27474C8.18368 8.59982 8.29943 8.8781 8.53093 9.1096C8.76242 9.34109 9.04071 9.45684 9.36579 9.45684Z" fill="#2A3EB1"/>
</svg>
