<svg width="15" height="15" viewBox="0 0 15 15" fill="none" xmlns="http://www.w3.org/2000/svg">
<path d="M0.957031 5.16667V1.16667H2.29036V2.73333C2.85703 2.02222 3.5487 1.47222 4.36536 1.08333C5.18203 0.694444 6.04592 0.5 6.95703 0.5C8.6237 0.5 10.0404 1.08333 11.207 2.25C12.3737 3.41667 12.957 4.83333 12.957 6.5H11.6237C11.6237 5.2 11.1709 4.09722 10.2654 3.19167C9.35981 2.28611 8.25703 1.83333 6.95703 1.83333C6.19036 1.83333 5.4737 2.01111 4.80703 2.36667C4.14036 2.72222 3.57925 3.21111 3.1237 3.83333H4.95703V5.16667H0.957031ZM0.990365 7.16667H2.35703C2.49036 8.2 2.91536 9.075 3.63203 9.79167C4.3487 10.5083 5.20703 10.9444 6.20703 11.1L7.00703 12.5C5.4737 12.5 4.12925 11.9917 2.9737 10.975C1.81814 9.95833 1.15703 8.68889 0.990365 7.16667ZM7.85703 8.33333L6.29036 6.76667V3.16667H7.6237V6.23333L8.55703 7.16667L7.85703 8.33333ZM10.9404 14.5L10.7404 13.5C10.607 13.4444 10.482 13.3861 10.3654 13.325C10.2487 13.2639 10.1293 13.1889 10.007 13.1L9.04037 13.4L8.3737 12.2667L9.14037 11.6C9.11814 11.4556 9.10703 11.3111 9.10703 11.1667C9.10703 11.0222 9.11814 10.8778 9.14037 10.7333L8.3737 10.0667L9.04037 8.93333L10.007 9.23333C10.1293 9.14445 10.2487 9.06944 10.3654 9.00833C10.482 8.94722 10.607 8.88889 10.7404 8.83333L10.9404 7.83333H12.2737L12.4737 8.83333C12.607 8.88889 12.7348 8.95278 12.857 9.025C12.9793 9.09722 13.0959 9.17778 13.207 9.26667L14.1737 8.93333L14.8404 10.1L14.0737 10.7667C14.0959 10.9111 14.107 11.05 14.107 11.1833C14.107 11.3167 14.0959 11.4556 14.0737 11.6L14.8404 12.2667L14.1737 13.4L13.207 13.1C13.0848 13.1889 12.9654 13.2639 12.8487 13.325C12.732 13.3861 12.607 13.4444 12.4737 13.5L12.2737 14.5H10.9404ZM11.607 12.5C11.9737 12.5 12.2876 12.3694 12.5487 12.1083C12.8098 11.8472 12.9404 11.5333 12.9404 11.1667C12.9404 10.8 12.8098 10.4861 12.5487 10.225C12.2876 9.96389 11.9737 9.83333 11.607 9.83333C11.2404 9.83333 10.9265 9.96389 10.6654 10.225C10.4043 10.4861 10.2737 10.8 10.2737 11.1667C10.2737 11.5333 10.4043 11.8472 10.6654 12.1083C10.9265 12.3694 11.2404 12.5 11.607 12.5Z" fill="#2A3EB1"/>
</svg>
