<svg width="14" height="13" viewBox="0 0 14 13" fill="none" xmlns="http://www.w3.org/2000/svg">
<path d="M1.62386 12.5C1.25719 12.5 0.943305 12.3694 0.682194 12.1083C0.421083 11.8472 0.290527 11.5333 0.290527 11.1667V1.83333C0.290527 1.46667 0.421083 1.15278 0.682194 0.891667C0.943305 0.630556 1.25719 0.5 1.62386 0.5H12.2905C12.6572 0.5 12.9711 0.630556 13.2322 0.891667C13.4933 1.15278 13.6239 1.46667 13.6239 1.83333V11.1667C13.6239 11.5333 13.4933 11.8472 13.2322 12.1083C12.9711 12.3694 12.6572 12.5 12.2905 12.5H1.62386ZM1.62386 11.1667H12.2905V1.83333H1.62386V11.1667ZM2.29053 9.83333H5.62386V8.5H2.29053V9.83333ZM8.65719 8.5L11.9572 5.2L11.0072 4.25L8.65719 6.61667L7.70719 5.66667L6.77386 6.61667L8.65719 8.5ZM2.29053 7.16667H5.62386V5.83333H2.29053V7.16667ZM2.29053 4.5H5.62386V3.16667H2.29053V4.5Z" fill="#727CAF"/>
</svg>
