<svg width="17" height="17" viewBox="0 0 17 15" fill="none" xmlns="http://www.w3.org/2000/svg">
<path d="M5.35703 9.89999H6.55703V6.69999H5.35703V7.69999H4.15703V8.89999H5.35703V9.89999ZM7.35703 8.89999H13.757V7.69999H7.35703V8.89999ZM11.357 6.69999H12.557V5.69999H13.757V4.49999H12.557V3.49999H11.357V6.69999ZM4.15703 5.69999H10.557V4.49999H4.15703V5.69999ZM5.75703 14.7V13.1H2.55703C2.11703 13.1 1.74036 12.9433 1.42703 12.63C1.1137 12.3167 0.957031 11.94 0.957031 11.5V1.89999C0.957031 1.45999 1.1137 1.08332 1.42703 0.769988C1.74036 0.456654 2.11703 0.299988 2.55703 0.299988H15.357C15.797 0.299988 16.1737 0.456654 16.487 0.769988C16.8004 1.08332 16.957 1.45999 16.957 1.89999V11.5C16.957 11.94 16.8004 12.3167 16.487 12.63C16.1737 12.9433 15.797 13.1 15.357 13.1H12.157V14.7H5.75703ZM2.55703 11.5H15.357V1.89999H2.55703V11.5Z" fill="#727CAF"/>
</svg>
