<svg width="17" height="17" viewBox="0 0 14 11" fill="none" xmlns="http://www.w3.org/2000/svg">
<path d="M5.62386 8.83335H11.6239V4.83335H5.62386V8.83335ZM1.62386 10.8334C1.25719 10.8334 0.943305 10.7028 0.682194 10.4417C0.421083 10.1806 0.290527 9.86669 0.290527 9.50002V1.50002C0.290527 1.13335 0.421083 0.819465 0.682194 0.558354C0.943305 0.297243 1.25719 0.166687 1.62386 0.166687H12.2905C12.6572 0.166687 12.9711 0.297243 13.2322 0.558354C13.4933 0.819465 13.6239 1.13335 13.6239 1.50002V9.50002C13.6239 9.86669 13.4933 10.1806 13.2322 10.4417C12.9711 10.7028 12.6572 10.8334 12.2905 10.8334H1.62386ZM1.62386 9.50002H12.2905V1.50002H1.62386V9.50002Z" fill="#727CAF"/>
</svg>
