<svg width="17" height="17" viewBox="0 0 12 15" fill="none" xmlns="http://www.w3.org/2000/svg">
<path d="M3.2902 7.49998V6.16665H8.62354V7.49998H3.2902ZM3.2902 4.83331V3.49998H8.62354V4.83331H3.2902ZM1.95687 8.83331H6.95687C7.27909 8.83331 7.57909 8.90276 7.85687 9.04165C8.13465 9.18053 8.36798 9.37776 8.55687 9.63331L9.95687 11.4666V2.16665H1.95687V8.83331ZM1.95687 12.8333H9.32354L7.50687 10.45C7.4402 10.3611 7.35965 10.2916 7.2652 10.2416C7.17076 10.1916 7.06798 10.1666 6.95687 10.1666H1.95687V12.8333ZM9.95687 14.1666H1.95687C1.5902 14.1666 1.27631 14.0361 1.0152 13.775C0.754091 13.5139 0.623535 13.2 0.623535 12.8333V2.16665C0.623535 1.79998 0.754091 1.48609 1.0152 1.22498C1.27631 0.963869 1.5902 0.833313 1.95687 0.833313H9.95687C10.3235 0.833313 10.6374 0.963869 10.8985 1.22498C11.1596 1.48609 11.2902 1.79998 11.2902 2.16665V12.8333C11.2902 13.2 11.1596 13.5139 10.8985 13.775C10.6374 14.0361 10.3235 14.1666 9.95687 14.1666Z" fill="#727CAF"/>
</svg>
