<svg width="14" height="13" viewBox="0 0 14 13" fill="none" xmlns="http://www.w3.org/2000/svg">
<path d="M3.95719 8.5H4.95719V5.83333H3.95719V6.66667H2.95719V7.66667H3.95719V8.5ZM5.62386 7.66667H10.9572V6.66667H5.62386V7.66667ZM8.95719 5.83333H9.95719V5H10.9572V4H9.95719V3.16667H8.95719V5.83333ZM2.95719 5H8.29053V4H2.95719V5ZM4.29053 12.5V11.1667H1.62386C1.25719 11.1667 0.943305 11.0361 0.682194 10.775C0.421083 10.5139 0.290527 10.2 0.290527 9.83333V1.83333C0.290527 1.46667 0.421083 1.15278 0.682194 0.891667C0.943305 0.630556 1.25719 0.5 1.62386 0.5H12.2905C12.6572 0.5 12.9711 0.630556 13.2322 0.891667C13.4933 1.15278 13.6239 1.46667 13.6239 1.83333V9.83333C13.6239 10.2 13.4933 10.5139 13.2322 10.775C12.9711 11.0361 12.6572 11.1667 12.2905 11.1667H9.62386V12.5H4.29053ZM1.62386 9.83333H12.2905V1.83333H1.62386V9.83333Z" fill="#727CAF"/>
</svg>
