<svg width="21" height="17" viewBox="0 0 21 17" fill="none" xmlns="http://www.w3.org/2000/svg">
<path id="&#238;&#166;&#155;" d="M3.62443 12.0983H4.39298C4.50167 12.0983 4.59483 12.0905 4.67246 12.075C4.76562 12.0594 4.84325 12.0439 4.90536 12.0284C4.98299 11.9973 5.05286 11.9663 5.11496 11.9352C5.17707 11.8886 5.23141 11.8343 5.27799 11.7722C5.30905 11.7411 5.3401 11.7023 5.37115 11.6557C5.4022 11.5936 5.43326 11.5315 5.46431 11.4694C5.47984 11.4073 5.49536 11.3452 5.51089 11.2831C5.52642 11.2055 5.53418 11.1279 5.53418 11.0502C5.53418 10.9726 5.52642 10.9027 5.51089 10.8406C5.49536 10.7785 5.47984 10.7164 5.46431 10.6543C5.43326 10.5922 5.4022 10.5378 5.37115 10.4913C5.3401 10.4292 5.30905 10.3826 5.27799 10.3515C5.23141 10.3049 5.17707 10.2661 5.11496 10.2351C5.06839 10.204 5.01404 10.173 4.95194 10.1419C4.88983 10.1264 4.81996 10.1109 4.74233 10.0953C4.6647 10.0798 4.58707 10.0721 4.50943 10.0721C4.4318 10.0721 4.35417 10.0798 4.27654 10.0953C4.21443 10.0953 4.15232 10.1109 4.09022 10.1419C4.04364 10.1574 3.9893 10.1807 3.92719 10.2118C3.88061 10.2428 3.83403 10.2739 3.78745 10.3049C3.74087 10.3515 3.69429 10.3981 3.64772 10.4447C3.61666 10.4913 3.58561 10.5378 3.55456 10.5844C3.53903 10.6465 3.5235 10.7086 3.50798 10.7707C3.49245 10.8173 3.48469 10.8794 3.48469 10.9571H2.08731C2.08731 10.8018 2.09507 10.6543 2.1106 10.5146C2.14165 10.3748 2.18823 10.2506 2.25034 10.1419C2.31244 10.0177 2.38231 9.90126 2.45994 9.79258C2.5531 9.68389 2.65402 9.58297 2.76271 9.48981C2.87139 9.41218 2.98784 9.34231 3.11205 9.2802C3.23626 9.20257 3.376 9.14047 3.53127 9.09389C3.67101 9.04731 3.81851 9.00849 3.97377 8.97744C4.12904 8.94639 4.29206 8.93086 4.46285 8.93086C4.64917 8.93086 4.81996 8.94639 4.97523 8.97744C5.14602 8.99296 5.30905 9.02402 5.46431 9.0706C5.61957 9.11718 5.75931 9.17928 5.88352 9.25691C6.02326 9.31902 6.14747 9.38889 6.25616 9.46652C6.34932 9.55968 6.43471 9.6606 6.51234 9.76929C6.6055 9.87797 6.68314 10.0022 6.74524 10.1419C6.80735 10.2661 6.85393 10.4059 6.88498 10.5611C6.91603 10.7009 6.93156 10.8561 6.93156 11.0269C6.93156 11.1046 6.9238 11.1822 6.90827 11.2598C6.89274 11.3375 6.87722 11.4151 6.86169 11.4927C6.83064 11.5704 6.79958 11.648 6.76853 11.7256C6.73748 11.8033 6.69866 11.8731 6.65208 11.9352C6.6055 12.0129 6.55116 12.0827 6.48905 12.1448C6.44248 12.2069 6.38037 12.269 6.30274 12.3312C6.24063 12.3777 6.17076 12.4321 6.09313 12.4942C6.0155 12.5408 5.9301 12.5796 5.83694 12.6106C5.94563 12.6572 6.03879 12.7038 6.11642 12.7504C6.20958 12.7969 6.29497 12.8435 6.37261 12.8901C6.45024 12.9522 6.52011 13.0221 6.58221 13.0997C6.64432 13.1618 6.69866 13.2239 6.74524 13.286C6.79182 13.3637 6.83064 13.4413 6.86169 13.5189C6.90827 13.5966 6.94708 13.682 6.97814 13.7751C6.99366 13.8683 7.00919 13.9614 7.02472 14.0546C7.04024 14.1477 7.04801 14.2409 7.04801 14.3341C7.04801 14.5049 7.02472 14.6679 6.97814 14.8231C6.94708 14.9784 6.90051 15.1181 6.8384 15.2424C6.77629 15.3821 6.69866 15.5063 6.6055 15.615C6.51234 15.7237 6.41142 15.8246 6.30274 15.9178C6.19405 16.0109 6.06984 16.0963 5.9301 16.1739C5.79036 16.2361 5.64286 16.2904 5.4876 16.337C5.33233 16.3991 5.16931 16.4457 4.99852 16.4767C4.82773 16.4922 4.64917 16.5 4.46285 16.5C4.30759 16.5 4.15232 16.4922 3.99706 16.4767C3.8418 16.4457 3.69429 16.4068 3.55456 16.3603C3.39929 16.3137 3.25179 16.2593 3.11205 16.1972C2.98784 16.1351 2.87139 16.0575 2.76271 15.9643C2.6385 15.8867 2.52981 15.7935 2.43665 15.6849C2.34349 15.5762 2.26586 15.452 2.20376 15.3122C2.12612 15.188 2.07178 15.0483 2.04073 14.893C2.00968 14.7377 1.99415 14.567 1.99415 14.3806H3.39153C3.39153 14.4583 3.39929 14.5281 3.41482 14.5902C3.43035 14.6524 3.45363 14.7145 3.48469 14.7766C3.50021 14.8387 3.5235 14.9008 3.55456 14.9629C3.60114 15.0095 3.65548 15.0483 3.71758 15.0793C3.76416 15.1259 3.81074 15.1725 3.85732 15.2191C3.91943 15.2501 3.9893 15.2734 4.06693 15.2889C4.12904 15.32 4.19114 15.3433 4.25325 15.3588C4.33088 15.3588 4.41627 15.3588 4.50943 15.3588C4.58707 15.3588 4.6647 15.3588 4.74233 15.3588C4.83549 15.3433 4.92088 15.32 4.99852 15.2889C5.06062 15.2579 5.12273 15.2268 5.18483 15.1958C5.24694 15.1647 5.30128 15.1181 5.34786 15.056C5.39444 15.025 5.43326 14.9862 5.46431 14.9396C5.51089 14.8775 5.54194 14.8154 5.55747 14.7533C5.58852 14.6756 5.61181 14.6058 5.62734 14.5437C5.64286 14.466 5.65063 14.3884 5.65063 14.3108C5.65063 14.2176 5.64286 14.1322 5.62734 14.0546C5.61181 13.9614 5.58852 13.876 5.55747 13.7984C5.52642 13.7363 5.4876 13.6742 5.44102 13.6121C5.40997 13.55 5.36339 13.4956 5.30128 13.4491C5.2547 13.4025 5.1926 13.3637 5.11496 13.3326C5.05286 13.3016 4.98299 13.2783 4.90536 13.2627C4.82773 13.2317 4.74233 13.2162 4.64917 13.2162C4.57154 13.2006 4.48614 13.1929 4.39298 13.1929H3.62443V12.0983ZM12.1484 8.97744V10.1419H12.0786C11.8923 10.1419 11.7137 10.1574 11.5429 10.1885C11.3876 10.204 11.2324 10.2351 11.0771 10.2817C10.9374 10.3438 10.8054 10.4059 10.6812 10.468C10.5725 10.5301 10.4638 10.6077 10.3551 10.7009C10.262 10.794 10.1766 10.895 10.099 11.0036C10.0213 11.1123 9.95145 11.2288 9.88935 11.353C9.82724 11.4772 9.7729 11.6092 9.72632 11.7489C9.69527 11.8886 9.67198 12.0361 9.65645 12.1914C9.70303 12.1448 9.74961 12.0983 9.79619 12.0517C9.84277 12.0051 9.88935 11.9663 9.93593 11.9352C9.9825 11.8886 10.0368 11.8498 10.099 11.8188C10.1611 11.7722 10.2232 11.7334 10.2853 11.7023C10.3474 11.6713 10.4095 11.648 10.4716 11.6325C10.5337 11.6014 10.6036 11.5704 10.6812 11.5393C10.7588 11.5238 10.8365 11.516 10.9141 11.516C10.9917 11.5005 11.0771 11.4927 11.1703 11.4927C11.3411 11.4927 11.5041 11.5082 11.6594 11.5393C11.8146 11.5704 11.9544 11.6169 12.0786 11.679C12.2028 11.7567 12.3192 11.8421 12.4279 11.9352C12.5521 12.0129 12.6531 12.106 12.7307 12.2147C12.8238 12.3389 12.9015 12.4709 12.9636 12.6106C13.0257 12.7348 13.08 12.8746 13.1266 13.0298C13.1732 13.1696 13.2042 13.3248 13.2198 13.4956C13.2508 13.6509 13.2663 13.8062 13.2663 13.9614C13.2663 14.1477 13.2508 14.3263 13.2198 14.4971C13.1887 14.6524 13.1421 14.8076 13.08 14.9629C13.0179 15.1181 12.9481 15.2656 12.8704 15.4054C12.7928 15.5296 12.6996 15.646 12.5909 15.7547C12.4823 15.8789 12.3658 15.9876 12.2416 16.0808C12.1174 16.1584 11.9777 16.2283 11.8224 16.2904C11.6671 16.3525 11.5041 16.4068 11.3333 16.4534C11.1625 16.4845 10.984 16.5 10.7976 16.5C10.6113 16.5 10.425 16.4845 10.2387 16.4534C10.0679 16.4068 9.89711 16.3447 9.72632 16.2671C9.57105 16.1895 9.42355 16.1041 9.28381 16.0109C9.1596 15.9022 9.04315 15.7858 8.93447 15.6616C8.82578 15.5374 8.72486 15.3976 8.6317 15.2424C8.55407 15.0871 8.4842 14.9241 8.4221 14.7533C8.35999 14.567 8.31341 14.3806 8.28236 14.1943C8.25131 13.9925 8.23578 13.7906 8.23578 13.5888V13.0298C8.23578 12.7504 8.25131 12.4787 8.28236 12.2147C8.32894 11.9352 8.39881 11.6713 8.49197 11.4229C8.5696 11.1744 8.66276 10.9415 8.77144 10.7242C8.89565 10.5068 9.03539 10.3127 9.19066 10.1419C9.34592 9.9556 9.51671 9.79258 9.70303 9.65284C9.90487 9.5131 10.1222 9.38889 10.3551 9.2802C10.588 9.18705 10.8365 9.11718 11.1004 9.0706C11.3644 9.00849 11.6516 8.97744 11.9621 8.97744H12.1484ZM10.7511 12.6106C10.689 12.6106 10.6269 12.6184 10.5647 12.6339C10.5026 12.6339 10.4405 12.6494 10.3784 12.6805C10.3163 12.696 10.2542 12.7193 10.1921 12.7504C10.1455 12.7659 10.099 12.7969 10.0524 12.8435C10.0058 12.8746 9.95922 12.9056 9.91264 12.9367C9.88158 12.9677 9.85053 13.0065 9.81948 13.0531C9.78842 13.0997 9.75737 13.1463 9.72632 13.1929C9.69527 13.2394 9.67198 13.286 9.65645 13.3326V13.7518C9.65645 13.8916 9.66421 14.0235 9.67974 14.1477C9.69527 14.2564 9.71079 14.3574 9.72632 14.4505C9.75737 14.5592 9.78842 14.6524 9.81948 14.73C9.86606 14.8076 9.91264 14.8853 9.95922 14.9629C10.0213 15.025 10.0757 15.0793 10.1222 15.1259C10.1843 15.1725 10.2542 15.2191 10.3319 15.2656C10.394 15.2967 10.4638 15.32 10.5415 15.3355C10.6191 15.351 10.6967 15.3588 10.7744 15.3588C10.852 15.3588 10.9296 15.351 11.0072 15.3355C11.0849 15.32 11.1548 15.2967 11.2169 15.2656C11.2945 15.2191 11.3566 15.1725 11.4032 15.1259C11.4653 15.0793 11.5196 15.025 11.5662 14.9629C11.6128 14.9008 11.6516 14.8387 11.6827 14.7766C11.7292 14.6989 11.7603 14.6213 11.7758 14.5437C11.8069 14.4505 11.8302 14.3651 11.8457 14.2875C11.8612 14.1943 11.869 14.0934 11.869 13.9847C11.869 13.8916 11.8612 13.7984 11.8457 13.7052C11.8302 13.6121 11.8069 13.5267 11.7758 13.4491C11.7603 13.3559 11.7292 13.2783 11.6827 13.2162C11.6516 13.1385 11.6128 13.0687 11.5662 13.0065C11.5196 12.9444 11.4653 12.8901 11.4032 12.8435C11.3566 12.7969 11.2945 12.7581 11.2169 12.7271C11.1548 12.6805 11.0849 12.6494 11.0072 12.6339C10.9296 12.6184 10.8442 12.6106 10.7511 12.6106ZM19.4148 13.5888C19.4148 13.8217 19.3993 14.0468 19.3682 14.2642C19.3372 14.466 19.2984 14.6601 19.2518 14.8464C19.1897 15.0328 19.1198 15.2035 19.0422 15.3588C18.9646 15.4985 18.8792 15.6305 18.786 15.7547C18.6773 15.8789 18.5609 15.9876 18.4367 16.0808C18.3124 16.1739 18.1727 16.2516 18.0174 16.3137C17.8777 16.3758 17.7224 16.4224 17.5516 16.4534C17.3809 16.4845 17.2101 16.5 17.0393 16.5C16.853 16.5 16.6744 16.4845 16.5036 16.4534C16.3328 16.4224 16.1776 16.3758 16.0378 16.3137C15.8826 16.2516 15.7428 16.1739 15.6186 16.0808C15.4944 15.9876 15.3857 15.8789 15.2925 15.7547C15.1839 15.6305 15.0829 15.4985 14.9898 15.3588C14.9122 15.2035 14.85 15.0328 14.8035 14.8464C14.7414 14.6601 14.6948 14.466 14.6637 14.2642C14.6482 14.0468 14.6404 13.8217 14.6404 13.5888V11.8421C14.6404 11.5936 14.6482 11.3685 14.6637 11.1667C14.6948 10.9648 14.7414 10.7707 14.8035 10.5844C14.85 10.3981 14.9122 10.2351 14.9898 10.0953C15.0829 9.94008 15.1761 9.80034 15.2693 9.67613C15.3779 9.55192 15.4944 9.44323 15.6186 9.35007C15.7428 9.25691 15.8748 9.17928 16.0145 9.11718C16.1698 9.05507 16.3251 9.00849 16.4803 8.97744C16.6511 8.94639 16.8297 8.93086 17.016 8.93086C17.2023 8.93086 17.3809 8.94639 17.5516 8.97744C17.7224 9.00849 17.8777 9.05507 18.0174 9.11718C18.1727 9.17928 18.3124 9.25691 18.4367 9.35007C18.5609 9.44323 18.6773 9.55192 18.786 9.67613C18.8792 9.80034 18.9646 9.94008 19.0422 10.0953C19.1198 10.2351 19.1897 10.3981 19.2518 10.5844C19.2984 10.7707 19.3372 10.9648 19.3682 11.1667C19.3993 11.3685 19.4148 11.5936 19.4148 11.8421V13.5888ZM16.0378 12.9833L17.9942 11.5393C17.9942 11.3996 17.9864 11.2676 17.9709 11.1434C17.9553 11.0192 17.932 10.9105 17.901 10.8173C17.8855 10.7242 17.8544 10.6388 17.8078 10.5611C17.7768 10.4835 17.738 10.4136 17.6914 10.3515C17.6448 10.3049 17.5982 10.2661 17.5516 10.2351C17.5051 10.1885 17.4507 10.1574 17.3886 10.1419C17.342 10.1109 17.2877 10.0953 17.2256 10.0953C17.1635 10.0798 17.0936 10.0721 17.016 10.0721C16.9384 10.0721 16.8607 10.0798 16.7831 10.0953C16.721 10.1109 16.6589 10.1342 16.5968 10.1652C16.5347 10.1963 16.4803 10.2351 16.4337 10.2817C16.3872 10.3127 16.3406 10.3593 16.294 10.4214C16.263 10.4835 16.2241 10.5611 16.1776 10.6543C16.1465 10.7319 16.1232 10.8173 16.1077 10.9105C16.0922 11.0036 16.0766 11.1123 16.0611 11.2365C16.0456 11.3452 16.0378 11.4694 16.0378 11.6092V12.4243C16.0378 12.5019 16.0378 12.5718 16.0378 12.6339C16.0378 12.6805 16.0378 12.7193 16.0378 12.7504C16.0378 12.7814 16.0378 12.8202 16.0378 12.8668C16.0378 12.8979 16.0378 12.9367 16.0378 12.9833ZM17.9942 13.7984V12.96C17.9942 12.8979 17.9942 12.8513 17.9942 12.8202C17.9942 12.7737 17.9942 12.7348 17.9942 12.7038C17.9942 12.6883 17.9942 12.665 17.9942 12.6339C17.9942 12.5873 17.9942 12.5408 17.9942 12.4942L16.0378 13.9381C16.0533 14.0468 16.0611 14.1555 16.0611 14.2642C16.0766 14.3574 16.0922 14.4427 16.1077 14.5204C16.1232 14.6135 16.1465 14.6989 16.1776 14.7766C16.2086 14.8387 16.2397 14.9008 16.2707 14.9629C16.3173 15.025 16.3639 15.0871 16.4105 15.1492C16.457 15.1958 16.5114 15.2346 16.5735 15.2656C16.6511 15.2967 16.721 15.32 16.7831 15.3355C16.8607 15.351 16.9461 15.3588 17.0393 15.3588C17.1169 15.3588 17.1868 15.351 17.2489 15.3355C17.3265 15.32 17.3964 15.3045 17.4585 15.2889C17.5051 15.2579 17.5516 15.2191 17.5982 15.1725C17.6603 15.1259 17.7147 15.0716 17.7613 15.0095C17.7923 14.9474 17.8234 14.8775 17.8544 14.7999C17.8855 14.7067 17.9165 14.6135 17.9476 14.5204C17.9631 14.4117 17.9709 14.303 17.9709 14.1943C17.9864 14.0701 17.9942 13.9381 17.9942 13.7984ZM0.620059 7.23071C0.511374 7.3394 0.457031 7.47914 0.457031 7.64993C0.457031 7.80519 0.511374 7.94493 0.620059 8.06914C0.74427 8.17783 0.884008 8.23217 1.03927 8.23217C1.21006 8.23217 1.35757 8.17783 1.48178 8.06914L0.620059 7.23071ZM20.719 1.31514C20.7346 1.14435 20.6802 0.996846 20.556 0.872635C20.4473 0.748423 20.3076 0.686317 20.1368 0.686317L14.7802 0.5C14.6249 0.5 14.4852 0.554343 14.361 0.663028C14.2368 0.771713 14.1746 0.911451 14.1746 1.08224C14.1591 1.23751 14.2057 1.37724 14.3144 1.50146C14.4386 1.62567 14.5783 1.68777 14.7336 1.68777L19.508 1.8508L19.345 6.62518C19.345 6.79597 19.3993 6.94347 19.508 7.06769C19.6167 7.17637 19.7564 7.23848 19.9272 7.254C20.0825 7.254 20.2222 7.19966 20.3464 7.09098C20.4706 6.96676 20.5327 6.82703 20.5327 6.67176L20.719 1.31514ZM1.48178 8.06914L6.41919 3.10844L5.58076 2.27001L0.620059 7.23071L1.48178 8.06914ZM6.18629 3.13173L13.6157 7.23071L14.1979 6.18268L6.76853 2.10699L6.18629 3.13173ZM14.7802 7.09098L20.5327 1.71106L19.7176 0.849345L13.965 6.20597L14.7802 7.09098ZM13.6157 7.23071C13.8175 7.3394 14.0194 7.37821 14.2212 7.34716C14.4386 7.31611 14.6249 7.23071 14.7802 7.09098L13.965 6.20597C13.9961 6.19044 14.0349 6.18268 14.0815 6.18268C14.1281 6.16715 14.1669 6.16715 14.1979 6.18268L13.6157 7.23071ZM6.41919 3.10844C6.38813 3.1395 6.34932 3.16279 6.30274 3.17831C6.27168 3.17831 6.23287 3.16279 6.18629 3.13173L6.76853 2.10699C6.56669 1.9983 6.35708 1.95949 6.13971 1.99054C5.92234 2.02159 5.73602 2.11475 5.58076 2.27001L6.41919 3.10844Z" fill="#2A3EB1"/>
</svg>
