<svg width="22" height="24" viewBox="0 0 22 24" fill="none" xmlns="http://www.w3.org/2000/svg">
<rect x="4.57764e-05" width="21.9999" height="24" rx="6" fill="#EEEEEE"/>
<path fill-rule="evenodd" clip-rule="evenodd" d="M4.32578 7.43301C4.53435 7.22444 4.81723 7.10727 5.11219 7.10727H9.6916C9.94451 7.10727 10.1495 7.3123 10.1495 7.56521C10.1495 7.81812 9.94451 8.02315 9.6916 8.02315H5.11219C5.06014 8.02315 5.01022 8.04383 4.97341 8.08063C4.9366 8.11744 4.91593 8.16736 4.91593 8.21941V16.724C4.91593 16.7761 4.9366 16.826 4.97341 16.8628C5.01022 16.8996 5.06014 16.9203 5.11219 16.9203H16.8878C16.9399 16.9203 16.9898 16.8996 17.0266 16.8628C17.0634 16.826 17.0841 16.7761 17.0841 16.724V15.9063C17.0841 15.6534 17.2891 15.4483 17.542 15.4483C17.7949 15.4483 18 15.6534 18 15.9063V16.724C18 17.019 17.8828 17.3019 17.6742 17.5104C17.4656 17.719 17.1828 17.8362 16.8878 17.8362H5.11219C4.81723 17.8362 4.53435 17.719 4.32578 17.5104C4.11722 17.3019 4.00005 17.019 4.00005 16.724V8.21941C4.00005 7.92445 4.11722 7.64158 4.32578 7.43301Z" fill="#2A3EB1"/>
<path fill-rule="evenodd" clip-rule="evenodd" d="M5.96265 11.8175C5.96265 11.5646 6.16768 11.3596 6.42059 11.3596H9.03739C9.29031 11.3596 9.49533 11.5646 9.49533 11.8175C9.49533 12.0704 9.29031 12.2755 9.03739 12.2755H6.42059C6.16768 12.2755 5.96265 12.0704 5.96265 11.8175ZM5.96265 14.4343C5.96265 14.1814 6.16768 13.9764 6.42059 13.9764H14.271C14.5239 13.9764 14.7289 14.1814 14.7289 14.4343C14.7289 14.6872 14.5239 14.8923 14.271 14.8923H6.42059C6.16768 14.8923 5.96265 14.6872 5.96265 14.4343Z" fill="#2A3EB1"/>
<path fill-rule="evenodd" clip-rule="evenodd" d="M12.2142 11.3085C11.9997 10.9024 11.7373 10.4973 11.4404 10.2209C11.1776 9.97621 10.8093 9.75929 10.4436 9.5813C10.0195 9.37482 9.98623 8.67037 10.3944 8.4338C10.775 8.21318 11.1642 7.95103 11.4404 7.67487C11.7584 7.35682 12.0579 6.88876 12.2968 6.45663C12.5131 6.06524 13.1452 6.06524 13.3615 6.45663C13.6003 6.88876 13.8998 7.35682 14.2179 7.67487C14.494 7.95103 14.8833 8.21318 15.2639 8.4338C15.672 8.67037 15.6388 9.37482 15.2146 9.5813C14.849 9.75929 14.4807 9.97621 14.2179 10.2209C13.921 10.4973 13.6586 10.9024 13.4441 11.3085C13.2158 11.7406 12.4424 11.7406 12.2142 11.3085ZM16.225 13.8894C16.1177 13.6863 15.9865 13.4838 15.8381 13.3456C15.7067 13.2233 15.5225 13.1148 15.3397 13.0258C15.1276 12.9226 15.111 12.5703 15.3151 12.452C15.5054 12.3417 15.7 12.2107 15.8381 12.0726C15.9971 11.9136 16.1469 11.6795 16.2663 11.4635C16.3745 11.2678 16.6905 11.2678 16.7987 11.4635C16.9181 11.6795 17.0678 11.9136 17.2268 12.0726C17.3649 12.2107 17.5595 12.3417 17.7499 12.452C17.9539 12.5703 17.9373 12.9226 17.7252 13.0258C17.5424 13.1148 17.3583 13.2233 17.2268 13.3456C17.0784 13.4838 16.9472 13.6863 16.8399 13.8894C16.7258 14.1054 16.3391 14.1054 16.225 13.8894Z" fill="#2A3EB1"/>
</svg>
