<svg width="17" height="17" viewBox="0 0 16 12" fill="#EEEEEE" xmlns="http://www.w3.org/2000/svg">
<path d="M11.6998 5.99996L9.33317 3.63329L10.2832 2.69996L11.6998 4.11663L14.5332 1.28329L15.4665 2.23329L11.6998 5.99996ZM5.99984 5.99996C5.2665 5.99996 4.63873 5.73885 4.1165 5.21663C3.59428 4.6944 3.33317 4.06663 3.33317 3.33329C3.33317 2.59996 3.59428 1.97218 4.1165 1.44996C4.63873 0.927737 5.2665 0.666626 5.99984 0.666626C6.73317 0.666626 7.36095 0.927737 7.88317 1.44996C8.40539 1.97218 8.6665 2.59996 8.6665 3.33329C8.6665 4.06663 8.40539 4.6944 7.88317 5.21663C7.36095 5.73885 6.73317 5.99996 5.99984 5.99996ZM0.666504 11.3333V9.46663C0.666504 9.08885 0.763726 8.74163 0.958171 8.42496C1.15262 8.10829 1.41095 7.86663 1.73317 7.69996C2.42206 7.35552 3.12206 7.09718 3.83317 6.92496C4.54428 6.75274 5.2665 6.66663 5.99984 6.66663C6.73317 6.66663 7.45539 6.75274 8.1665 6.92496C8.87762 7.09718 9.57762 7.35552 10.2665 7.69996C10.5887 7.86663 10.8471 8.10829 11.0415 8.42496C11.2359 8.74163 11.3332 9.08885 11.3332 9.46663V11.3333H0.666504Z" 
fill="#727CAF"/>
</svg>
