<svg width="16" height="11" viewBox="0 0 16 11" fill="none" xmlns="http://www.w3.org/2000/svg">
<path d="M11.6569 5.49996L9.2902 3.13329L10.2402 2.19996L11.6569 3.61663L14.4902 0.783293L15.4235 1.73329L11.6569 5.49996ZM5.95687 5.49996C5.22354 5.49996 4.59576 5.23885 4.07353 4.71663C3.55131 4.1944 3.2902 3.56663 3.2902 2.83329C3.2902 2.09996 3.55131 1.47218 4.07353 0.949959C4.59576 0.427737 5.22354 0.166626 5.95687 0.166626C6.6902 0.166626 7.31798 0.427737 7.8402 0.949959C8.36242 1.47218 8.62353 2.09996 8.62353 2.83329C8.62353 3.56663 8.36242 4.1944 7.8402 4.71663C7.31798 5.23885 6.6902 5.49996 5.95687 5.49996ZM0.623535 10.8333V8.96663C0.623535 8.58885 0.720757 8.24163 0.915202 7.92496C1.10965 7.60829 1.36798 7.36663 1.6902 7.19996C2.37909 6.85552 3.07909 6.59718 3.7902 6.42496C4.50131 6.25274 5.22354 6.16663 5.95687 6.16663C6.6902 6.16663 7.41242 6.25274 8.12353 6.42496C8.83465 6.59718 9.53465 6.85552 10.2235 7.19996C10.5458 7.36663 10.8041 7.60829 10.9985 7.92496C11.193 8.24163 11.2902 8.58885 11.2902 8.96663V10.8333H0.623535Z" 
fill="#2A3EB1"/>
</svg>
