<svg width="17" height="17" viewBox="0 0 15 15" fill="none" xmlns="http://www.w3.org/2000/svg">
<path d="M8.95684 13.5H12.9568V12.95C12.6791 12.6945 12.3679 12.5 12.0235 12.3667C11.6791 12.2334 11.3235 12.1667 10.9568 12.1667C10.5902 12.1667 10.2346 12.2334 9.89017 12.3667C9.54573 12.5 9.23461 12.6945 8.95684 12.95V13.5ZM10.9568 11.5C11.2346 11.5 11.4707 11.4028 11.6652 11.2084C11.8596 11.0139 11.9568 10.7778 11.9568 10.5C11.9568 10.2223 11.8596 9.98615 11.6652 9.79171C11.4707 9.59726 11.2346 9.50004 10.9568 9.50004C10.6791 9.50004 10.4429 9.59726 10.2485 9.79171C10.0541 9.98615 9.95684 10.2223 9.95684 10.5C9.95684 10.7778 10.0541 11.0139 10.2485 11.2084C10.4429 11.4028 10.6791 11.5 10.9568 11.5ZM6.99017 5.16671C6.34573 5.16671 5.79572 5.39449 5.34017 5.85004C4.88461 6.3056 4.65684 6.8556 4.65684 7.50004C4.65684 8.03337 4.80684 8.50004 5.10684 8.90004C5.40684 9.30004 5.80128 9.57782 6.29017 9.73337C6.29017 9.47782 6.29295 9.23337 6.2985 9.00004C6.30406 8.76671 6.35128 8.5556 6.44017 8.36671C6.28461 8.27782 6.17072 8.1556 6.0985 8.00004C6.02628 7.84449 5.99017 7.67782 5.99017 7.50004C5.99017 7.22226 6.08739 6.98615 6.28184 6.79171C6.47628 6.59726 6.71239 6.50004 6.99017 6.50004C7.15684 6.50004 7.31517 6.54171 7.46517 6.62504C7.61517 6.70837 7.74017 6.82226 7.84017 6.96671C7.96239 6.91115 8.09017 6.87226 8.2235 6.85004C8.35684 6.82782 8.49017 6.81671 8.6235 6.81671H9.2235C9.07906 6.33893 8.80406 5.94449 8.3985 5.63337C7.99295 5.32226 7.5235 5.16671 6.99017 5.16671ZM5.1235 14.1667L4.85684 12.0334C4.71239 11.9778 4.57628 11.9112 4.4485 11.8334C4.32072 11.7556 4.19572 11.6723 4.0735 11.5834L2.09017 12.4167L0.256836 9.25004L1.9735 7.95004C1.96239 7.87226 1.95684 7.79726 1.95684 7.72504V7.27504C1.95684 7.20282 1.96239 7.12782 1.9735 7.05004L0.256836 5.75004L2.09017 2.58337L4.0735 3.41671C4.19572 3.32782 4.3235 3.24449 4.45684 3.16671C4.59017 3.08893 4.7235 3.02226 4.85684 2.96671L5.1235 0.833374H8.79017L9.05684 2.96671C9.20128 3.02226 9.33739 3.08893 9.46517 3.16671C9.59295 3.24449 9.71795 3.32782 9.84017 3.41671L11.8235 2.58337L13.6568 5.75004L12.2402 6.83337H10.5568C10.5457 6.77782 10.5346 6.71949 10.5235 6.65837C10.5124 6.59726 10.4957 6.53893 10.4735 6.48337L11.9068 5.40004L11.2568 4.26671L9.60684 4.96671C9.36239 4.71115 9.09295 4.49726 8.7985 4.32504C8.50406 4.15282 8.18461 4.02226 7.84017 3.93337L7.6235 2.16671H6.30684L6.0735 3.93337C5.72906 4.02226 5.40961 4.15282 5.11517 4.32504C4.82072 4.49726 4.55128 4.7056 4.30684 4.95004L2.65684 4.26671L2.00684 5.40004L3.44017 6.46671C3.38461 6.63337 3.34572 6.80004 3.3235 6.96671C3.30128 7.13337 3.29017 7.31115 3.29017 7.50004C3.29017 7.67782 3.30128 7.85004 3.3235 8.01671C3.34572 8.18337 3.38461 8.35004 3.44017 8.51671L2.00684 9.60004L2.65684 10.7334L4.30684 10.0334C4.5735 10.3112 4.8735 10.5445 5.20684 10.7334C5.54017 10.9223 5.90128 11.0445 6.29017 11.1V14.1667H5.1235ZM8.6235 14.8334C8.34573 14.8334 8.10961 14.7362 7.91517 14.5417C7.72073 14.3473 7.6235 14.1112 7.6235 13.8334V9.16671C7.6235 8.88893 7.72073 8.65282 7.91517 8.45837C8.10961 8.26393 8.34573 8.16671 8.6235 8.16671H13.2902C13.5679 8.16671 13.8041 8.26393 13.9985 8.45837C14.1929 8.65282 14.2902 8.88893 14.2902 9.16671V13.8334C14.2902 14.1112 14.1929 14.3473 13.9985 14.5417C13.8041 14.7362 13.5679 14.8334 13.2902 14.8334H8.6235Z" fill="#2A3EB1"/>
</svg>
