<svg xmlns="http://www.w3.org/2000/svg" width="15" height="16" viewBox="0 0 15 16" fill="none">
  <path d="M3.53293 8.28921C4.33907 9.03976 4.98937 10.3708 5.3836 11.325C5.5247 11.6665 6.07746 11.6665 6.21855 11.325C6.61278 10.3708 7.26308 9.03976 8.06922 8.28921C8.78593 7.62194 9.98283 7.08112 10.8379 6.75159C11.1707 6.62333 11.1958 6.1113 10.8755 5.9543C10.0202 5.53501 8.80138 4.86311 8.06922 4.13095C7.29772 3.35944 6.59312 2.04753 6.18049 1.19004C6.03389 0.885383 5.56826 0.885383 5.42166 1.19004C5.00903 2.04753 4.30444 3.35944 3.53293 4.13095C2.80077 4.86311 1.58191 5.53501 0.726625 5.9543C0.406378 6.1113 0.431491 6.62333 0.764291 6.75159C1.61932 7.08112 2.81623 7.62194 3.53293 8.28921Z" fill="#2A3EB1"/>
  <path d="M10.7154 13.3925C11.1185 13.7678 11.4436 14.4333 11.6407 14.9104C11.7113 15.0812 11.9877 15.0812 12.0582 14.9104C12.2553 14.4333 12.5805 13.7678 12.9835 13.3925C13.3419 13.0589 13.9403 12.7885 14.3679 12.6237C14.5343 12.5596 14.5468 12.3036 14.3867 12.2251C13.959 12.0154 13.3496 11.6795 12.9835 11.3134C12.5978 10.9276 12.2455 10.2717 12.0392 9.84294C11.9659 9.69061 11.7331 9.69061 11.6598 9.84294C11.4534 10.2717 11.1011 10.9276 10.7154 11.3134C10.3493 11.6795 9.73988 12.0154 9.31224 12.2251C9.15211 12.3036 9.16467 12.5596 9.33107 12.6237C9.75858 12.7885 10.357 13.0589 10.7154 13.3925Z" fill="#2A3EB1"/>
</svg>