<svg xmlns="http://www.w3.org/2000/svg" width="17" height="17" viewBox="0 0 17 17" fill="none">
  <mask id="mask0_2051_8818" style="mask-type:alpha" maskUnits="userSpaceOnUse" x="0" y="0" width="17" height="17">
    <rect x="0.957031" y="0.5" width="16" height="16" fill="#D9D9D9"/>
  </mask>
  <g mask="url(#mask0_2051_8818)">
    <path d="M4.29036 14.5C3.9237 14.5 3.60981 14.3694 3.3487 14.1083C3.08759 13.8472 2.95703 13.5333 2.95703 13.1667V3.83333C2.95703 3.46667 3.08759 3.15278 3.3487 2.89167C3.60981 2.63056 3.9237 2.5 4.29036 2.5H13.6237C13.9904 2.5 14.3043 2.63056 14.5654 2.89167C14.8265 3.15278 14.957 3.46667 14.957 3.83333V13.1667C14.957 13.5333 14.8265 13.8472 14.5654 14.1083C14.3043 14.3694 13.9904 14.5 13.6237 14.5H4.29036ZM5.6237 11.8333H10.2904V10.5H5.6237V11.8333ZM5.6237 9.16667H12.2904V7.83333H5.6237V9.16667ZM5.6237 6.5H12.2904V5.16667H5.6237V6.5Z" fill="#2A3EB1"/>
  </g>
</svg>