<svg id="icon-field-configurations" xmlns="http://www.w3.org/2000/svg" width="18" height="18" viewBox="0 0 18 18" >
  <path d="M1.63636 18C1.18636 18 0.801136 17.8398 0.480682 17.5193C0.160227 17.1989 0 16.8136 0 16.3636V1.63636C0 1.18636 0.160227 0.801136 0.480682 0.480682C0.801136 0.160227 1.18636 0 1.63636 0H9.81818C10.2682 0 10.6534 0.160227 10.9739 0.480682C11.2943 0.801136 11.4545 1.18636 11.4545 1.63636V4.90909H9.81818V4.09091H1.63636V13.9091H9.81818V13.0909H11.4545V16.3636C11.4545 16.8136 11.2943 17.1989 10.9739 17.5193C10.6534 17.8398 10.2682 18 9.81818 18H1.63636ZM1.63636 15.5455V16.3636H9.81818V15.5455H1.63636ZM9.81818 12.2727L9.69545 11.25C9.58636 11.2091 9.49091 11.1648 9.40909 11.117C9.32727 11.0693 9.24545 11.0045 9.16364 10.9227L8.22273 11.3318L7.40455 9.9L8.22273 9.28636C8.19545 9.17727 8.18182 9.075 8.18182 8.97955C8.18182 8.88409 8.19545 8.78182 8.22273 8.67273L7.40455 8.05909L8.26364 6.66818L9.16364 7.03636C9.24545 6.96818 9.32727 6.91364 9.40909 6.87273C9.49091 6.83182 9.58636 6.79091 9.69545 6.75L9.81818 5.72727H11.4545L11.5773 6.75C11.6864 6.79091 11.7818 6.83182 11.8636 6.87273C11.9455 6.91364 12.0273 6.96818 12.1091 7.03636L13.0091 6.66818L13.8682 8.05909L13.05 8.67273C13.0773 8.78182 13.0909 8.88409 13.0909 8.97955C13.0909 9.075 13.0773 9.17727 13.05 9.28636L13.8682 9.9L13.05 11.3318L12.1091 10.9227C12.0273 11.0045 11.9455 11.0693 11.8636 11.117C11.7818 11.1648 11.6864 11.2091 11.5773 11.25L11.4545 12.2727H9.81818ZM10.6364 10.2273C10.9909 10.2273 11.2841 10.1114 11.5159 9.87955C11.7477 9.64773 11.8636 9.35455 11.8636 9C11.8636 8.64545 11.7477 8.35227 11.5159 8.12045C11.2841 7.88864 10.9909 7.77273 10.6364 7.77273C10.2818 7.77273 9.98864 7.88864 9.75682 8.12045C9.525 8.35227 9.40909 8.64545 9.40909 9C9.40909 9.35455 9.525 9.64773 9.75682 9.87955C9.98864 10.1114 10.2818 10.2273 10.6364 10.2273ZM1.63636 2.45455H9.81818V1.63636H1.63636V2.45455Z" fill="#727CAF"/>
</svg>
