<svg width="17" height="17" viewBox="0 0 17 17" fill="none" xmlns="http://www.w3.org/2000/svg">
<path fill-rule="evenodd" clip-rule="evenodd" d="M4.26513 3.43855C3.78381 3.43855 3.39363 3.82873 3.39363 4.31006V5.98603C3.39363 6.46735 3.78381 6.85754 4.26513 6.85754H5.94111C6.42243 6.85754 6.81262 6.46735 6.81262 5.98603V4.31006C6.81262 3.82873 6.42243 3.43855 5.94111 3.43855H4.26513ZM2.45508 4.31006C2.45508 3.31039 3.26547 2.5 4.26513 2.5H5.94111C6.94078 2.5 7.75117 3.31039 7.75117 4.31006V5.98603C7.75117 6.9857 6.94078 7.79609 5.94111 7.79609H4.26513C3.26547 7.79609 2.45508 6.9857 2.45508 5.98603V4.31006Z" fill="#727CAF"/>
<path fill-rule="evenodd" clip-rule="evenodd" d="M11.8062 9.53906C12.0654 9.53906 12.2755 9.74916 12.2755 10.0083V11.7178H13.985C14.2442 11.7178 14.4543 11.9279 14.4543 12.1871C14.4543 12.4463 14.2442 12.6564 13.985 12.6564H12.2755V14.3659C12.2755 14.6251 12.0654 14.8352 11.8062 14.8352C11.5471 14.8352 11.337 14.6251 11.337 14.3659V12.6564H9.62748C9.3683 12.6564 9.1582 12.4463 9.1582 12.1871C9.1582 11.9279 9.3683 11.7178 9.62748 11.7178H11.337V10.0083C11.337 9.74916 11.5471 9.53906 11.8062 9.53906Z" fill="#727CAF"/>
<path fill-rule="evenodd" clip-rule="evenodd" d="M4.26513 10.1417C3.78381 10.1417 3.39363 10.5319 3.39363 11.0132V12.6892C3.39363 13.1705 3.78381 13.5607 4.26513 13.5607H5.94111C6.42243 13.5607 6.81262 13.1705 6.81262 12.6892V11.0132C6.81262 10.5319 6.42243 10.1417 5.94111 10.1417H4.26513ZM2.45508 11.0132C2.45508 10.0135 3.26547 9.20312 4.26513 9.20312H5.94111C6.94078 9.20312 7.75117 10.0135 7.75117 11.0132V12.6892C7.75117 13.6888 6.94078 14.4992 5.94111 14.4992H4.26513C3.26547 14.4992 2.45508 13.6888 2.45508 12.6892V11.0132Z" fill="#727CAF"/>
<path fill-rule="evenodd" clip-rule="evenodd" d="M10.9683 3.43855C10.4869 3.43855 10.0968 3.82873 10.0968 4.31006V5.98603C10.0968 6.46735 10.4869 6.85754 10.9683 6.85754H12.6442C13.1256 6.85754 13.5157 6.46735 13.5157 5.98603V4.31006C13.5157 3.82873 13.1256 3.43855 12.6442 3.43855H10.9683ZM9.1582 4.31006C9.1582 3.31039 9.96859 2.5 10.9683 2.5H12.6442C13.6439 2.5 14.4543 3.31039 14.4543 4.31006V5.98603C14.4543 6.9857 13.6439 7.79609 12.6442 7.79609H10.9683C9.96859 7.79609 9.1582 6.9857 9.1582 5.98603V4.31006Z" fill="#727CAF"/>
</svg>
