<svg width="13" height="12" viewBox="0 0 13 12" fill="none" xmlns="http://www.w3.org/2000/svg">
<g id="vpn_lock">
<mask id="mask0_120_1824" style="mask-type:alpha" maskUnits="userSpaceOnUse" x="0" y="0" width="13" height="12">
<rect id="Bounding box" x="0.884766" y="0.38501" width="11.23" height="11.23" fill="#D9D9D9"/>
</mask>
<g mask="url(#mask0_120_1824)">
<path id="vpn_lock_2" d="M6.49997 10.6792C5.86048 10.6792 5.25609 10.5563 4.68679 10.3107C4.11749 10.065 3.62033 9.72967 3.19531 9.30465C2.77028 8.87963 2.43494 8.38246 2.18929 7.81317C1.94363 7.24387 1.8208 6.63947 1.8208 5.99999C1.8208 5.3527 1.94363 4.74636 2.18929 4.18096C2.43494 3.61556 2.77028 3.12035 3.19531 2.69533C3.62033 2.2703 4.11749 1.93496 4.68679 1.68931C5.25609 1.44365 5.86048 1.32082 6.49997 1.32082C6.74952 1.32082 6.98933 1.33837 7.21939 1.37346C7.44945 1.40856 7.67756 1.4612 7.90372 1.53138V2.72457C7.90372 2.98193 7.81208 3.20224 7.62882 3.3855C7.44555 3.56877 7.22524 3.66041 6.96788 3.66041H6.03205V4.59624C6.03205 4.72882 5.98721 4.83995 5.89752 4.92963C5.80784 5.01931 5.69671 5.06416 5.56413 5.06416H4.6283V5.99999H7.4358C7.56838 5.99999 7.67951 6.04483 7.76919 6.13451C7.85888 6.2242 7.90372 6.33533 7.90372 6.46791V7.87166H8.37163C8.5822 7.87166 8.76741 7.93404 8.92729 8.05882C9.08716 8.1836 9.19829 8.33957 9.26068 8.52674C9.56482 8.1836 9.80463 7.79952 9.9801 7.37449C10.1556 6.94947 10.2433 6.4913 10.2433 5.99999C10.2433 5.9142 10.2394 5.83622 10.2316 5.76603C10.2238 5.69584 10.2121 5.61786 10.1965 5.53207H11.1557C11.1713 5.61786 11.1791 5.69584 11.1791 5.76603V5.99999C11.1791 6.63947 11.0563 7.24387 10.8106 7.81317C10.565 8.38246 10.2297 8.87963 9.80463 9.30465C9.3796 9.72967 8.88439 10.065 8.31899 10.3107C7.75359 10.5563 7.14725 10.6792 6.49997 10.6792ZM6.03205 9.71993V8.80749C5.7747 8.80749 5.55439 8.71586 5.37112 8.53259C5.18785 8.34932 5.09622 8.12901 5.09622 7.87166V7.40374L2.85022 5.15774C2.82682 5.29811 2.80538 5.43849 2.78588 5.57886C2.76638 5.71924 2.75663 5.85961 2.75663 5.99999C2.75663 6.96702 3.07053 7.79952 3.69832 8.49749C4.3261 9.19547 5.10402 9.60295 6.03205 9.71993ZM9.30747 4.59624C9.17489 4.59624 9.06376 4.5514 8.97408 4.46171C8.88439 4.37203 8.83955 4.2609 8.83955 4.12832V2.72457C8.83955 2.592 8.88439 2.48087 8.97408 2.39118C9.06376 2.3015 9.17489 2.25666 9.30747 2.25666V1.78874C9.30747 1.53138 9.3991 1.31107 9.58237 1.12781C9.76564 0.944539 9.98595 0.852905 10.2433 0.852905C10.5007 0.852905 10.721 0.944539 10.9042 1.12781C11.0875 1.31107 11.1791 1.53138 11.1791 1.78874V2.25666C11.3117 2.25666 11.4228 2.3015 11.5125 2.39118C11.6022 2.48087 11.6471 2.592 11.6471 2.72457V4.12832C11.6471 4.2609 11.6022 4.37203 11.5125 4.46171C11.4228 4.5514 11.3117 4.59624 11.1791 4.59624H9.30747ZM9.77538 2.25666H10.7112V1.78874C10.7112 1.65616 10.6664 1.54503 10.5767 1.45535C10.487 1.36566 10.3759 1.32082 10.2433 1.32082C10.1107 1.32082 9.99959 1.36566 9.90991 1.45535C9.82023 1.54503 9.77538 1.65616 9.77538 1.78874V2.25666Z" fill="#2A3EB1"/>
</g>
</g>
</svg>
